<?xml version="1.0" standalone="no"?>
<!DOCTYPE svg PUBLIC "-//W3C//DTD SVG 1.1//EN" "http://www.w3.org/Graphics/SVG/1.1/DTD/svg11.dtd" >
<svg>
<metadata>
Created by FontForge 20090622 at Mon Nov 19 16:53:22 2018
 By ffonts
Copyright (c) 2017 by Cosimo Lorenzo Pancini &#38; Francesco Canovaro. All rights reserved.
</metadata>
<defs>
<font id="CodecColdTrial-Bold" horiz-adv-x="2531" >
  <font-face 
    font-family="Codec Cold Trial"
    font-weight="700"
    font-stretch="normal"
    units-per-em="2048"
    panose-1="2 0 5 4 4 0 0 2 0 4"
    ascent="1638"
    descent="-410"
    x-height="1029"
    cap-height="1360"
    bbox="-783 -557 3227 1903"
    underline-thickness="95"
    underline-position="-97"
    unicode-range="U+000D-U+FB06"
  />
<missing-glyph horiz-adv-x="468" 
 />
    <glyph glyph-name="fi" unicode="fi" horiz-adv-x="1353" 
d="M922 819h-433v-819h-244v819h-199v210h199v44q0 70 17 140t58 125t110 89.5t174 34.5h179v-200l-122 1q-48 0 -81 -15t-53.5 -41.5t-29 -62t-8.5 -76.5v-39h677v-1029h-244v819zM894 1320q0 28 11 52.5t30.5 43t47.5 29.5t62 11t62.5 -11t48.5 -29.5t31 -43t11 -52.5
t-11 -52.5t-31 -43t-48.5 -29t-62.5 -10.5t-61.5 10.5t-47.5 29t-31 43t-11 52.5z" />
    <glyph glyph-name="fl" unicode="fl" horiz-adv-x="1395" 
d="M979 1224q-66 17 -144.5 30.5t-160.5 13.5q-50 0 -85 -15t-57 -42t-32.5 -64t-10.5 -80v-38h291v-210h-291v-819h-244v819h-199v210h199v59q0 45 6.5 91t23 88.5t44.5 80t71.5 65.5t104 44t141.5 16q109 0 209.5 -15.5t179.5 -36t131 -41t66 -31.5v-1349h-243v1224z" />
    <glyph glyph-name="f_t" unicode="ft" horiz-adv-x="1625" 
d="M949 771h-473v-771h-244v771h-175v211h175v93q0 67 16.5 134.5t55 121.5t102.5 88t159 34q77 0 128.5 -14.5t77.5 -35.5l-74 -183q-11 4 -24 8q-11 3 -26.5 5.5t-34.5 2.5q-69 0 -102.5 -45t-33.5 -120v-89h473v296l242 1v-297h308v-211h-308v-394q0 -57 13 -95t34 -61
t49 -32.5t58 -9.5q29 0 51.5 4t40.5 10t33 14l30 16l78 -182q-14 -12 -38.5 -25t-57.5 -24.5t-74 -19t-86 -7.5q-80 0 -148 19.5t-118 66.5t-78.5 126t-28.5 198v396z" />
    <glyph glyph-name="ff" unicode="ff" horiz-adv-x="1611" 
d="M1025 819h-536v-819h-244v819h-199v210h199v44q0 70 17 140t58 125t110 89.5t174 34.5h179v-200l-122 1q-48 0 -81 -15t-53.5 -41.5t-29 -62t-8.5 -76.5v-39h536v44q0 70 17 140t58.5 125t111 89.5t173.5 34.5h179v-200l-123 1q-48 0 -81 -15t-53 -41.5t-29 -62t-9 -76.5
v-39h291v-210h-290v-819h-245v819z" />
    <glyph glyph-name="ffi" unicode="ffi" horiz-adv-x="2160" 
d="M1025 819h-536v-819h-244v819h-199v210h199v44q0 70 17 140t58 125t110 89.5t174 34.5h179v-200l-122 1q-48 0 -81 -15t-53.5 -41.5t-29 -62t-8.5 -76.5v-39h536v44q0 70 17 140t58.5 125t111 89.5t173.5 34.5h179v-200l-123 1q-48 0 -81 -15t-53 -41.5t-29 -62t-9 -76.5
v-39h706v-1029h-244v819h-461v-819h-245v819zM1703 1320q0 28 11 52.5t31 43t47.5 29.5t61.5 11t62.5 -11t48.5 -29.5t31 -43t11 -52.5t-11 -52.5t-31 -43t-48.5 -29t-62.5 -10.5t-61.5 10.5t-47.5 29t-31 43t-11 52.5z" />
    <glyph glyph-name="ffl" unicode="ffl" horiz-adv-x="2189" 
d="M1027 819h-538v-819h-244v819h-199v210h199v44q0 70 17 140t58 125t110 89.5t174 34.5h179v-200l-122 1q-48 0 -81 -15t-53.5 -41.5t-29 -62t-8.5 -76.5v-39h538v44q0 70 17 140t58.5 125t110.5 89.5t174 34.5h179v-200l-122 1q-48 0 -81 -15t-53.5 -41.5t-29 -62
t-8.5 -76.5v-39h489v380h243v-1409h-243v819h-489v-819h-245v819z" />
    <glyph glyph-name="f_j" unicode="fj" horiz-adv-x="1386" 
d="M245 819h-199v210h199v44q0 70 17 140t58 125t110 89.5t174 34.5h179v-200l-122 1q-48 0 -81 -15t-53.5 -41.5t-29 -62t-8.5 -76.5v-39h710v-1028q0 -96 -27 -168t-76.5 -120t-118 -72t-151.5 -24h-106v209h96q69 0 103.5 47.5t34.5 130.5v815h-465v-819h-244v819z
M927 1320q0 28 11 52.5t30.5 43t47.5 29.5t62 11t62.5 -11t48.5 -29.5t31 -43t11 -52.5t-11 -52.5t-31 -43t-48.5 -29t-62.5 -10.5t-61.5 10.5t-47.5 29t-31 43t-11 52.5z" />
    <glyph glyph-name="IJ" unicode="IJ" horiz-adv-x="1127" 
d="M151 215h367q61 0 104 15.5t70 45.5t39.5 73t12.5 98v913h248v-914q0 -110 -32.5 -193t-93.5 -139.5t-149.5 -85t-199.5 -28.5h-366v215zM155 1360h250v-906h-250v906z" />
    <glyph glyph-name="ij" unicode="ij" horiz-adv-x="1157" 
d="M160 1029h245v-817h334v817h246v-1028q0 -96 -27.5 -168t-77 -120t-118 -72t-151.5 -24h-106v209h96q69 0 103 46.5t35 127.5h-579v1029zM133 1309q0 28 11 52.5t30.5 43t47.5 29.5t62 11t62.5 -11t48.5 -29.5t31 -43t11 -52.5t-11 -52.5t-31 -43t-48.5 -29t-62.5 -10.5
t-61.5 10.5t-47.5 29t-31 43t-11 52.5zM701 1309q0 28 11 52.5t31 43t48 29.5t62 11t62 -11t48 -29.5t31 -43t11 -52.5t-11 -52.5t-31 -43t-48.5 -29t-62.5 -10.5t-61.5 10.5t-47.5 29t-31 43t-11 52.5z" />
    <glyph glyph-name="Germandbls" unicode="SS" horiz-adv-x="1343" 
d="M565 216h224q36 0 71.5 13t64.5 37.5t47 61t18 83.5q0 43 -16 79t-43 62t-63.5 40t-77.5 14h-118v168l227 371h-319q-34 0 -65.5 -12.5t-55.5 -35t-38 -54.5t-14 -70v-973h-249v991q0 85 30 153.5t84.5 116.5t131 73.5t169.5 25.5h575v-202l-228 -402q65 -18 123.5 -52
t103 -80.5t70.5 -104t26 -123.5q0 -102 -37 -176.5t-98 -123t-139.5 -72.5t-160.5 -24h-244z" />
    <glyph glyph-name="B.long" unicode="BBBB" horiz-adv-x="1694" 
d="M411 802h665q34 0 65.5 12t55.5 34.5t38.5 54t14.5 70.5q0 38 -14.5 70t-38.5 54.5t-55.5 35t-65.5 12.5h-665v-343zM1123 216q35 0 71 13t65 37.5t47 61t18 83.5q0 43 -16 79t-43 62t-63.5 40t-78.5 14h-712v-390h712zM162 0v1360h923q92 0 168.5 -25.5t131 -73.5
t84.5 -116.5t30 -153.5q0 -45 -13.5 -87t-37 -78t-55 -63.5t-66.5 -42.5q51 -17 96.5 -48t79 -73t53.5 -94t20 -109q0 -102 -37 -176.5t-98 -123t-139 -72.5t-160 -24h-980z" />
    <glyph glyph-name="B.longer" unicode="BBBBB" horiz-adv-x="2457" 
d="M411 802h1407q34 0 65.5 12t55.5 34.5t38.5 54t14.5 70.5q0 38 -14.5 70t-38.5 54.5t-55.5 35t-65.5 12.5h-1407v-343zM1865 216q35 0 71 13t65 37.5t47 61t18 83.5q0 43 -16 79t-43 62t-63.5 40t-77.5 14h-1455v-390h1454zM162 0v1360h1665q93 0 169 -25.5t130.5 -73.5
t84.5 -116.5t30 -153.5q0 -45 -13.5 -87t-37 -78t-55 -63.5t-66.5 -42.5q51 -17 96.5 -48t79.5 -73t54 -94t20 -109q0 -102 -37 -176.5t-98 -123t-139.5 -72.5t-160.5 -24h-1722z" />
    <glyph glyph-name="B.longest" unicode="BBBBBB" horiz-adv-x="2940" 
d="M411 802h1932q34 0 65.5 12t55.5 34.5t38.5 54t14.5 70.5q0 38 -14.5 70t-38.5 54.5t-55.5 35t-65.5 12.5h-1932v-343zM2390 216q35 0 71 13t65 37.5t47 61t18 83.5q0 43 -16 79t-43 62t-63.5 40t-77.5 14h-1980v-390h1979zM162 0v1360h2190q93 0 169 -25.5t130.5 -73.5
t84.5 -116.5t30 -153.5q0 -45 -13.5 -87t-37 -78t-55 -63.5t-66.5 -42.5q51 -17 96.5 -48t79.5 -73t54 -94t20 -109q0 -102 -37 -176.5t-98 -123t-139.5 -72.5t-160.5 -24h-2247z" />
    <glyph glyph-name="D.long" unicode="DDDD" horiz-adv-x="1694" 
d="M851 215q114 0 202.5 31.5t149 91t91.5 145t31 194.5q0 105 -29 191t-88 147.5t-148 95.5t-209 34h-440v-930h440zM162 1360h694q155 0 287 -44.5t228 -131t150.5 -213t54.5 -290.5q0 -152 -47.5 -277.5t-138.5 -215t-225 -139t-306 -49.5h-697v1360z" />
    <glyph glyph-name="D.longer" unicode="DDDDD" horiz-adv-x="2457" 
d="M1630 215q114 0 202.5 31.5t149 91t92 145t31.5 194.5q0 105 -29 191t-88.5 147.5t-148.5 95.5t-209 34h-1219v-930h1219zM162 1360h1473q155 0 287 -44.5t228 -131t150.5 -213t54.5 -290.5q0 -152 -47.5 -277.5t-138.5 -215t-225 -139t-306 -49.5h-1476v1360z" />
    <glyph glyph-name="D.longest" unicode="DDDDDD" horiz-adv-x="2940" 
d="M2118 215q114 0 202.5 31.5t149 91t91.5 145t31 194.5q0 105 -29 191t-88 147.5t-148 95.5t-209 34h-1707v-930h1707zM162 1360h1960q155 0 287 -44.5t228 -131t150.5 -213t54.5 -290.5q0 -152 -47 -277.5t-138.5 -215t-225 -139t-305.5 -49.5h-1964v1360z" />
    <glyph glyph-name="E.long" unicode="EEEE" horiz-adv-x="1694" 
d="M162 1360h1408v-216h-1159v-364h1096v-214h-1096v-351h1168v-215h-1417v1360z" />
    <glyph glyph-name="E.longer" unicode="EEEEE" horiz-adv-x="2457" 
d="M162 1360h2168v-216h-1919v-364h1860v-214h-1860v-351h1929v-215h-2178v1360z" />
    <glyph glyph-name="E.longest" unicode="EEEEEE" horiz-adv-x="2940" 
d="M162 1360h2624v-216h-2375v-364h2312v-214h-2312v-351h2384v-215h-2633v1360z" />
    <glyph glyph-name="H.long" unicode="HHHH" horiz-adv-x="2022" 
d="M163 1360h249v-580h1194v580h249v-1360h-249v566h-1194v-566h-249v1360z" />
    <glyph glyph-name="H.longer" unicode="HHHHH" horiz-adv-x="2457" 
d="M161 1360h249v-580h1631v580h250v-1360h-250v566h-1631v-566h-249v1360z" />
    <glyph glyph-name="H.longest" unicode="HHHHHH" horiz-adv-x="2940" 
d="M126 1360h249v-580h2149v580h250v-1360h-250v566h-2149v-566h-249v1360z" />
    <glyph glyph-name="N.long" unicode="NNNN" horiz-adv-x="2022" 
d="M1853 0h-217l-1225 1018v-1018h-249v1360h217l1226 -1014v1014h248v-1360z" />
    <glyph glyph-name="N.longer" unicode="NNNNN" horiz-adv-x="2457" 
d="M2289 0h-217l-1661 1069v-1069h-249v1360h217l1662 -1065v1065h248v-1360z" />
    <glyph glyph-name="N.longest" unicode="NNNNNN" horiz-adv-x="2940" 
d="M2775 0h-217l-2147 1092v-1092h-249v1360h217l2148 -1087v1087h248v-1360z" />
    <glyph glyph-name="R.long" unicode="RRRR" horiz-adv-x="1690" 
d="M1030 444h-623v-444h-249v1360h923q103 0 189.5 -34.5t149.5 -95.5t98 -145.5t35 -183.5q0 -74 -19.5 -139.5t-55 -119.5t-85.5 -95.5t-112 -66.5l327 -480h-287zM1073 659q49 0 91 18.5t73 51t49 76.5t18 95t-18 95.5t-49 77.5t-74 52.5t-92 19.5h-664v-486h666z" />
    <glyph glyph-name="R.longer" unicode="RRRRR" horiz-adv-x="2457" 
d="M1770 444h-1359v-444h-249v1360h1659q103 0 189.5 -34.5t149.5 -95.5t98 -145.5t35 -183.5q0 -74 -19.5 -139.5t-55 -119.5t-86 -95.5t-112.5 -66.5l328 -480h-286zM1813 659q49 0 91 18.5t73 51t49 76.5t18 95t-18 95.5t-49.5 77.5t-73.5 52.5t-91 19.5h-1401v-486h1402
z" />
    <glyph glyph-name="R.longest" unicode="RRRRRR" horiz-adv-x="2940" 
d="M2264 444h-1853v-444h-249v1360h2153q103 0 189.5 -34.5t149.5 -95.5t98 -145.5t35 -183.5q0 -74 -19.5 -139.5t-55 -119.5t-85.5 -95.5t-112 -66.5l327 -480h-286zM2307 659q49 0 91 18.5t73 51t49 76.5t18 95t-18 95.5t-49 77.5t-74 52.5t-92 19.5h-1894v-486h1896z
" />
    <glyph glyph-name="F.long" unicode="FFFF" horiz-adv-x="1694" 
d="M162 1360h1408v-216h-1159v-364h1096v-214h-1096v-566h-249v1360z" />
    <glyph glyph-name="F.longer" unicode="FFFFF" horiz-adv-x="2457" 
d="M162 1360h2168v-216h-1919v-364h1860v-214h-1860v-566h-249v1360z" />
    <glyph glyph-name="F.longest" unicode="FFFFFF" horiz-adv-x="2940" 
d="M162 1360h2624v-216h-2375v-364h2312v-214h-2312v-567l-249 1v1360z" />
    <glyph glyph-name="P.long" unicode="PPPP" horiz-adv-x="1694" 
d="M411 444v-444h-249v1360h923q103 0 189.5 -34.5t149.5 -95.5t98 -145.5t35 -183.5q0 -101 -34.5 -184.5t-97 -144.5t-148.5 -94.5t-188 -33.5h-678zM1076 659q49 0 91.5 18.5t73.5 51t49 76.5t18 95t-18 95.5t-49.5 77.5t-74 52.5t-91.5 19.5h-664v-486h665z" />
    <glyph glyph-name="P.longer" unicode="PPPPP" horiz-adv-x="2457" 
d="M411 444v-444h-249v1360h1659q103 0 189.5 -34.5t149.5 -95.5t98 -145.5t35 -183.5q0 -101 -34.5 -184.5t-97 -144.5t-148 -94.5t-187.5 -33.5h-1415zM1813 659q49 0 91 18.5t73 51t49 76.5t18 95t-18 95.5t-49.5 77.5t-73.5 52.5t-91 19.5h-1401v-486h1402z" />
    <glyph glyph-name="P.longest" unicode="PPPPPP" horiz-adv-x="2940" 
d="M411 444v-444h-249v1360h2153q103 0 189.5 -34.5t149.5 -95.5t98 -145.5t35 -183.5q0 -101 -34.5 -184.5t-97 -144.5t-148.5 -94.5t-188 -33.5h-1908zM2307 659q49 0 91 18.5t73 51t49 76.5t18 95t-18 95.5t-49 77.5t-74 52.5t-92 19.5h-1894v-486h1896z" />
    <glyph glyph-name="A.long" unicode="AAAA" horiz-adv-x="1719" 
d="M1273 259h-830l-128 -259h-288l713 1361h236l713 -1361h-288zM548 473h619l-300 608l-8 35h-2l-8 -35z" />
    <glyph glyph-name="A.longer" unicode="AAAAA" horiz-adv-x="2134" 
d="M1642 259h-1147l-170 -259h-303l928 1361h237l929 -1361h-304zM635 473h867l-425 648l-8 34h-1l-8 -34z" />
    <glyph glyph-name="A.longest" unicode="AAAAAA" horiz-adv-x="2679" 
d="M2094 259h-1503l-223 -259h-341l1197 1361h236l1197 -1361h-340zM775 473h1134l-558 648l-8 34h-2l-8 -34z" />
    <glyph glyph-name="V.long" unicode="VVVV" horiz-adv-x="1719" 
d="M1401 1360h288l-713 -1360h-236l-713 1360h288l534 -1080l8 -35h2l8 35z" />
    <glyph glyph-name="V.longer" unicode="VVVVV" horiz-adv-x="2134" 
d="M1828 1361h288l-929 -1361h-237l-928 1361h287l751 -1121l8 -35h1l8 35z" />
    <glyph glyph-name="V.longest" unicode="VVVVVV" horiz-adv-x="2679" 
d="M2348 1361h309l-1197 -1361h-236l-1197 1361h309l997 -1137l8 -35h2l8 35z" />
    <glyph glyph-name="W.long" unicode="WWWW" horiz-adv-x="2351" 
d="M1665 355h4l369 1005h290l-537 -1360h-242l-375 1009l-371 -1009h-242l-536 1360h289l369 -1005h5l349 996h278z" />
    <glyph glyph-name="W.longer" unicode="WWWWW" horiz-adv-x="2750" 
d="M1965 323h4l479 1037h280l-637 -1360h-242l-475 1066l-471 -1066h-242l-636 1360h279l479 -1037h5l443 1028h290z" />
    <glyph glyph-name="W.longest" unicode="WWWWWW" horiz-adv-x="3153" 
d="M2265 312h4l564 1048h295l-753 -1360h-247l-553 1096l-551 -1096h-247l-752 1360h295l563 -1048h5l543 1039h290z" />
    <glyph glyph-name="C.01" unicode="CCCC" horiz-adv-x="1772" 
d="M1638 194q-55 -47 -126 -88t-153 -71t-172.5 -47t-184.5 -17q-184 0 -344.5 49t-280 141t-188.5 224t-69 297q0 166 69 297.5t188.5 223t280 140.5t344.5 49q93 0 182.5 -16t171 -45.5t153 -70.5t128.5 -91l-137 -161q-42 40 -100 71t-124 53t-136.5 33.5t-137.5 11.5
q-126 0 -240.5 -34t-202 -97.5t-139 -155.5t-51.5 -209q0 -116 51.5 -208t139 -156t202 -97.5t240.5 -33.5q67 0 137.5 11.5t136.5 33.5t124 53.5t100 70.5z" />
    <glyph glyph-name="C.02" unicode="CCCCC" horiz-adv-x="2134" 
d="M1885 194q-66 -47 -145 -88t-170 -71t-193 -47t-214 -17q-141 0 -270.5 20t-242.5 60t-205 99.5t-158 138.5t-102 177t-36 216t36 216.5t102 177t158 138t205 99t242.5 59.5t270.5 20q111 0 212 -16t191 -45.5t169.5 -70.5t148.5 -91l-128 -166q-53 40 -120.5 70.5
t-144 51t-160 31t-168.5 10.5q-159 0 -295.5 -28t-236 -87t-156 -150.5t-56.5 -219.5q0 -127 56.5 -218.5t156 -150.5t236 -87t295.5 -28q85 0 168.5 11t160 31.5t144 51t120.5 69.5z" />
    <glyph glyph-name="C.03" unicode="CCCCCC" horiz-adv-x="2646" 
d="M2329 194q-83 -47 -188.5 -88t-226.5 -71t-254 -47t-271 -17q-175 0 -332.5 18t-290.5 55.5t-240 94.5t-182 136t-115 180.5t-40 226.5t40 226.5t115 180.5t182 136t240 94t290 55t333 18q136 0 268 -16t253 -45.5t227 -70.5t191 -91l-135 -166q-69 40 -162 71t-199 53
t-219.5 33.5t-223.5 11.5q-207 0 -377.5 -27t-292 -85.5t-188.5 -152t-67 -226.5q0 -132 67 -225.5t188.5 -152t292 -85.5t377.5 -27q110 0 223.5 12t220 33.5t199.5 53t162 70.5z" />
    <glyph glyph-name="L.01" unicode="LLLL" horiz-adv-x="1466" 
d="M201 1360h249v-1145h916v-215h-1165v1360z" />
    <glyph glyph-name="L.02" unicode="LLLLL" horiz-adv-x="1727" 
d="M158 1360h249v-1145h1220v-215h-1469v1360z" />
    <glyph glyph-name="L.03" unicode="LLLLLL" horiz-adv-x="2309" 
d="M158 1360h249v-1145h1790v-215h-2039v1360z" />
    <glyph glyph-name="T.01" unicode="TTTT" horiz-adv-x="1586" 
d="M671 1145h-623v215h1495v-215h-623v-1145h-249v1145z" />
    <glyph glyph-name="T.02" unicode="TTTTT" horiz-adv-x="2079" 
d="M911 1145h-877v215h2004v-215h-878v-1145h-249v1145z" />
    <glyph glyph-name="T.03" unicode="TTTTTT" horiz-adv-x="2535" 
d="M1143 1145h-1098v215h2446v-215h-1099v-1145h-249v1145z" />
    <glyph glyph-name=".notdef" horiz-adv-x="468" 
 />
    <glyph glyph-name="NULL" horiz-adv-x="0" 
 />
    <glyph glyph-name="NULL" horiz-adv-x="0" 
 />
    <glyph glyph-name="nonmarkingreturn" unicode="&#xd;" horiz-adv-x="468" 
 />
    <glyph glyph-name="space" unicode=" " horiz-adv-x="468" 
 />
    <glyph glyph-name="quotesingle" unicode="'" horiz-adv-x="541" 
d="M363 840h-186l-19 557h227z" />
    <glyph glyph-name="parenleft" unicode="(" horiz-adv-x="718" 
d="M680 1614q-72 -74 -130.5 -181t-100.5 -232t-65 -259.5t-23 -261.5q0 -128 21.5 -259t62.5 -253.5t100.5 -230.5t134.5 -189h-233q-94 98 -157.5 208.5t-101.5 228.5t-54.5 242.5t-16.5 251.5q0 129 16 253t53.5 241t100.5 227.5t157 213.5h236z" />
    <glyph glyph-name="asterisk" unicode="*" horiz-adv-x="844" 
d="M358 1209l-9 209h149l-9 -207l176 110l75 -129l-187 -97l186 -96l-74 -129l-177 111l9 -207h-148l8 207l-176 -110l-74 129l185 95l-185 97l75 129z" />
    <glyph glyph-name="plus" unicode="+" horiz-adv-x="1399" 
d="M798 1091l1 -369h362v-201h-362v-368h-204v368l-358 1v200h358v369h203z" />
    <glyph glyph-name="comma" unicode="," horiz-adv-x="534" 
d="M171 196h236l-174 -415h-180z" />
    <glyph glyph-name="hyphen" unicode="-" horiz-adv-x="811" 
d="M122 588h576v-204h-576v204z" />
    <glyph glyph-name="period" unicode="." horiz-adv-x="533" 
d="M124 110q0 28 10 52.5t29 43.5t45 30t58 11t58 -11t45 -30t29 -43.5t10 -52.5t-10 -52.5t-29 -43t-45 -29t-58 -10.5t-58 11t-45 29.5t-29 43t-10 51.5z" />
    <glyph glyph-name="slash" unicode="/" horiz-adv-x="883" 
d="M-54 -209l656 1634h245l-654 -1633z" />
    <glyph glyph-name="zero" unicode="0" 
d="M2478 1093v-587h-2404v587h910q0 30 5.5 58t20.5 53q12 29 26 52.5t37 41.5q39 42 91 62q28 12 55.5 17t56.5 5q33 0 61.5 -6.5t53.5 -15.5q27 -14 50.5 -29.5t45.5 -36.5q35 -38 60 -94q11 -27 15.5 -54t4.5 -53h911zM1030 1194q-20 -49 -20 -101q0 -58 20 -106
q10 -22 24.5 -43.5l29.5 -42.5q20 -17 41.5 -32t45.5 -25q46 -23 105 -23q31 0 56.5 4.5t47.5 16.5q48 19 83 57q22 20 35.5 41l26.5 43q20 54 20 110q0 20 -3.5 43.5t-11.5 47.5q-14 40 -43 72q-14 20 -29.5 33.5t-34.5 25.5l-76 36l-33 6t-38 3q-29 0 -55.5 -5.5
t-51.5 -19.5q-50 -19 -85 -57q-17 -19 -30.5 -39.5t-23.5 -44.5zM1142 936l314 317q62 -80 62 -160q0 -24 -3.5 -45.5t-11.5 -41.5q-8 -19 -17.5 -37t-23.5 -33h-320zM1095 928q-14 17 -25 36.5t-19 39.5q-9 18 -12.5 40.5t-3.5 48.5q0 18 3.5 39t12.5 43q7 35 40 68h318z
M1135 207q2 -4 4.5 -11t5.5 -14q2 -10 2 -14v-32q0 -5 -2 -11l-6 -15l-4 -14q-6 -4 -10.5 -10t-8.5 -10q-6 -5 -11 -10.5t-10 -9.5q-9 -5 -15.5 -7l-12.5 -4q-10 -2 -15 -2h-17q-9 0 -19 2t-23 4q-12 6 -18.5 13t-17.5 14q-15 14 -21 35q-4 10 -6 19.5t-2 23.5v14q0 4 2 14
q4 17 12 25q4 8 7.5 13l7.5 11q9 5 13.5 9.5t10.5 9.5l12 4l17 6q5 0 11.5 1t13.5 1q10 0 17 -1t15 -1q6 -4 12.5 -6t15.5 -4q5 -5 10 -9.5l11 -9.5q4 -6 8.5 -11t10.5 -13zM2195 207q4 -4 6.5 -11t4.5 -14q4 -7 4 -14v-32q0 -7 -4 -11l-4.5 -15t-6.5 -14l-16 -20l-12 -10
l-14 -10q-5 -5 -12 -7t-13 -4q-8 -2 -14 -2h-17q-19 0 -43 6q-8 6 -16 13t-17 14q-8 6 -14 14t-8 21q-6 10 -7.5 19.5t-1.5 23.5q0 8 1 14t1 14l6 14t7 11q2 8 6 13t10 11q3 5 10.5 9.5t12.5 9.5q4 2 11 4t13 6q11 0 17 1t12 1q9 0 17 -1t14 -1q6 -4 13 -6t12 -4l26 -19
q2 -6 8 -11t8 -13zM2433 260l1 1q1 1 6 1h38v-219h-38v160l-5 -9v-8q0 -2 -2 -4l-13 -34.5t-16 -31.5q-6 -20 -12 -36.5t-14 -36.5h-37l-55 139q-6 3 -6 12q0 4 -1 4l-2 2v-157h-42v219h40q5 0 6.5 -1t4.5 -1q2 -2 3 -2t4 -2l7 -4q0 -2 2 -3.5t2 -3.5q4 -18 11 -32.5
l16 -34.5l12 -33q3 -8 6 -15l6 -14v-14q3 0 4 -4q0 4 1 4v14l11 13l44 116q0 1 2 3l2 4q0 1 3 3l3 1q2 2 4 2t4 2zM1329 262h38v-219h-36l-100 146l-4 5v2q-3 4 -3 5q-4 1 -4 4q0 4 -7 4v-166h-37v219h33q4 0 9.5 -1t5.5 -3q3 -2 5 -2t4 -2l22 -33q6 -8 11 -16.5t10 -19.5
q13 -13 24 -29t25 -29q0 -2 1 -4.5t1 -6.5l1 -3q0 -2 1 -3v152zM672 262l94 -219h-25q-9 0 -16 4q-2 2 -4 6.5t-6 8.5l-14 27h-100l-9 -27q0 -6 -4 -6q-2 -5 -4 -5l-3 -4q-2 0 -4.5 -1t-6.5 -1q0 -2 -2 -2h-27l96 219h35zM260 262h139v-39h-100v-49h82v-41h-82v-51h100v-39
h-139v219zM839 659q1 7 2 11t1 10q0 12 -3 21q0 7 -4.5 10.5t-6.5 9.5l-4.5 6.5t-6.5 7.5l-7 6q-2 3 -9 9q-4 2 -8 4.5t-11 4.5q-5 0 -9.5 0.5t-10.5 0.5q-3 0 -8.5 -0.5t-12.5 -0.5q-6 -2 -10 -4.5t-8 -4.5q-4 -6 -7.5 -8.5t-7.5 -6.5q-13 -7 -14 -14q-4 -6 -5 -9.5
l-3 -10.5q-1 -5 -1.5 -10t-0.5 -11t2 -14.5t4 -15.5t6.5 -12.5t11.5 -12.5q10 -15 25 -15q10 -6 29 -6h20q15 5 19 8q11 4 16 13q3 4 6 7.5t5 8.5q2 4 6.5 9t4.5 9zM1966 659v42l-7 20q-5 7 -15 14q-1 4 -6 6.5t-10 8.5l-4 2t-5 2l-7 5q-7 0 -12 0.5t-10 0.5q-6 0 -11 -0.5
t-9 -0.5l-22 -9q-3 -6 -6 -8.5t-7 -6.5q-3 -4 -6.5 -7t-5.5 -7q-2 -6 -4.5 -9.5t-2.5 -10.5q-6 -9 -6 -21q0 -6 3 -14.5t6 -15.5q4 -15 16 -25q7 -15 26 -15q10 -6 29 -6h22q3 2 8 4t8 4l10 6t6 7q11 8 15 16zM74 262h158v-24q0 -4 -1 -6q0 -3 -2 -5l-4 -4l-105 -143h1l2 2
h108v-39h-164v13q0 11 2 13q0 2 5 7v4l2 4q2 2 4 3.5t2 6.5l94 129h-102v39zM1839 203q-4 -4 -7 -10.5l-7 -14.5q-2 -4 -4 -10t-2 -14q0 -7 2 -15l4 -12q2 -7 6 -14.5t8 -10.5q4 -4 9.5 -8.5t14.5 -7.5q12 -4 27 -4q5 0 10 1t12 1q3 2 8 5t8 7q3 0 9 2h13q3 0 9 -2
q2 -1 3.5 -3t3.5 -4l6 -7q-3 -4 -6 -7.5t-7 -7.5l-11.5 -8t-12.5 -6q-7 -4 -11.5 -5t-10.5 -3t-11 -2h-12q-12 0 -23.5 2t-21.5 4q-10 5 -18.5 12t-16.5 15q-16 13 -22 35q-4 10 -7 19.5t-3 23.5q0 10 1 14l4 14q1 7 3 14t6 11q6 8 8.5 13t9.5 11q14 9 25 19q4 2 9.5 4
t18.5 6q5 0 12 1t15 1h13q4 0 10 -2t10.5 -3t11.5 -3q8 -4 12.5 -6.5t11.5 -7.5l13 -17l-6 -8q-2 -1 -5 -4l-2 -4h-15q-7 0 -16 4l-16 10q-10 2 -12 2h-10q-17 0 -27 -7q-17 -1 -24 -13zM1690 151l7 -10.5t3 -7.5q6 -8 6 -20q0 -15 -8 -29l-8 -12l-9 -10q-7 -6 -11.5 -9.5
t-12.5 -5.5q-5 -2 -14 -3t-15 -1q-8 0 -14.5 1l-19.5 3q-5 2 -10 6.5t-11 13.5q-4 1 -6 5l-4 8q-7 2 -7 9l7 5q2 2 4 2h4l2 2h10q4 0 4 -2q7 0 9 -2q7 -5 10.5 -6.5t5.5 -3.5q2 0 6 -1t10 -1h5q2 0 6 2q5 1 8 2t7 3q6 6 7 9q2 4 4 7.5t2 7.5q0 7 -6 10q-5 6 -7 6
q-2 4 -7.5 5t-7.5 2q-6 0 -14 7q-5 0 -9 1t-9 7q-11 3 -14.5 6t-7.5 7q-12 4 -12 14q-6 10 -6 25q0 18 6 26l6 11l8 10q4 2 10 4t13 6q6 0 10.5 1t13.5 1q4 0 8.5 -1t11.5 -1l15 -6q3 -4 6.5 -6.5t7.5 -7.5q4 -2 7.5 -5.5t3.5 -7.5l-7 -4q-4 -2 -7 -4.5t-3 -3.5h-18l-5 1
l-7 5q-2 0 -4 1t-4 1h-17q-2 0 -3 -1t-5 -3q-2 -3 -6 -6q-1 -3 -1 -10q0 -5 1 -5q2 -2 3 -5.5t3 -7.5h6q1 0 5 -2q5 -1 9.5 -3t10.5 -4l9 -2q5 -4 9 -5t9 -5q5 -2 10 -5t8 -8zM1579 336q-12 7 -16 20q-7 17 -7 31v16l11 20l12 13q6 7 12 9q3 7 9.5 8t9.5 3q4 0 8 1.5t10 1.5
q4 0 10.5 -1.5t10.5 -1.5q5 -2 8.5 -3t7.5 -8q2 -2 5.5 -4.5l6.5 -4.5l13 -13l8 -20q0 -4 1 -9t1 -7q0 -6 -1 -14t-5 -17q-5 -13 -17 -20l-9.5 -7.5t-11.5 -10.5q-5 -1 -12 -1.5t-16 -0.5h-15q-4 0 -10 2q-18 7 -24 18zM2284 336l-13.5 -7.5t-11.5 -10.5q-8 -2 -12 -2h-30
q-5 0 -13 2q-7 4 -12.5 8.5t-10.5 9.5q-6 6 -13 20q-2 9 -4.5 17t-2.5 14q0 2 1 7t1 9q3 5 4 10t4 10q2 3 5 6t5 7q6 4 18 9q3 7 8 8t7 3q6 0 9 1.5t10 1.5q2 0 8.5 -1.5t11.5 -1.5q4 -2 7.5 -3t6.5 -8l17 -9q2 -4 4 -7t5 -6q2 -5 4 -9.5t3 -10.5q2 -4 3 -9t1 -7
q0 -6 -1 -14t-5 -17q0 -6 -5 -11zM2166 127q5 12 5 27q0 16 -5 24q-3 9 -8 15.5t-8 9.5q-10 10 -24 13q-4 5 -12 6t-17 1q-12 0 -25 -7q-8 -1 -13 -4t-11 -9q-4 -3 -7.5 -9.5l-8.5 -15.5q0 -4 -1 -10t-1 -14q0 -9 1 -15t1 -12q4 -8 8 -14t8 -11q6 -4 11 -8.5t13 -7.5
q7 -2 14 -3t11 -1q9 0 17 1t12 3q8 3 14 7.5t10 8.5q11 11 16 25zM1104 127q4 11 4 27q0 13 -4 24q-2 9 -6.5 15.5t-13.5 9.5q-2 6 -7.5 9t-11.5 4q-11 7 -30 7q-14 0 -25 -7q-11 -1 -23 -13q-6 -3 -9 -9.5t-5 -15.5q-5 -5 -5 -10v-29q0 -5 5 -12q2 -7 5 -14.5t9 -10.5
q6 -4 11 -8.5t12 -7.5q11 -4 25 -4q19 0 30 4q13 7 19 16q9 3 13.5 10.5t6.5 14.5zM774 262h139v-39h-100v-55h82v-39h-82v-86h-39v219zM570 223h-58v-180h-43v180h-62v39h163v-39zM1188 864q-19 7 -37 19t-35 26h322q-18 -14 -36 -26t-36 -19l-45.5 -11t-44.5 -5
q-25 0 -45.5 5t-42.5 11zM1389 262h165v-39h-65v-180h-39v180h-61v39zM1366 1315q18 -8 36 -20.5t36 -22.5h-325q38 30 75 43q37 18 88 18q48 0 90 -18zM559 604l-47 68q4 0 11 4q8 5 9 10q9 5 9 11v26q0 1 -2 5q-3 10 -11 15q-5 9 -14 9q-2 5 -6.5 6t-9.5 1h-57v-155h24v64
h23l40 -56q1 -4 8 -6q2 -2 3 -2h20zM1169 604l-67 155h-22l-65 -155h11q7 0 9 2q0 2 7 6l11 27h76l13 -27q1 -4 5 -6q2 -2 8 -2h14zM1930 721q3 -2 8 -7.5t6 -12.5q4 -7 4 -21q0 -12 -4 -23q-1 -5 -6 -9.5t-8 -6.5q-5 -4 -9 -6.5t-8 -7.5q-9 -4 -23 -4q-6 0 -12 1t-10 3
q-5 5 -10.5 7.5t-9.5 6.5q-3 2 -6 6.5t-3 9.5q-4 7 -5 12t-1 11q0 10 6 21q0 7 3 12.5t6 7.5q4 4 9.5 7t10.5 5q9 4 22 4q5 0 11.5 -1t11.5 -3zM801 721q7 -2 9.5 -7.5t4.5 -12.5q4 -7 4 -21q0 -11 -4 -23q-2 -5 -4.5 -9.5t-9.5 -6.5q-1 -4 -6 -7l-11 -7q-9 -4 -22 -4
q-11 0 -23 4q-4 5 -9 7.5t-9 6.5q-2 2 -5.5 6.5t-5.5 9.5q-4 12 -4 23q0 12 4 21q2 7 5.5 12.5t5.5 7.5q4 4 9 7t9 5q5 2 12.5 3t10.5 1q13 0 22 -4q8 -2 11.5 -5t5.5 -7zM2126 759h-22v-120q-1 2 -2 5t-3 4l-75 104l-3 7h-24v-155h22v121l2 -2l87 -119h18v155zM2218 332h31
l6 3q3 3 4 5q6 0 14 5q2 5 3 7t4 4q0 3 3 8t3 10v34q-3 6 -7 10.5t-6 7.5q-10 4 -18 12h-43q-6 -4 -9.5 -7t-9.5 -5q-5 -3 -7.5 -7.5t-4.5 -10.5q-1 -4 -1.5 -7t-0.5 -7v-20q0 -13 5 -18q2 -2 4.5 -4t4.5 -7l7 -3q2 -2 4 -2q4 -4 7 -5t7 -3zM296 690q5 12 5 20q0 9 -5 18
q0 2 -5 7l-6 6q-2 3 -5 7t-10 4q-3 5 -8.5 6t-9.5 1h-52v-155h16v59h36q4 0 9.5 0.5t8.5 2.5q10 4 15 10q4 2 7.5 6t3.5 8zM1579 408q-6 -14 -6 -21v-8q0 -4 3 -5q0 -10 5 -18q0 -2 2 -4t4 -7l5 -3q2 -2 11 -2q2 -4 5.5 -5t5.5 -3h27q6 2 9.5 3t6.5 5l6 2l4 3q2 5 4.5 7
t2.5 4q3 3 4 8t3 10q0 2 1 5.5t1 7.5q0 2 -1 8t-5 13q0 6 -4 10.5t-6 7.5q-3 1 -8 6l-10 6h-42q-4 -4 -10 -7l-10 -5l-5 -8q-3 -5 -3 -10zM997 759h-18v-120l-2 4q-2 6 -2 5l-74 104q-5 0 -6 7h-25v-155h21v124h2l2 -1v-4l86 -119h16v155zM2115 381q-5 -1 -8.5 -2t-5.5 -2
l45 -61h-12l-6 2q-4 0 -4 9l-39 50h-28v-61h-15v140h57q3 0 9 -2q2 -2 6.5 -5.5t5.5 -5.5q4 -2 5 -5.5t7 -7.5v-27q-4 -4 -5 -8t-3 -6zM1342 381q-3 -3 -11 -4l47 -61h-15q-3 0 -3 2q-6 0 -6 9l-39 50h-28v-61h-13v140h56q2 0 6 -2q10 -1 18 -11q0 -2 3 -5.5t3 -7.5
q2 -2 2 -6v-14q0 -1 -2 -7q0 -10 -4 -14l-5 -4q-3 -3 -9 -4zM412 759h-98v-155h98v21h-74v47h58v18h-58v45h74v24zM1721 759h-93v-155h93v21h-69v47h58v18h-58v45h69v24zM2460 454q6 2 5 2h13v-140h-12v114l-2 -2v-2q-4 -8 -6.5 -17.5t-8.5 -14.5q-5 -7 -7 -12.5t-7 -14.5
q-2 -9 -3 -15.5t-5 -9.5q-3 -8 -6.5 -12.5t-5.5 -13.5h-15q-10 14 -15 27t-10 28q-4 12 -12 26.5t-12 28.5v2h-4v-112h-14v140h14q4 0 6 -2l2 -2v-7l49 -105q0 -4 2 -4l1 2v4q0 2 8 6l41 97q2 7 3 7t1 2zM1480 759h-22v-104q0 -4 -2 -8q-1 -7 -10 -12q0 -2 -4 -3.5t-6 -6.5
l-9 -2h-9q-7 0 -13 2q-5 5 -8.5 6.5t-5.5 3.5l-11 12q0 3 -1 7.5t-1 11.5v93h-20v-93q0 -7 1 -11.5t1 -7.5q0 -8 6 -14q3 -8 10 -12q2 -4 4.5 -6.5t8.5 -4.5q2 -2 6.5 -3t7.5 -3q4 0 7 -1.5t8 -1.5t8.5 1.5t11.5 1.5q2 2 5 3t7 3q3 2 6 4.5t6 6.5q3 2 5 5.5t7 6.5q0 4 3 7
t3 7v112zM664 632q2 5 3 8t1 8q0 12 -5.5 20t-12.5 14q-2 0 -3.5 2t-5.5 4l-4 2h-4q-1 0 -1 4q-8 0 -9 1q-8 2 -9.5 3t-5.5 3q-6 5 -9 5q-3 4 -3 6v15q0 1 1.5 2.5t1.5 3.5q2 0 4.5 1t4.5 1q6 2 5 2h10q2 -2 4 -2q7 0 8 -4q1 -3 4 -3h2q9 0 14 5l4 2q0 2 -2 4l-5 4
q-2 1 -4.5 4t-6.5 5q-2 0 -4 2.5t-5 4.5q-5 0 -7 0.5t-4 0.5q-7 0 -12 -0.5t-8 -0.5q-5 -2 -7 -4.5t-6 -4.5q-2 -6 -5.5 -8.5t-8.5 -6.5q0 -4 -2 -7t-2 -9t4 -18l12 -11q2 -2 6 -5t7 -3q5 -2 8 -4t7 -2q1 -2 6 -2t7 -2l6 -2q2 0 4 -2t2 -3t2 -6q2 -2 2 -7v-9q0 -2 -2 -4
t-2 -4t-2 -3q-2 -5 -6 -6l-4 -1q-4 0 -8 -1t-5 -1q-4 0 -7 1t-6 1q-2 0 -3.5 1t-1.5 6l-4 1q-4 4 -11 4h-7l-4 -2l-5 -2q0 -3 3 -3q0 -3 2 -5q0 -4 4 -4v-6h5q7 -7 16 -9t19 -2h10q5 0 11 2q4 2 8.5 4t6.5 5q13 5 14 17zM1741 316h-18v140h20q3 0 4 -4l74 -104q2 0 2 -5
l2 -1v114h14v-140h-12l-82 114v4h-4v-118zM1596 632q9 7 9 16q0 12 -5.5 20t-12.5 14q-6 4 -6 6h-4l-4 2h-3q-4 0 -5 4h-4q-2 0 -5 1q-2 2 -4 3t-7 3l-7 5q-2 1 -3 2l-2 2l-1 2q0 1 -1 3t-1 4q0 4 4 8q0 2 4 6q2 0 3 1t4 1q2 2 11 2l4 -1q2 -1 5 -1q3 -3 8 -4q6 -3 8 -3
q6 0 8 5l5 2q0 2 -2.5 4t-4.5 4q0 1 -3 4l-5 5q-3 0 -5.5 2.5t-6.5 4.5h-6l-5 1q-6 0 -10 -0.5t-8 -0.5l-13 -9l-7 -8.5t-6 -6.5q-1 -4 -3 -7t-2 -9q0 -4 2 -7.5t3 -10.5l10 -11q5 -2 7.5 -5t6.5 -3q4 -2 7.5 -4t6.5 -2q4 -2 7 -2t6 -2q6 0 10 -4l4 -3q2 -2 2 -6q2 -2 2 -6
v-9q0 -3 -2 -5q0 -6 -6 -7q-6 -5 -7 -6t-3 -1q-7 0 -8 -1t-5 -1q-3 0 -6.5 1t-5.5 1q-2 1 -4 3l-4 4l-2 1q-5 4 -10 4h-7q-2 0 -4 -2l-6 -2q2 -1 2 -2t2 -1q0 -3 1 -4l3 -3v-2q6 -6 9 -6q7 -7 14.5 -9t17.5 -2h12q3 0 11 2q3 2 6.5 4t7.5 5l5 8q3 3 4 9zM78 350q-6 6 -7 17
l-3 10q-1 3 -1 10t4 16l2 10t5 10l4 6l5 7q2 2 6.5 4.5t6.5 4.5q6 7 11 8t9 3q3 0 8 1.5t10 1.5q7 0 14.5 -1.5t13.5 -5.5q8 -2 12.5 -6.5t8.5 -9.5q-2 -2 -4 -2v-4h-13q-4 2 -7 5t-7 3h-36l-22 -12q-4 -3 -7.5 -7.5t-4.5 -10.5q-2 -7 -3 -13t-1 -8q0 -9 4 -13q0 -5 0.5 -10
t0.5 -8l5 -4q4 -1 6 -7l7 -4q3 -1 8 -1q3 -4 5.5 -5t6.5 -3h33q2 2 7 3t9 5v29h-14v2q-2 0 -3 1.5t-3 3.5h-2q-1 1 -1 3v4h36v-51q-2 -5 -3.5 -6t-5.5 -8h-12q-8 -2 -12 -2h-34q-4 0 -9 3.5l-11 7.5q-2 0 -6.5 2.5t-6.5 6.5l-5 6.5t-4 7.5zM240 438v-44h56v-15h-56v-47h67
v-16h-84v140h84v-18h-67zM1171 438v-44h60v-15h-60v-47h68v-16h-84v140h84v-18h-68zM2375 759h-20q-3 0 -8 -5q-6 -5 -6 -10l-37 -47h-2q0 -2 -2 -2v2l-39 47q-1 7 -4 10q-5 5 -11 5h-18l58 -77v-2q0 -2 2 -2l2 -2v-72h21v70q2 0 2 2l2 4v2zM641 456v-85q0 -7 2 -10t5 -5
q0 -6 3.5 -9.5t5.5 -4.5q0 -2 4.5 -4t6.5 -4q6 -2 8 -2h16q1 0 5 2l9 4q2 1 3.5 2t3.5 2q3 1 8 14q4 3 4 15v85h14v-85q0 -12 -4 -23t-12 -16q-2 -5 -6.5 -9.5t-8.5 -4.5q-8 -1 -13.5 -1.5t-10.5 -0.5t-11 0.5t-14 1.5q-2 0 -6.5 4.5l-9.5 9.5l-10 16q-1 6 -3.5 11t-2.5 12
v85h14zM2253 625h-69v134h-21v-155h90v21zM1271 625h-67v134h-20v-155h87v21zM1452 336q1 2 2 3.5t2 3.5q2 2 3 6.5t1 6.5q0 9 -2 11t-3 4.5t-3 4.5q-1 1 -8 3q-4 0 -6 2t-6 2q-8 0 -14 6q-9 0 -13 7q-2 0 -3.5 3.5t-3.5 7.5v22q0 1 2 7q0 8 7 9l6 7q2 1 3.5 2t3.5 2
q5 0 7.5 1.5t8.5 1.5l6 -2l4 -1q4 0 5 -1t5 -3q2 0 4 -3.5t2 -5.5q4 0 6 -3l1 -2l-2 -2q-6 -2 -9 -2h-6q-2 2 -2 4h-23q-9 0 -9 -2q-5 -7 -5 -8q-4 0 -4 -8q0 -5 4 -6q0 -5 3 -6q0 -1 3 -4l4 -1q4 -4 7.5 -4t7.5 -3q3 0 4 -1l2 -1q4 0 8 -5h4q2 0 4 -2h2l8.5 -7t5.5 -4
q1 -5 1.5 -10.5t0.5 -9.5v-10q0 -5 -4 -6l-5.5 -7.5t-6.5 -5.5q-2 -2 -6 -5.5t-6 -3.5q-6 -2 -10 -2h-9q-11 0 -18.5 1t-12.5 10q-2 0 -3.5 2.5t-5.5 4.5v4l-2 2l4 2h7q1 0 3 -1t4 -1q4 -4 6.5 -5t4.5 -3h22q8 0 12 4zM1069 316l-59 140h6q6 0 8 -2t3 -2t3 -7l43 -103v-2
l2 -6v6l2 2q5 14 13 27.5t12 24.5q4 16 10 28l12 23q0 7 1.5 7t1.5 2q6 2 7 2h11l-15.5 -35t-16.5 -34q-4 -9 -7 -18.5l-6 -18.5l-16 -34h-15zM532 438v-49h60v-12h-60v-61h-16v140h85v-18h-69zM1959 438v-49h54v-12h-54v-61h-16v140h81v-18h-65zM879 456v-124h63v-16h-80
v140h17zM371 316v122h-46v18h105v-18h-47v-122h-12zM784 456v-124h64v-16h-80v140h16zM270 728q2 -1 3 -4t3 -5q4 -4 4 -9v-4q0 -5 -4 -9q-2 -2 -3 -4.5t-3 -2.5l-4 -4l-4 -4h-46v53h36q4 0 10 -2q1 0 4 -3zM1325 389q4 0 6 3q4 4 9 4l2 5q0 2 5 6q0 1 1 4t1 7q0 2 -1 3.5
t-1 4.5q-7 3 -7 8q-5 0 -9 4h-44v-49h38zM2101 392q4 4 7 4q7 7 7 11q2 4 2 11q0 4 -2 8q0 2 -7 8q-3 0 -7 4h-44v-49h36q3 0 8 3zM1525 456v-140h-18v140h18zM518 701l-4 -7q-2 0 -3 -2t-3 -2q-2 -2 -10 -2h-33v47h33q4 0 10 -2q2 0 6 -5q1 -2 2 -3.5t2 -3.5q3 -2 3 -9
q0 -5 -3 -11zM684 129l-27 69q0 2 -1 3l-1 2q0 4 -3 6v-6l-1 -2q-1 -1 -1 -3l-27 -69h61zM1093 727v-4l27 -64h-59l30 64v5zM1755 82q6 0 6 -6q2 -2 2 -5v-4q0 -9 -2 -11q0 -5 -6 -9q-3 0 -6 -4h-17q-4 4 -11 4q0 2 -5 9q-2 2 -2 11v4q0 3 2 5l3 4l2 2q7 4 11 4q1 3 4 3h10
q3 0 3 -3q3 0 6 -4z" />
    <glyph glyph-name="one" unicode="1" 
d="M2478 1093v-587h-2404v587h910q0 30 5.5 58t20.5 53q12 29 26 52.5t37 41.5q39 42 91 62q28 12 55.5 17t56.5 5q33 0 61.5 -6.5t53.5 -15.5q27 -14 50.5 -29.5t45.5 -36.5q35 -38 60 -94q11 -27 15.5 -54t4.5 -53h911zM1030 1194q-20 -49 -20 -101q0 -58 20 -106
q10 -22 24.5 -43.5l29.5 -42.5q20 -17 41.5 -32t45.5 -25q46 -23 105 -23q31 0 56.5 4.5t47.5 16.5q48 19 83 57q22 20 35.5 41l26.5 43q20 54 20 110q0 20 -3.5 43.5t-11.5 47.5q-14 40 -43 72q-14 20 -29.5 33.5t-34.5 25.5l-76 36l-33 6t-38 3q-29 0 -55.5 -5.5
t-51.5 -19.5q-50 -19 -85 -57q-17 -19 -30.5 -39.5t-23.5 -44.5zM1142 936l314 317q62 -80 62 -160q0 -24 -3.5 -45.5t-11.5 -41.5q-8 -19 -17.5 -37t-23.5 -33h-320zM1095 928q-14 17 -25 36.5t-19 39.5q-9 18 -12.5 40.5t-3.5 48.5q0 18 3.5 39t12.5 43q7 35 40 68h318z
M1135 207q2 -4 4.5 -11t5.5 -14q2 -10 2 -14v-32q0 -5 -2 -11l-6 -15l-4 -14q-6 -4 -10.5 -10t-8.5 -10q-6 -5 -11 -10.5t-10 -9.5q-9 -5 -15.5 -7l-12.5 -4q-10 -2 -15 -2h-17q-9 0 -19 2t-23 4q-12 6 -18.5 13t-17.5 14q-15 14 -21 35q-4 10 -6 19.5t-2 23.5v14q0 4 2 14
q4 17 12 25q4 8 7.5 13l7.5 11q9 5 13.5 9.5t10.5 9.5l12 4l17 6q5 0 11.5 1t13.5 1q10 0 17 -1t15 -1q6 -4 12.5 -6t15.5 -4q5 -5 10 -9.5l11 -9.5q4 -6 8.5 -11t10.5 -13zM2195 207q4 -4 6.5 -11t4.5 -14q4 -7 4 -14v-32q0 -7 -4 -11l-4.5 -15t-6.5 -14l-16 -20l-12 -10
l-14 -10q-5 -5 -12 -7t-13 -4q-8 -2 -14 -2h-17q-19 0 -43 6q-8 6 -16 13t-17 14q-8 6 -14 14t-8 21q-6 10 -7.5 19.5t-1.5 23.5q0 8 1 14t1 14l6 14t7 11q2 8 6 13t10 11q3 5 10.5 9.5t12.5 9.5q4 2 11 4t13 6q11 0 17 1t12 1q9 0 17 -1t14 -1q6 -4 13 -6t12 -4l26 -19
q2 -6 8 -11t8 -13zM2433 260l1 1q1 1 6 1h38v-219h-38v160l-5 -9v-8q0 -2 -2 -4l-13 -34.5t-16 -31.5q-6 -20 -12 -36.5t-14 -36.5h-37l-55 139q-6 3 -6 12q0 4 -1 4l-2 2v-157h-42v219h40q5 0 6.5 -1t4.5 -1q2 -2 3 -2t4 -2l7 -4q0 -2 2 -3.5t2 -3.5q4 -18 11 -32.5
l16 -34.5l12 -33q3 -8 6 -15l6 -14v-14q3 0 4 -4q0 4 1 4v14l11 13l44 116q0 1 2 3l2 4q0 1 3 3l3 1q2 2 4 2t4 2zM1329 262h38v-219h-36l-100 146l-4 5v2q-3 4 -3 5q-4 1 -4 4q0 4 -7 4v-166h-37v219h33q4 0 9.5 -1t5.5 -3q3 -2 5 -2t4 -2l22 -33q6 -8 11 -16.5t10 -19.5
q13 -13 24 -29t25 -29q0 -2 1 -4.5t1 -6.5l1 -3q0 -2 1 -3v152zM672 262l94 -219h-25q-9 0 -16 4q-2 2 -4 6.5t-6 8.5l-14 27h-100l-9 -27q0 -6 -4 -6q-2 -5 -4 -5l-3 -4q-2 0 -4.5 -1t-6.5 -1q0 -2 -2 -2h-27l96 219h35zM260 262h139v-39h-100v-49h82v-41h-82v-51h100v-39
h-139v219zM839 659q1 7 2 11t1 10q0 12 -3 21q0 7 -4.5 10.5t-6.5 9.5l-4.5 6.5t-6.5 7.5l-7 6q-2 3 -9 9q-4 2 -8 4.5t-11 4.5q-5 0 -9.5 0.5t-10.5 0.5q-3 0 -8.5 -0.5t-12.5 -0.5q-6 -2 -10 -4.5t-8 -4.5q-4 -6 -7.5 -8.5t-7.5 -6.5q-13 -7 -14 -14q-4 -6 -5 -9.5
l-3 -10.5q-1 -5 -1.5 -10t-0.5 -11t2 -14.5t4 -15.5t6.5 -12.5t11.5 -12.5q10 -15 25 -15q10 -6 29 -6h20q15 5 19 8q11 4 16 13q3 4 6 7.5t5 8.5q2 4 6.5 9t4.5 9zM1966 659v42l-7 20q-5 7 -15 14q-1 4 -6 6.5t-10 8.5l-4 2t-5 2l-7 5q-7 0 -12 0.5t-10 0.5q-6 0 -11 -0.5
t-9 -0.5l-22 -9q-3 -6 -6 -8.5t-7 -6.5q-3 -4 -6.5 -7t-5.5 -7q-2 -6 -4.5 -9.5t-2.5 -10.5q-6 -9 -6 -21q0 -6 3 -14.5t6 -15.5q4 -15 16 -25q7 -15 26 -15q10 -6 29 -6h22q3 2 8 4t8 4l10 6t6 7q11 8 15 16zM74 262h158v-24q0 -4 -1 -6q0 -3 -2 -5l-4 -4l-105 -143h1l2 2
h108v-39h-164v13q0 11 2 13q0 2 5 7v4l2 4q2 2 4 3.5t2 6.5l94 129h-102v39zM1839 203q-4 -4 -7 -10.5l-7 -14.5q-2 -4 -4 -10t-2 -14q0 -7 2 -15l4 -12q2 -7 6 -14.5t8 -10.5q4 -4 9.5 -8.5t14.5 -7.5q12 -4 27 -4q5 0 10 1t12 1q3 2 8 5t8 7q3 0 9 2h13q3 0 9 -2
q2 -1 3.5 -3t3.5 -4l6 -7q-3 -4 -6 -7.5t-7 -7.5l-11.5 -8t-12.5 -6q-7 -4 -11.5 -5t-10.5 -3t-11 -2h-12q-12 0 -23.5 2t-21.5 4q-10 5 -18.5 12t-16.5 15q-16 13 -22 35q-4 10 -7 19.5t-3 23.5q0 10 1 14l4 14q1 7 3 14t6 11q6 8 8.5 13t9.5 11q14 9 25 19q4 2 9.5 4
t18.5 6q5 0 12 1t15 1h13q4 0 10 -2t10.5 -3t11.5 -3q8 -4 12.5 -6.5t11.5 -7.5l13 -17l-6 -8q-2 -1 -5 -4l-2 -4h-15q-7 0 -16 4l-16 10q-10 2 -12 2h-10q-17 0 -27 -7q-17 -1 -24 -13zM1690 151l7 -10.5t3 -7.5q6 -8 6 -20q0 -15 -8 -29l-8 -12l-9 -10q-7 -6 -11.5 -9.5
t-12.5 -5.5q-5 -2 -14 -3t-15 -1q-8 0 -14.5 1l-19.5 3q-5 2 -10 6.5t-11 13.5q-4 1 -6 5l-4 8q-7 2 -7 9l7 5q2 2 4 2h4l2 2h10q4 0 4 -2q7 0 9 -2q7 -5 10.5 -6.5t5.5 -3.5q2 0 6 -1t10 -1h5q2 0 6 2q5 1 8 2t7 3q6 6 7 9q2 4 4 7.5t2 7.5q0 7 -6 10q-5 6 -7 6
q-2 4 -7.5 5t-7.5 2q-6 0 -14 7q-5 0 -9 1t-9 7q-11 3 -14.5 6t-7.5 7q-12 4 -12 14q-6 10 -6 25q0 18 6 26l6 11l8 10q4 2 10 4t13 6q6 0 10.5 1t13.5 1q4 0 8.5 -1t11.5 -1l15 -6q3 -4 6.5 -6.5t7.5 -7.5q4 -2 7.5 -5.5t3.5 -7.5l-7 -4q-4 -2 -7 -4.5t-3 -3.5h-18l-5 1
l-7 5q-2 0 -4 1t-4 1h-17q-2 0 -3 -1t-5 -3q-2 -3 -6 -6q-1 -3 -1 -10q0 -5 1 -5q2 -2 3 -5.5t3 -7.5h6q1 0 5 -2q5 -1 9.5 -3t10.5 -4l9 -2q5 -4 9 -5t9 -5q5 -2 10 -5t8 -8zM1579 336q-12 7 -16 20q-7 17 -7 31v16l11 20l12 13q6 7 12 9q3 7 9.5 8t9.5 3q4 0 8 1.5t10 1.5
q4 0 10.5 -1.5t10.5 -1.5q5 -2 8.5 -3t7.5 -8q2 -2 5.5 -4.5l6.5 -4.5l13 -13l8 -20q0 -4 1 -9t1 -7q0 -6 -1 -14t-5 -17q-5 -13 -17 -20l-9.5 -7.5t-11.5 -10.5q-5 -1 -12 -1.5t-16 -0.5h-15q-4 0 -10 2q-18 7 -24 18zM2284 336l-13.5 -7.5t-11.5 -10.5q-8 -2 -12 -2h-30
q-5 0 -13 2q-7 4 -12.5 8.5t-10.5 9.5q-6 6 -13 20q-2 9 -4.5 17t-2.5 14q0 2 1 7t1 9q3 5 4 10t4 10q2 3 5 6t5 7q6 4 18 9q3 7 8 8t7 3q6 0 9 1.5t10 1.5q2 0 8.5 -1.5t11.5 -1.5q4 -2 7.5 -3t6.5 -8l17 -9q2 -4 4 -7t5 -6q2 -5 4 -9.5t3 -10.5q2 -4 3 -9t1 -7
q0 -6 -1 -14t-5 -17q0 -6 -5 -11zM2166 127q5 12 5 27q0 16 -5 24q-3 9 -8 15.5t-8 9.5q-10 10 -24 13q-4 5 -12 6t-17 1q-12 0 -25 -7q-8 -1 -13 -4t-11 -9q-4 -3 -7.5 -9.5l-8.5 -15.5q0 -4 -1 -10t-1 -14q0 -9 1 -15t1 -12q4 -8 8 -14t8 -11q6 -4 11 -8.5t13 -7.5
q7 -2 14 -3t11 -1q9 0 17 1t12 3q8 3 14 7.5t10 8.5q11 11 16 25zM1104 127q4 11 4 27q0 13 -4 24q-2 9 -6.5 15.5t-13.5 9.5q-2 6 -7.5 9t-11.5 4q-11 7 -30 7q-14 0 -25 -7q-11 -1 -23 -13q-6 -3 -9 -9.5t-5 -15.5q-5 -5 -5 -10v-29q0 -5 5 -12q2 -7 5 -14.5t9 -10.5
q6 -4 11 -8.5t12 -7.5q11 -4 25 -4q19 0 30 4q13 7 19 16q9 3 13.5 10.5t6.5 14.5zM774 262h139v-39h-100v-55h82v-39h-82v-86h-39v219zM570 223h-58v-180h-43v180h-62v39h163v-39zM1188 864q-19 7 -37 19t-35 26h322q-18 -14 -36 -26t-36 -19l-45.5 -11t-44.5 -5
q-25 0 -45.5 5t-42.5 11zM1389 262h165v-39h-65v-180h-39v180h-61v39zM1366 1315q18 -8 36 -20.5t36 -22.5h-325q38 30 75 43q37 18 88 18q48 0 90 -18zM559 604l-47 68q4 0 11 4q8 5 9 10q9 5 9 11v26q0 1 -2 5q-3 10 -11 15q-5 9 -14 9q-2 5 -6.5 6t-9.5 1h-57v-155h24v64
h23l40 -56q1 -4 8 -6q2 -2 3 -2h20zM1169 604l-67 155h-22l-65 -155h11q7 0 9 2q0 2 7 6l11 27h76l13 -27q1 -4 5 -6q2 -2 8 -2h14zM1930 721q3 -2 8 -7.5t6 -12.5q4 -7 4 -21q0 -12 -4 -23q-1 -5 -6 -9.5t-8 -6.5q-5 -4 -9 -6.5t-8 -7.5q-9 -4 -23 -4q-6 0 -12 1t-10 3
q-5 5 -10.5 7.5t-9.5 6.5q-3 2 -6 6.5t-3 9.5q-4 7 -5 12t-1 11q0 10 6 21q0 7 3 12.5t6 7.5q4 4 9.5 7t10.5 5q9 4 22 4q5 0 11.5 -1t11.5 -3zM801 721q7 -2 9.5 -7.5t4.5 -12.5q4 -7 4 -21q0 -11 -4 -23q-2 -5 -4.5 -9.5t-9.5 -6.5q-1 -4 -6 -7l-11 -7q-9 -4 -22 -4
q-11 0 -23 4q-4 5 -9 7.5t-9 6.5q-2 2 -5.5 6.5t-5.5 9.5q-4 12 -4 23q0 12 4 21q2 7 5.5 12.5t5.5 7.5q4 4 9 7t9 5q5 2 12.5 3t10.5 1q13 0 22 -4q8 -2 11.5 -5t5.5 -7zM2126 759h-22v-120q-1 2 -2 5t-3 4l-75 104l-3 7h-24v-155h22v121l2 -2l87 -119h18v155zM2218 332h31
l6 3q3 3 4 5q6 0 14 5q2 5 3 7t4 4q0 3 3 8t3 10v34q-3 6 -7 10.5t-6 7.5q-10 4 -18 12h-43q-6 -4 -9.5 -7t-9.5 -5q-5 -3 -7.5 -7.5t-4.5 -10.5q-1 -4 -1.5 -7t-0.5 -7v-20q0 -13 5 -18q2 -2 4.5 -4t4.5 -7l7 -3q2 -2 4 -2q4 -4 7 -5t7 -3zM296 690q5 12 5 20q0 9 -5 18
q0 2 -5 7l-6 6q-2 3 -5 7t-10 4q-3 5 -8.5 6t-9.5 1h-52v-155h16v59h36q4 0 9.5 0.5t8.5 2.5q10 4 15 10q4 2 7.5 6t3.5 8zM1579 408q-6 -14 -6 -21v-8q0 -4 3 -5q0 -10 5 -18q0 -2 2 -4t4 -7l5 -3q2 -2 11 -2q2 -4 5.5 -5t5.5 -3h27q6 2 9.5 3t6.5 5l6 2l4 3q2 5 4.5 7
t2.5 4q3 3 4 8t3 10q0 2 1 5.5t1 7.5q0 2 -1 8t-5 13q0 6 -4 10.5t-6 7.5q-3 1 -8 6l-10 6h-42q-4 -4 -10 -7l-10 -5l-5 -8q-3 -5 -3 -10zM997 759h-18v-120l-2 4q-2 6 -2 5l-74 104q-5 0 -6 7h-25v-155h21v124h2l2 -1v-4l86 -119h16v155zM2115 381q-5 -1 -8.5 -2t-5.5 -2
l45 -61h-12l-6 2q-4 0 -4 9l-39 50h-28v-61h-15v140h57q3 0 9 -2q2 -2 6.5 -5.5t5.5 -5.5q4 -2 5 -5.5t7 -7.5v-27q-4 -4 -5 -8t-3 -6zM1342 381q-3 -3 -11 -4l47 -61h-15q-3 0 -3 2q-6 0 -6 9l-39 50h-28v-61h-13v140h56q2 0 6 -2q10 -1 18 -11q0 -2 3 -5.5t3 -7.5
q2 -2 2 -6v-14q0 -1 -2 -7q0 -10 -4 -14l-5 -4q-3 -3 -9 -4zM412 759h-98v-155h98v21h-74v47h58v18h-58v45h74v24zM1721 759h-93v-155h93v21h-69v47h58v18h-58v45h69v24zM2460 454q6 2 5 2h13v-140h-12v114l-2 -2v-2q-4 -8 -6.5 -17.5t-8.5 -14.5q-5 -7 -7 -12.5t-7 -14.5
q-2 -9 -3 -15.5t-5 -9.5q-3 -8 -6.5 -12.5t-5.5 -13.5h-15q-10 14 -15 27t-10 28q-4 12 -12 26.5t-12 28.5v2h-4v-112h-14v140h14q4 0 6 -2l2 -2v-7l49 -105q0 -4 2 -4l1 2v4q0 2 8 6l41 97q2 7 3 7t1 2zM1480 759h-22v-104q0 -4 -2 -8q-1 -7 -10 -12q0 -2 -4 -3.5t-6 -6.5
l-9 -2h-9q-7 0 -13 2q-5 5 -8.5 6.5t-5.5 3.5l-11 12q0 3 -1 7.5t-1 11.5v93h-20v-93q0 -7 1 -11.5t1 -7.5q0 -8 6 -14q3 -8 10 -12q2 -4 4.5 -6.5t8.5 -4.5q2 -2 6.5 -3t7.5 -3q4 0 7 -1.5t8 -1.5t8.5 1.5t11.5 1.5q2 2 5 3t7 3q3 2 6 4.5t6 6.5q3 2 5 5.5t7 6.5q0 4 3 7
t3 7v112zM664 632q2 5 3 8t1 8q0 12 -5.5 20t-12.5 14q-2 0 -3.5 2t-5.5 4l-4 2h-4q-1 0 -1 4q-8 0 -9 1q-8 2 -9.5 3t-5.5 3q-6 5 -9 5q-3 4 -3 6v15q0 1 1.5 2.5t1.5 3.5q2 0 4.5 1t4.5 1q6 2 5 2h10q2 -2 4 -2q7 0 8 -4q1 -3 4 -3h2q9 0 14 5l4 2q0 2 -2 4l-5 4
q-2 1 -4.5 4t-6.5 5q-2 0 -4 2.5t-5 4.5q-5 0 -7 0.5t-4 0.5q-7 0 -12 -0.5t-8 -0.5q-5 -2 -7 -4.5t-6 -4.5q-2 -6 -5.5 -8.5t-8.5 -6.5q0 -4 -2 -7t-2 -9t4 -18l12 -11q2 -2 6 -5t7 -3q5 -2 8 -4t7 -2q1 -2 6 -2t7 -2l6 -2q2 0 4 -2t2 -3t2 -6q2 -2 2 -7v-9q0 -2 -2 -4
t-2 -4t-2 -3q-2 -5 -6 -6l-4 -1q-4 0 -8 -1t-5 -1q-4 0 -7 1t-6 1q-2 0 -3.5 1t-1.5 6l-4 1q-4 4 -11 4h-7l-4 -2l-5 -2q0 -3 3 -3q0 -3 2 -5q0 -4 4 -4v-6h5q7 -7 16 -9t19 -2h10q5 0 11 2q4 2 8.5 4t6.5 5q13 5 14 17zM1741 316h-18v140h20q3 0 4 -4l74 -104q2 0 2 -5
l2 -1v114h14v-140h-12l-82 114v4h-4v-118zM1596 632q9 7 9 16q0 12 -5.5 20t-12.5 14q-6 4 -6 6h-4l-4 2h-3q-4 0 -5 4h-4q-2 0 -5 1q-2 2 -4 3t-7 3l-7 5q-2 1 -3 2l-2 2l-1 2q0 1 -1 3t-1 4q0 4 4 8q0 2 4 6q2 0 3 1t4 1q2 2 11 2l4 -1q2 -1 5 -1q3 -3 8 -4q6 -3 8 -3
q6 0 8 5l5 2q0 2 -2.5 4t-4.5 4q0 1 -3 4l-5 5q-3 0 -5.5 2.5t-6.5 4.5h-6l-5 1q-6 0 -10 -0.5t-8 -0.5l-13 -9l-7 -8.5t-6 -6.5q-1 -4 -3 -7t-2 -9q0 -4 2 -7.5t3 -10.5l10 -11q5 -2 7.5 -5t6.5 -3q4 -2 7.5 -4t6.5 -2q4 -2 7 -2t6 -2q6 0 10 -4l4 -3q2 -2 2 -6q2 -2 2 -6
v-9q0 -3 -2 -5q0 -6 -6 -7q-6 -5 -7 -6t-3 -1q-7 0 -8 -1t-5 -1q-3 0 -6.5 1t-5.5 1q-2 1 -4 3l-4 4l-2 1q-5 4 -10 4h-7q-2 0 -4 -2l-6 -2q2 -1 2 -2t2 -1q0 -3 1 -4l3 -3v-2q6 -6 9 -6q7 -7 14.5 -9t17.5 -2h12q3 0 11 2q3 2 6.5 4t7.5 5l5 8q3 3 4 9zM78 350q-6 6 -7 17
l-3 10q-1 3 -1 10t4 16l2 10t5 10l4 6l5 7q2 2 6.5 4.5t6.5 4.5q6 7 11 8t9 3q3 0 8 1.5t10 1.5q7 0 14.5 -1.5t13.5 -5.5q8 -2 12.5 -6.5t8.5 -9.5q-2 -2 -4 -2v-4h-13q-4 2 -7 5t-7 3h-36l-22 -12q-4 -3 -7.5 -7.5t-4.5 -10.5q-2 -7 -3 -13t-1 -8q0 -9 4 -13q0 -5 0.5 -10
t0.5 -8l5 -4q4 -1 6 -7l7 -4q3 -1 8 -1q3 -4 5.5 -5t6.5 -3h33q2 2 7 3t9 5v29h-14v2q-2 0 -3 1.5t-3 3.5h-2q-1 1 -1 3v4h36v-51q-2 -5 -3.5 -6t-5.5 -8h-12q-8 -2 -12 -2h-34q-4 0 -9 3.5l-11 7.5q-2 0 -6.5 2.5t-6.5 6.5l-5 6.5t-4 7.5zM240 438v-44h56v-15h-56v-47h67
v-16h-84v140h84v-18h-67zM1171 438v-44h60v-15h-60v-47h68v-16h-84v140h84v-18h-68zM2375 759h-20q-3 0 -8 -5q-6 -5 -6 -10l-37 -47h-2q0 -2 -2 -2v2l-39 47q-1 7 -4 10q-5 5 -11 5h-18l58 -77v-2q0 -2 2 -2l2 -2v-72h21v70q2 0 2 2l2 4v2zM641 456v-85q0 -7 2 -10t5 -5
q0 -6 3.5 -9.5t5.5 -4.5q0 -2 4.5 -4t6.5 -4q6 -2 8 -2h16q1 0 5 2l9 4q2 1 3.5 2t3.5 2q3 1 8 14q4 3 4 15v85h14v-85q0 -12 -4 -23t-12 -16q-2 -5 -6.5 -9.5t-8.5 -4.5q-8 -1 -13.5 -1.5t-10.5 -0.5t-11 0.5t-14 1.5q-2 0 -6.5 4.5l-9.5 9.5l-10 16q-1 6 -3.5 11t-2.5 12
v85h14zM2253 625h-69v134h-21v-155h90v21zM1271 625h-67v134h-20v-155h87v21zM1452 336q1 2 2 3.5t2 3.5q2 2 3 6.5t1 6.5q0 9 -2 11t-3 4.5t-3 4.5q-1 1 -8 3q-4 0 -6 2t-6 2q-8 0 -14 6q-9 0 -13 7q-2 0 -3.5 3.5t-3.5 7.5v22q0 1 2 7q0 8 7 9l6 7q2 1 3.5 2t3.5 2
q5 0 7.5 1.5t8.5 1.5l6 -2l4 -1q4 0 5 -1t5 -3q2 0 4 -3.5t2 -5.5q4 0 6 -3l1 -2l-2 -2q-6 -2 -9 -2h-6q-2 2 -2 4h-23q-9 0 -9 -2q-5 -7 -5 -8q-4 0 -4 -8q0 -5 4 -6q0 -5 3 -6q0 -1 3 -4l4 -1q4 -4 7.5 -4t7.5 -3q3 0 4 -1l2 -1q4 0 8 -5h4q2 0 4 -2h2l8.5 -7t5.5 -4
q1 -5 1.5 -10.5t0.5 -9.5v-10q0 -5 -4 -6l-5.5 -7.5t-6.5 -5.5q-2 -2 -6 -5.5t-6 -3.5q-6 -2 -10 -2h-9q-11 0 -18.5 1t-12.5 10q-2 0 -3.5 2.5t-5.5 4.5v4l-2 2l4 2h7q1 0 3 -1t4 -1q4 -4 6.5 -5t4.5 -3h22q8 0 12 4zM1069 316l-59 140h6q6 0 8 -2t3 -2t3 -7l43 -103v-2
l2 -6v6l2 2q5 14 13 27.5t12 24.5q4 16 10 28l12 23q0 7 1.5 7t1.5 2q6 2 7 2h11l-15.5 -35t-16.5 -34q-4 -9 -7 -18.5l-6 -18.5l-16 -34h-15zM532 438v-49h60v-12h-60v-61h-16v140h85v-18h-69zM1959 438v-49h54v-12h-54v-61h-16v140h81v-18h-65zM879 456v-124h63v-16h-80
v140h17zM371 316v122h-46v18h105v-18h-47v-122h-12zM784 456v-124h64v-16h-80v140h16zM270 728q2 -1 3 -4t3 -5q4 -4 4 -9v-4q0 -5 -4 -9q-2 -2 -3 -4.5t-3 -2.5l-4 -4l-4 -4h-46v53h36q4 0 10 -2q1 0 4 -3zM1325 389q4 0 6 3q4 4 9 4l2 5q0 2 5 6q0 1 1 4t1 7q0 2 -1 3.5
t-1 4.5q-7 3 -7 8q-5 0 -9 4h-44v-49h38zM2101 392q4 4 7 4q7 7 7 11q2 4 2 11q0 4 -2 8q0 2 -7 8q-3 0 -7 4h-44v-49h36q3 0 8 3zM1525 456v-140h-18v140h18zM518 701l-4 -7q-2 0 -3 -2t-3 -2q-2 -2 -10 -2h-33v47h33q4 0 10 -2q2 0 6 -5q1 -2 2 -3.5t2 -3.5q3 -2 3 -9
q0 -5 -3 -11zM684 129l-27 69q0 2 -1 3l-1 2q0 4 -3 6v-6l-1 -2q-1 -1 -1 -3l-27 -69h61zM1093 727v-4l27 -64h-59l30 64v5zM1755 82q6 0 6 -6q2 -2 2 -5v-4q0 -9 -2 -11q0 -5 -6 -9q-3 0 -6 -4h-17q-4 4 -11 4q0 2 -5 9q-2 2 -2 11v4q0 3 2 5l3 4l2 2q7 4 11 4q1 3 4 3h10
q3 0 3 -3q3 0 6 -4z" />
    <glyph glyph-name="two" unicode="2" 
d="M2478 1093v-587h-2404v587h910q0 30 5.5 58t20.5 53q12 29 26 52.5t37 41.5q39 42 91 62q28 12 55.5 17t56.5 5q33 0 61.5 -6.5t53.5 -15.5q27 -14 50.5 -29.5t45.5 -36.5q35 -38 60 -94q11 -27 15.5 -54t4.5 -53h911zM1030 1194q-20 -49 -20 -101q0 -58 20 -106
q10 -22 24.5 -43.5l29.5 -42.5q20 -17 41.5 -32t45.5 -25q46 -23 105 -23q31 0 56.5 4.5t47.5 16.5q48 19 83 57q22 20 35.5 41l26.5 43q20 54 20 110q0 20 -3.5 43.5t-11.5 47.5q-14 40 -43 72q-14 20 -29.5 33.5t-34.5 25.5l-76 36l-33 6t-38 3q-29 0 -55.5 -5.5
t-51.5 -19.5q-50 -19 -85 -57q-17 -19 -30.5 -39.5t-23.5 -44.5zM1142 936l314 317q62 -80 62 -160q0 -24 -3.5 -45.5t-11.5 -41.5q-8 -19 -17.5 -37t-23.5 -33h-320zM1095 928q-14 17 -25 36.5t-19 39.5q-9 18 -12.5 40.5t-3.5 48.5q0 18 3.5 39t12.5 43q7 35 40 68h318z
M1135 207q2 -4 4.5 -11t5.5 -14q2 -10 2 -14v-32q0 -5 -2 -11l-6 -15l-4 -14q-6 -4 -10.5 -10t-8.5 -10q-6 -5 -11 -10.5t-10 -9.5q-9 -5 -15.5 -7l-12.5 -4q-10 -2 -15 -2h-17q-9 0 -19 2t-23 4q-12 6 -18.5 13t-17.5 14q-15 14 -21 35q-4 10 -6 19.5t-2 23.5v14q0 4 2 14
q4 17 12 25q4 8 7.5 13l7.5 11q9 5 13.5 9.5t10.5 9.5l12 4l17 6q5 0 11.5 1t13.5 1q10 0 17 -1t15 -1q6 -4 12.5 -6t15.5 -4q5 -5 10 -9.5l11 -9.5q4 -6 8.5 -11t10.5 -13zM2195 207q4 -4 6.5 -11t4.5 -14q4 -7 4 -14v-32q0 -7 -4 -11l-4.5 -15t-6.5 -14l-16 -20l-12 -10
l-14 -10q-5 -5 -12 -7t-13 -4q-8 -2 -14 -2h-17q-19 0 -43 6q-8 6 -16 13t-17 14q-8 6 -14 14t-8 21q-6 10 -7.5 19.5t-1.5 23.5q0 8 1 14t1 14l6 14t7 11q2 8 6 13t10 11q3 5 10.5 9.5t12.5 9.5q4 2 11 4t13 6q11 0 17 1t12 1q9 0 17 -1t14 -1q6 -4 13 -6t12 -4l26 -19
q2 -6 8 -11t8 -13zM2433 260l1 1q1 1 6 1h38v-219h-38v160l-5 -9v-8q0 -2 -2 -4l-13 -34.5t-16 -31.5q-6 -20 -12 -36.5t-14 -36.5h-37l-55 139q-6 3 -6 12q0 4 -1 4l-2 2v-157h-42v219h40q5 0 6.5 -1t4.5 -1q2 -2 3 -2t4 -2l7 -4q0 -2 2 -3.5t2 -3.5q4 -18 11 -32.5
l16 -34.5l12 -33q3 -8 6 -15l6 -14v-14q3 0 4 -4q0 4 1 4v14l11 13l44 116q0 1 2 3l2 4q0 1 3 3l3 1q2 2 4 2t4 2zM1329 262h38v-219h-36l-100 146l-4 5v2q-3 4 -3 5q-4 1 -4 4q0 4 -7 4v-166h-37v219h33q4 0 9.5 -1t5.5 -3q3 -2 5 -2t4 -2l22 -33q6 -8 11 -16.5t10 -19.5
q13 -13 24 -29t25 -29q0 -2 1 -4.5t1 -6.5l1 -3q0 -2 1 -3v152zM672 262l94 -219h-25q-9 0 -16 4q-2 2 -4 6.5t-6 8.5l-14 27h-100l-9 -27q0 -6 -4 -6q-2 -5 -4 -5l-3 -4q-2 0 -4.5 -1t-6.5 -1q0 -2 -2 -2h-27l96 219h35zM260 262h139v-39h-100v-49h82v-41h-82v-51h100v-39
h-139v219zM839 659q1 7 2 11t1 10q0 12 -3 21q0 7 -4.5 10.5t-6.5 9.5l-4.5 6.5t-6.5 7.5l-7 6q-2 3 -9 9q-4 2 -8 4.5t-11 4.5q-5 0 -9.5 0.5t-10.5 0.5q-3 0 -8.5 -0.5t-12.5 -0.5q-6 -2 -10 -4.5t-8 -4.5q-4 -6 -7.5 -8.5t-7.5 -6.5q-13 -7 -14 -14q-4 -6 -5 -9.5
l-3 -10.5q-1 -5 -1.5 -10t-0.5 -11t2 -14.5t4 -15.5t6.5 -12.5t11.5 -12.5q10 -15 25 -15q10 -6 29 -6h20q15 5 19 8q11 4 16 13q3 4 6 7.5t5 8.5q2 4 6.5 9t4.5 9zM1966 659v42l-7 20q-5 7 -15 14q-1 4 -6 6.5t-10 8.5l-4 2t-5 2l-7 5q-7 0 -12 0.5t-10 0.5q-6 0 -11 -0.5
t-9 -0.5l-22 -9q-3 -6 -6 -8.5t-7 -6.5q-3 -4 -6.5 -7t-5.5 -7q-2 -6 -4.5 -9.5t-2.5 -10.5q-6 -9 -6 -21q0 -6 3 -14.5t6 -15.5q4 -15 16 -25q7 -15 26 -15q10 -6 29 -6h22q3 2 8 4t8 4l10 6t6 7q11 8 15 16zM74 262h158v-24q0 -4 -1 -6q0 -3 -2 -5l-4 -4l-105 -143h1l2 2
h108v-39h-164v13q0 11 2 13q0 2 5 7v4l2 4q2 2 4 3.5t2 6.5l94 129h-102v39zM1839 203q-4 -4 -7 -10.5l-7 -14.5q-2 -4 -4 -10t-2 -14q0 -7 2 -15l4 -12q2 -7 6 -14.5t8 -10.5q4 -4 9.5 -8.5t14.5 -7.5q12 -4 27 -4q5 0 10 1t12 1q3 2 8 5t8 7q3 0 9 2h13q3 0 9 -2
q2 -1 3.5 -3t3.5 -4l6 -7q-3 -4 -6 -7.5t-7 -7.5l-11.5 -8t-12.5 -6q-7 -4 -11.5 -5t-10.5 -3t-11 -2h-12q-12 0 -23.5 2t-21.5 4q-10 5 -18.5 12t-16.5 15q-16 13 -22 35q-4 10 -7 19.5t-3 23.5q0 10 1 14l4 14q1 7 3 14t6 11q6 8 8.5 13t9.5 11q14 9 25 19q4 2 9.5 4
t18.5 6q5 0 12 1t15 1h13q4 0 10 -2t10.5 -3t11.5 -3q8 -4 12.5 -6.5t11.5 -7.5l13 -17l-6 -8q-2 -1 -5 -4l-2 -4h-15q-7 0 -16 4l-16 10q-10 2 -12 2h-10q-17 0 -27 -7q-17 -1 -24 -13zM1690 151l7 -10.5t3 -7.5q6 -8 6 -20q0 -15 -8 -29l-8 -12l-9 -10q-7 -6 -11.5 -9.5
t-12.5 -5.5q-5 -2 -14 -3t-15 -1q-8 0 -14.5 1l-19.5 3q-5 2 -10 6.5t-11 13.5q-4 1 -6 5l-4 8q-7 2 -7 9l7 5q2 2 4 2h4l2 2h10q4 0 4 -2q7 0 9 -2q7 -5 10.5 -6.5t5.5 -3.5q2 0 6 -1t10 -1h5q2 0 6 2q5 1 8 2t7 3q6 6 7 9q2 4 4 7.5t2 7.5q0 7 -6 10q-5 6 -7 6
q-2 4 -7.5 5t-7.5 2q-6 0 -14 7q-5 0 -9 1t-9 7q-11 3 -14.5 6t-7.5 7q-12 4 -12 14q-6 10 -6 25q0 18 6 26l6 11l8 10q4 2 10 4t13 6q6 0 10.5 1t13.5 1q4 0 8.5 -1t11.5 -1l15 -6q3 -4 6.5 -6.5t7.5 -7.5q4 -2 7.5 -5.5t3.5 -7.5l-7 -4q-4 -2 -7 -4.5t-3 -3.5h-18l-5 1
l-7 5q-2 0 -4 1t-4 1h-17q-2 0 -3 -1t-5 -3q-2 -3 -6 -6q-1 -3 -1 -10q0 -5 1 -5q2 -2 3 -5.5t3 -7.5h6q1 0 5 -2q5 -1 9.5 -3t10.5 -4l9 -2q5 -4 9 -5t9 -5q5 -2 10 -5t8 -8zM1579 336q-12 7 -16 20q-7 17 -7 31v16l11 20l12 13q6 7 12 9q3 7 9.5 8t9.5 3q4 0 8 1.5t10 1.5
q4 0 10.5 -1.5t10.5 -1.5q5 -2 8.5 -3t7.5 -8q2 -2 5.5 -4.5l6.5 -4.5l13 -13l8 -20q0 -4 1 -9t1 -7q0 -6 -1 -14t-5 -17q-5 -13 -17 -20l-9.5 -7.5t-11.5 -10.5q-5 -1 -12 -1.5t-16 -0.5h-15q-4 0 -10 2q-18 7 -24 18zM2284 336l-13.5 -7.5t-11.5 -10.5q-8 -2 -12 -2h-30
q-5 0 -13 2q-7 4 -12.5 8.5t-10.5 9.5q-6 6 -13 20q-2 9 -4.5 17t-2.5 14q0 2 1 7t1 9q3 5 4 10t4 10q2 3 5 6t5 7q6 4 18 9q3 7 8 8t7 3q6 0 9 1.5t10 1.5q2 0 8.5 -1.5t11.5 -1.5q4 -2 7.5 -3t6.5 -8l17 -9q2 -4 4 -7t5 -6q2 -5 4 -9.5t3 -10.5q2 -4 3 -9t1 -7
q0 -6 -1 -14t-5 -17q0 -6 -5 -11zM2166 127q5 12 5 27q0 16 -5 24q-3 9 -8 15.5t-8 9.5q-10 10 -24 13q-4 5 -12 6t-17 1q-12 0 -25 -7q-8 -1 -13 -4t-11 -9q-4 -3 -7.5 -9.5l-8.5 -15.5q0 -4 -1 -10t-1 -14q0 -9 1 -15t1 -12q4 -8 8 -14t8 -11q6 -4 11 -8.5t13 -7.5
q7 -2 14 -3t11 -1q9 0 17 1t12 3q8 3 14 7.5t10 8.5q11 11 16 25zM1104 127q4 11 4 27q0 13 -4 24q-2 9 -6.5 15.5t-13.5 9.5q-2 6 -7.5 9t-11.5 4q-11 7 -30 7q-14 0 -25 -7q-11 -1 -23 -13q-6 -3 -9 -9.5t-5 -15.5q-5 -5 -5 -10v-29q0 -5 5 -12q2 -7 5 -14.5t9 -10.5
q6 -4 11 -8.5t12 -7.5q11 -4 25 -4q19 0 30 4q13 7 19 16q9 3 13.5 10.5t6.5 14.5zM774 262h139v-39h-100v-55h82v-39h-82v-86h-39v219zM570 223h-58v-180h-43v180h-62v39h163v-39zM1188 864q-19 7 -37 19t-35 26h322q-18 -14 -36 -26t-36 -19l-45.5 -11t-44.5 -5
q-25 0 -45.5 5t-42.5 11zM1389 262h165v-39h-65v-180h-39v180h-61v39zM1366 1315q18 -8 36 -20.5t36 -22.5h-325q38 30 75 43q37 18 88 18q48 0 90 -18zM559 604l-47 68q4 0 11 4q8 5 9 10q9 5 9 11v26q0 1 -2 5q-3 10 -11 15q-5 9 -14 9q-2 5 -6.5 6t-9.5 1h-57v-155h24v64
h23l40 -56q1 -4 8 -6q2 -2 3 -2h20zM1169 604l-67 155h-22l-65 -155h11q7 0 9 2q0 2 7 6l11 27h76l13 -27q1 -4 5 -6q2 -2 8 -2h14zM1930 721q3 -2 8 -7.5t6 -12.5q4 -7 4 -21q0 -12 -4 -23q-1 -5 -6 -9.5t-8 -6.5q-5 -4 -9 -6.5t-8 -7.5q-9 -4 -23 -4q-6 0 -12 1t-10 3
q-5 5 -10.5 7.5t-9.5 6.5q-3 2 -6 6.5t-3 9.5q-4 7 -5 12t-1 11q0 10 6 21q0 7 3 12.5t6 7.5q4 4 9.5 7t10.5 5q9 4 22 4q5 0 11.5 -1t11.5 -3zM801 721q7 -2 9.5 -7.5t4.5 -12.5q4 -7 4 -21q0 -11 -4 -23q-2 -5 -4.5 -9.5t-9.5 -6.5q-1 -4 -6 -7l-11 -7q-9 -4 -22 -4
q-11 0 -23 4q-4 5 -9 7.5t-9 6.5q-2 2 -5.5 6.5t-5.5 9.5q-4 12 -4 23q0 12 4 21q2 7 5.5 12.5t5.5 7.5q4 4 9 7t9 5q5 2 12.5 3t10.5 1q13 0 22 -4q8 -2 11.5 -5t5.5 -7zM2126 759h-22v-120q-1 2 -2 5t-3 4l-75 104l-3 7h-24v-155h22v121l2 -2l87 -119h18v155zM2218 332h31
l6 3q3 3 4 5q6 0 14 5q2 5 3 7t4 4q0 3 3 8t3 10v34q-3 6 -7 10.5t-6 7.5q-10 4 -18 12h-43q-6 -4 -9.5 -7t-9.5 -5q-5 -3 -7.5 -7.5t-4.5 -10.5q-1 -4 -1.5 -7t-0.5 -7v-20q0 -13 5 -18q2 -2 4.5 -4t4.5 -7l7 -3q2 -2 4 -2q4 -4 7 -5t7 -3zM296 690q5 12 5 20q0 9 -5 18
q0 2 -5 7l-6 6q-2 3 -5 7t-10 4q-3 5 -8.5 6t-9.5 1h-52v-155h16v59h36q4 0 9.5 0.5t8.5 2.5q10 4 15 10q4 2 7.5 6t3.5 8zM1579 408q-6 -14 -6 -21v-8q0 -4 3 -5q0 -10 5 -18q0 -2 2 -4t4 -7l5 -3q2 -2 11 -2q2 -4 5.5 -5t5.5 -3h27q6 2 9.5 3t6.5 5l6 2l4 3q2 5 4.5 7
t2.5 4q3 3 4 8t3 10q0 2 1 5.5t1 7.5q0 2 -1 8t-5 13q0 6 -4 10.5t-6 7.5q-3 1 -8 6l-10 6h-42q-4 -4 -10 -7l-10 -5l-5 -8q-3 -5 -3 -10zM997 759h-18v-120l-2 4q-2 6 -2 5l-74 104q-5 0 -6 7h-25v-155h21v124h2l2 -1v-4l86 -119h16v155zM2115 381q-5 -1 -8.5 -2t-5.5 -2
l45 -61h-12l-6 2q-4 0 -4 9l-39 50h-28v-61h-15v140h57q3 0 9 -2q2 -2 6.5 -5.5t5.5 -5.5q4 -2 5 -5.5t7 -7.5v-27q-4 -4 -5 -8t-3 -6zM1342 381q-3 -3 -11 -4l47 -61h-15q-3 0 -3 2q-6 0 -6 9l-39 50h-28v-61h-13v140h56q2 0 6 -2q10 -1 18 -11q0 -2 3 -5.5t3 -7.5
q2 -2 2 -6v-14q0 -1 -2 -7q0 -10 -4 -14l-5 -4q-3 -3 -9 -4zM412 759h-98v-155h98v21h-74v47h58v18h-58v45h74v24zM1721 759h-93v-155h93v21h-69v47h58v18h-58v45h69v24zM2460 454q6 2 5 2h13v-140h-12v114l-2 -2v-2q-4 -8 -6.5 -17.5t-8.5 -14.5q-5 -7 -7 -12.5t-7 -14.5
q-2 -9 -3 -15.5t-5 -9.5q-3 -8 -6.5 -12.5t-5.5 -13.5h-15q-10 14 -15 27t-10 28q-4 12 -12 26.5t-12 28.5v2h-4v-112h-14v140h14q4 0 6 -2l2 -2v-7l49 -105q0 -4 2 -4l1 2v4q0 2 8 6l41 97q2 7 3 7t1 2zM1480 759h-22v-104q0 -4 -2 -8q-1 -7 -10 -12q0 -2 -4 -3.5t-6 -6.5
l-9 -2h-9q-7 0 -13 2q-5 5 -8.5 6.5t-5.5 3.5l-11 12q0 3 -1 7.5t-1 11.5v93h-20v-93q0 -7 1 -11.5t1 -7.5q0 -8 6 -14q3 -8 10 -12q2 -4 4.5 -6.5t8.5 -4.5q2 -2 6.5 -3t7.5 -3q4 0 7 -1.5t8 -1.5t8.5 1.5t11.5 1.5q2 2 5 3t7 3q3 2 6 4.5t6 6.5q3 2 5 5.5t7 6.5q0 4 3 7
t3 7v112zM664 632q2 5 3 8t1 8q0 12 -5.5 20t-12.5 14q-2 0 -3.5 2t-5.5 4l-4 2h-4q-1 0 -1 4q-8 0 -9 1q-8 2 -9.5 3t-5.5 3q-6 5 -9 5q-3 4 -3 6v15q0 1 1.5 2.5t1.5 3.5q2 0 4.5 1t4.5 1q6 2 5 2h10q2 -2 4 -2q7 0 8 -4q1 -3 4 -3h2q9 0 14 5l4 2q0 2 -2 4l-5 4
q-2 1 -4.5 4t-6.5 5q-2 0 -4 2.5t-5 4.5q-5 0 -7 0.5t-4 0.5q-7 0 -12 -0.5t-8 -0.5q-5 -2 -7 -4.5t-6 -4.5q-2 -6 -5.5 -8.5t-8.5 -6.5q0 -4 -2 -7t-2 -9t4 -18l12 -11q2 -2 6 -5t7 -3q5 -2 8 -4t7 -2q1 -2 6 -2t7 -2l6 -2q2 0 4 -2t2 -3t2 -6q2 -2 2 -7v-9q0 -2 -2 -4
t-2 -4t-2 -3q-2 -5 -6 -6l-4 -1q-4 0 -8 -1t-5 -1q-4 0 -7 1t-6 1q-2 0 -3.5 1t-1.5 6l-4 1q-4 4 -11 4h-7l-4 -2l-5 -2q0 -3 3 -3q0 -3 2 -5q0 -4 4 -4v-6h5q7 -7 16 -9t19 -2h10q5 0 11 2q4 2 8.5 4t6.5 5q13 5 14 17zM1741 316h-18v140h20q3 0 4 -4l74 -104q2 0 2 -5
l2 -1v114h14v-140h-12l-82 114v4h-4v-118zM1596 632q9 7 9 16q0 12 -5.5 20t-12.5 14q-6 4 -6 6h-4l-4 2h-3q-4 0 -5 4h-4q-2 0 -5 1q-2 2 -4 3t-7 3l-7 5q-2 1 -3 2l-2 2l-1 2q0 1 -1 3t-1 4q0 4 4 8q0 2 4 6q2 0 3 1t4 1q2 2 11 2l4 -1q2 -1 5 -1q3 -3 8 -4q6 -3 8 -3
q6 0 8 5l5 2q0 2 -2.5 4t-4.5 4q0 1 -3 4l-5 5q-3 0 -5.5 2.5t-6.5 4.5h-6l-5 1q-6 0 -10 -0.5t-8 -0.5l-13 -9l-7 -8.5t-6 -6.5q-1 -4 -3 -7t-2 -9q0 -4 2 -7.5t3 -10.5l10 -11q5 -2 7.5 -5t6.5 -3q4 -2 7.5 -4t6.5 -2q4 -2 7 -2t6 -2q6 0 10 -4l4 -3q2 -2 2 -6q2 -2 2 -6
v-9q0 -3 -2 -5q0 -6 -6 -7q-6 -5 -7 -6t-3 -1q-7 0 -8 -1t-5 -1q-3 0 -6.5 1t-5.5 1q-2 1 -4 3l-4 4l-2 1q-5 4 -10 4h-7q-2 0 -4 -2l-6 -2q2 -1 2 -2t2 -1q0 -3 1 -4l3 -3v-2q6 -6 9 -6q7 -7 14.5 -9t17.5 -2h12q3 0 11 2q3 2 6.5 4t7.5 5l5 8q3 3 4 9zM78 350q-6 6 -7 17
l-3 10q-1 3 -1 10t4 16l2 10t5 10l4 6l5 7q2 2 6.5 4.5t6.5 4.5q6 7 11 8t9 3q3 0 8 1.5t10 1.5q7 0 14.5 -1.5t13.5 -5.5q8 -2 12.5 -6.5t8.5 -9.5q-2 -2 -4 -2v-4h-13q-4 2 -7 5t-7 3h-36l-22 -12q-4 -3 -7.5 -7.5t-4.5 -10.5q-2 -7 -3 -13t-1 -8q0 -9 4 -13q0 -5 0.5 -10
t0.5 -8l5 -4q4 -1 6 -7l7 -4q3 -1 8 -1q3 -4 5.5 -5t6.5 -3h33q2 2 7 3t9 5v29h-14v2q-2 0 -3 1.5t-3 3.5h-2q-1 1 -1 3v4h36v-51q-2 -5 -3.5 -6t-5.5 -8h-12q-8 -2 -12 -2h-34q-4 0 -9 3.5l-11 7.5q-2 0 -6.5 2.5t-6.5 6.5l-5 6.5t-4 7.5zM240 438v-44h56v-15h-56v-47h67
v-16h-84v140h84v-18h-67zM1171 438v-44h60v-15h-60v-47h68v-16h-84v140h84v-18h-68zM2375 759h-20q-3 0 -8 -5q-6 -5 -6 -10l-37 -47h-2q0 -2 -2 -2v2l-39 47q-1 7 -4 10q-5 5 -11 5h-18l58 -77v-2q0 -2 2 -2l2 -2v-72h21v70q2 0 2 2l2 4v2zM641 456v-85q0 -7 2 -10t5 -5
q0 -6 3.5 -9.5t5.5 -4.5q0 -2 4.5 -4t6.5 -4q6 -2 8 -2h16q1 0 5 2l9 4q2 1 3.5 2t3.5 2q3 1 8 14q4 3 4 15v85h14v-85q0 -12 -4 -23t-12 -16q-2 -5 -6.5 -9.5t-8.5 -4.5q-8 -1 -13.5 -1.5t-10.5 -0.5t-11 0.5t-14 1.5q-2 0 -6.5 4.5l-9.5 9.5l-10 16q-1 6 -3.5 11t-2.5 12
v85h14zM2253 625h-69v134h-21v-155h90v21zM1271 625h-67v134h-20v-155h87v21zM1452 336q1 2 2 3.5t2 3.5q2 2 3 6.5t1 6.5q0 9 -2 11t-3 4.5t-3 4.5q-1 1 -8 3q-4 0 -6 2t-6 2q-8 0 -14 6q-9 0 -13 7q-2 0 -3.5 3.5t-3.5 7.5v22q0 1 2 7q0 8 7 9l6 7q2 1 3.5 2t3.5 2
q5 0 7.5 1.5t8.5 1.5l6 -2l4 -1q4 0 5 -1t5 -3q2 0 4 -3.5t2 -5.5q4 0 6 -3l1 -2l-2 -2q-6 -2 -9 -2h-6q-2 2 -2 4h-23q-9 0 -9 -2q-5 -7 -5 -8q-4 0 -4 -8q0 -5 4 -6q0 -5 3 -6q0 -1 3 -4l4 -1q4 -4 7.5 -4t7.5 -3q3 0 4 -1l2 -1q4 0 8 -5h4q2 0 4 -2h2l8.5 -7t5.5 -4
q1 -5 1.5 -10.5t0.5 -9.5v-10q0 -5 -4 -6l-5.5 -7.5t-6.5 -5.5q-2 -2 -6 -5.5t-6 -3.5q-6 -2 -10 -2h-9q-11 0 -18.5 1t-12.5 10q-2 0 -3.5 2.5t-5.5 4.5v4l-2 2l4 2h7q1 0 3 -1t4 -1q4 -4 6.5 -5t4.5 -3h22q8 0 12 4zM1069 316l-59 140h6q6 0 8 -2t3 -2t3 -7l43 -103v-2
l2 -6v6l2 2q5 14 13 27.5t12 24.5q4 16 10 28l12 23q0 7 1.5 7t1.5 2q6 2 7 2h11l-15.5 -35t-16.5 -34q-4 -9 -7 -18.5l-6 -18.5l-16 -34h-15zM532 438v-49h60v-12h-60v-61h-16v140h85v-18h-69zM1959 438v-49h54v-12h-54v-61h-16v140h81v-18h-65zM879 456v-124h63v-16h-80
v140h17zM371 316v122h-46v18h105v-18h-47v-122h-12zM784 456v-124h64v-16h-80v140h16zM270 728q2 -1 3 -4t3 -5q4 -4 4 -9v-4q0 -5 -4 -9q-2 -2 -3 -4.5t-3 -2.5l-4 -4l-4 -4h-46v53h36q4 0 10 -2q1 0 4 -3zM1325 389q4 0 6 3q4 4 9 4l2 5q0 2 5 6q0 1 1 4t1 7q0 2 -1 3.5
t-1 4.5q-7 3 -7 8q-5 0 -9 4h-44v-49h38zM2101 392q4 4 7 4q7 7 7 11q2 4 2 11q0 4 -2 8q0 2 -7 8q-3 0 -7 4h-44v-49h36q3 0 8 3zM1525 456v-140h-18v140h18zM518 701l-4 -7q-2 0 -3 -2t-3 -2q-2 -2 -10 -2h-33v47h33q4 0 10 -2q2 0 6 -5q1 -2 2 -3.5t2 -3.5q3 -2 3 -9
q0 -5 -3 -11zM684 129l-27 69q0 2 -1 3l-1 2q0 4 -3 6v-6l-1 -2q-1 -1 -1 -3l-27 -69h61zM1093 727v-4l27 -64h-59l30 64v5zM1755 82q6 0 6 -6q2 -2 2 -5v-4q0 -9 -2 -11q0 -5 -6 -9q-3 0 -6 -4h-17q-4 4 -11 4q0 2 -5 9q-2 2 -2 11v4q0 3 2 5l3 4l2 2q7 4 11 4q1 3 4 3h10
q3 0 3 -3q3 0 6 -4z" />
    <glyph glyph-name="three" unicode="3" 
d="M2478 1093v-587h-2404v587h910q0 30 5.5 58t20.5 53q12 29 26 52.5t37 41.5q39 42 91 62q28 12 55.5 17t56.5 5q33 0 61.5 -6.5t53.5 -15.5q27 -14 50.5 -29.5t45.5 -36.5q35 -38 60 -94q11 -27 15.5 -54t4.5 -53h911zM1030 1194q-20 -49 -20 -101q0 -58 20 -106
q10 -22 24.5 -43.5l29.5 -42.5q20 -17 41.5 -32t45.5 -25q46 -23 105 -23q31 0 56.5 4.5t47.5 16.5q48 19 83 57q22 20 35.5 41l26.5 43q20 54 20 110q0 20 -3.5 43.5t-11.5 47.5q-14 40 -43 72q-14 20 -29.5 33.5t-34.5 25.5l-76 36l-33 6t-38 3q-29 0 -55.5 -5.5
t-51.5 -19.5q-50 -19 -85 -57q-17 -19 -30.5 -39.5t-23.5 -44.5zM1142 936l314 317q62 -80 62 -160q0 -24 -3.5 -45.5t-11.5 -41.5q-8 -19 -17.5 -37t-23.5 -33h-320zM1095 928q-14 17 -25 36.5t-19 39.5q-9 18 -12.5 40.5t-3.5 48.5q0 18 3.5 39t12.5 43q7 35 40 68h318z
M1135 207q2 -4 4.5 -11t5.5 -14q2 -10 2 -14v-32q0 -5 -2 -11l-6 -15l-4 -14q-6 -4 -10.5 -10t-8.5 -10q-6 -5 -11 -10.5t-10 -9.5q-9 -5 -15.5 -7l-12.5 -4q-10 -2 -15 -2h-17q-9 0 -19 2t-23 4q-12 6 -18.5 13t-17.5 14q-15 14 -21 35q-4 10 -6 19.5t-2 23.5v14q0 4 2 14
q4 17 12 25q4 8 7.5 13l7.5 11q9 5 13.5 9.5t10.5 9.5l12 4l17 6q5 0 11.5 1t13.5 1q10 0 17 -1t15 -1q6 -4 12.5 -6t15.5 -4q5 -5 10 -9.5l11 -9.5q4 -6 8.5 -11t10.5 -13zM2195 207q4 -4 6.5 -11t4.5 -14q4 -7 4 -14v-32q0 -7 -4 -11l-4.5 -15t-6.5 -14l-16 -20l-12 -10
l-14 -10q-5 -5 -12 -7t-13 -4q-8 -2 -14 -2h-17q-19 0 -43 6q-8 6 -16 13t-17 14q-8 6 -14 14t-8 21q-6 10 -7.5 19.5t-1.5 23.5q0 8 1 14t1 14l6 14t7 11q2 8 6 13t10 11q3 5 10.5 9.5t12.5 9.5q4 2 11 4t13 6q11 0 17 1t12 1q9 0 17 -1t14 -1q6 -4 13 -6t12 -4l26 -19
q2 -6 8 -11t8 -13zM2433 260l1 1q1 1 6 1h38v-219h-38v160l-5 -9v-8q0 -2 -2 -4l-13 -34.5t-16 -31.5q-6 -20 -12 -36.5t-14 -36.5h-37l-55 139q-6 3 -6 12q0 4 -1 4l-2 2v-157h-42v219h40q5 0 6.5 -1t4.5 -1q2 -2 3 -2t4 -2l7 -4q0 -2 2 -3.5t2 -3.5q4 -18 11 -32.5
l16 -34.5l12 -33q3 -8 6 -15l6 -14v-14q3 0 4 -4q0 4 1 4v14l11 13l44 116q0 1 2 3l2 4q0 1 3 3l3 1q2 2 4 2t4 2zM1329 262h38v-219h-36l-100 146l-4 5v2q-3 4 -3 5q-4 1 -4 4q0 4 -7 4v-166h-37v219h33q4 0 9.5 -1t5.5 -3q3 -2 5 -2t4 -2l22 -33q6 -8 11 -16.5t10 -19.5
q13 -13 24 -29t25 -29q0 -2 1 -4.5t1 -6.5l1 -3q0 -2 1 -3v152zM672 262l94 -219h-25q-9 0 -16 4q-2 2 -4 6.5t-6 8.5l-14 27h-100l-9 -27q0 -6 -4 -6q-2 -5 -4 -5l-3 -4q-2 0 -4.5 -1t-6.5 -1q0 -2 -2 -2h-27l96 219h35zM260 262h139v-39h-100v-49h82v-41h-82v-51h100v-39
h-139v219zM839 659q1 7 2 11t1 10q0 12 -3 21q0 7 -4.5 10.5t-6.5 9.5l-4.5 6.5t-6.5 7.5l-7 6q-2 3 -9 9q-4 2 -8 4.5t-11 4.5q-5 0 -9.5 0.5t-10.5 0.5q-3 0 -8.5 -0.5t-12.5 -0.5q-6 -2 -10 -4.5t-8 -4.5q-4 -6 -7.5 -8.5t-7.5 -6.5q-13 -7 -14 -14q-4 -6 -5 -9.5
l-3 -10.5q-1 -5 -1.5 -10t-0.5 -11t2 -14.5t4 -15.5t6.5 -12.5t11.5 -12.5q10 -15 25 -15q10 -6 29 -6h20q15 5 19 8q11 4 16 13q3 4 6 7.5t5 8.5q2 4 6.5 9t4.5 9zM1966 659v42l-7 20q-5 7 -15 14q-1 4 -6 6.5t-10 8.5l-4 2t-5 2l-7 5q-7 0 -12 0.5t-10 0.5q-6 0 -11 -0.5
t-9 -0.5l-22 -9q-3 -6 -6 -8.5t-7 -6.5q-3 -4 -6.5 -7t-5.5 -7q-2 -6 -4.5 -9.5t-2.5 -10.5q-6 -9 -6 -21q0 -6 3 -14.5t6 -15.5q4 -15 16 -25q7 -15 26 -15q10 -6 29 -6h22q3 2 8 4t8 4l10 6t6 7q11 8 15 16zM74 262h158v-24q0 -4 -1 -6q0 -3 -2 -5l-4 -4l-105 -143h1l2 2
h108v-39h-164v13q0 11 2 13q0 2 5 7v4l2 4q2 2 4 3.5t2 6.5l94 129h-102v39zM1839 203q-4 -4 -7 -10.5l-7 -14.5q-2 -4 -4 -10t-2 -14q0 -7 2 -15l4 -12q2 -7 6 -14.5t8 -10.5q4 -4 9.5 -8.5t14.5 -7.5q12 -4 27 -4q5 0 10 1t12 1q3 2 8 5t8 7q3 0 9 2h13q3 0 9 -2
q2 -1 3.5 -3t3.5 -4l6 -7q-3 -4 -6 -7.5t-7 -7.5l-11.5 -8t-12.5 -6q-7 -4 -11.5 -5t-10.5 -3t-11 -2h-12q-12 0 -23.5 2t-21.5 4q-10 5 -18.5 12t-16.5 15q-16 13 -22 35q-4 10 -7 19.5t-3 23.5q0 10 1 14l4 14q1 7 3 14t6 11q6 8 8.5 13t9.5 11q14 9 25 19q4 2 9.5 4
t18.5 6q5 0 12 1t15 1h13q4 0 10 -2t10.5 -3t11.5 -3q8 -4 12.5 -6.5t11.5 -7.5l13 -17l-6 -8q-2 -1 -5 -4l-2 -4h-15q-7 0 -16 4l-16 10q-10 2 -12 2h-10q-17 0 -27 -7q-17 -1 -24 -13zM1690 151l7 -10.5t3 -7.5q6 -8 6 -20q0 -15 -8 -29l-8 -12l-9 -10q-7 -6 -11.5 -9.5
t-12.5 -5.5q-5 -2 -14 -3t-15 -1q-8 0 -14.5 1l-19.5 3q-5 2 -10 6.5t-11 13.5q-4 1 -6 5l-4 8q-7 2 -7 9l7 5q2 2 4 2h4l2 2h10q4 0 4 -2q7 0 9 -2q7 -5 10.5 -6.5t5.5 -3.5q2 0 6 -1t10 -1h5q2 0 6 2q5 1 8 2t7 3q6 6 7 9q2 4 4 7.5t2 7.5q0 7 -6 10q-5 6 -7 6
q-2 4 -7.5 5t-7.5 2q-6 0 -14 7q-5 0 -9 1t-9 7q-11 3 -14.5 6t-7.5 7q-12 4 -12 14q-6 10 -6 25q0 18 6 26l6 11l8 10q4 2 10 4t13 6q6 0 10.5 1t13.5 1q4 0 8.5 -1t11.5 -1l15 -6q3 -4 6.5 -6.5t7.5 -7.5q4 -2 7.5 -5.5t3.5 -7.5l-7 -4q-4 -2 -7 -4.5t-3 -3.5h-18l-5 1
l-7 5q-2 0 -4 1t-4 1h-17q-2 0 -3 -1t-5 -3q-2 -3 -6 -6q-1 -3 -1 -10q0 -5 1 -5q2 -2 3 -5.5t3 -7.5h6q1 0 5 -2q5 -1 9.5 -3t10.5 -4l9 -2q5 -4 9 -5t9 -5q5 -2 10 -5t8 -8zM1579 336q-12 7 -16 20q-7 17 -7 31v16l11 20l12 13q6 7 12 9q3 7 9.5 8t9.5 3q4 0 8 1.5t10 1.5
q4 0 10.5 -1.5t10.5 -1.5q5 -2 8.5 -3t7.5 -8q2 -2 5.5 -4.5l6.5 -4.5l13 -13l8 -20q0 -4 1 -9t1 -7q0 -6 -1 -14t-5 -17q-5 -13 -17 -20l-9.5 -7.5t-11.5 -10.5q-5 -1 -12 -1.5t-16 -0.5h-15q-4 0 -10 2q-18 7 -24 18zM2284 336l-13.5 -7.5t-11.5 -10.5q-8 -2 -12 -2h-30
q-5 0 -13 2q-7 4 -12.5 8.5t-10.5 9.5q-6 6 -13 20q-2 9 -4.5 17t-2.5 14q0 2 1 7t1 9q3 5 4 10t4 10q2 3 5 6t5 7q6 4 18 9q3 7 8 8t7 3q6 0 9 1.5t10 1.5q2 0 8.5 -1.5t11.5 -1.5q4 -2 7.5 -3t6.5 -8l17 -9q2 -4 4 -7t5 -6q2 -5 4 -9.5t3 -10.5q2 -4 3 -9t1 -7
q0 -6 -1 -14t-5 -17q0 -6 -5 -11zM2166 127q5 12 5 27q0 16 -5 24q-3 9 -8 15.5t-8 9.5q-10 10 -24 13q-4 5 -12 6t-17 1q-12 0 -25 -7q-8 -1 -13 -4t-11 -9q-4 -3 -7.5 -9.5l-8.5 -15.5q0 -4 -1 -10t-1 -14q0 -9 1 -15t1 -12q4 -8 8 -14t8 -11q6 -4 11 -8.5t13 -7.5
q7 -2 14 -3t11 -1q9 0 17 1t12 3q8 3 14 7.5t10 8.5q11 11 16 25zM1104 127q4 11 4 27q0 13 -4 24q-2 9 -6.5 15.5t-13.5 9.5q-2 6 -7.5 9t-11.5 4q-11 7 -30 7q-14 0 -25 -7q-11 -1 -23 -13q-6 -3 -9 -9.5t-5 -15.5q-5 -5 -5 -10v-29q0 -5 5 -12q2 -7 5 -14.5t9 -10.5
q6 -4 11 -8.5t12 -7.5q11 -4 25 -4q19 0 30 4q13 7 19 16q9 3 13.5 10.5t6.5 14.5zM774 262h139v-39h-100v-55h82v-39h-82v-86h-39v219zM570 223h-58v-180h-43v180h-62v39h163v-39zM1188 864q-19 7 -37 19t-35 26h322q-18 -14 -36 -26t-36 -19l-45.5 -11t-44.5 -5
q-25 0 -45.5 5t-42.5 11zM1389 262h165v-39h-65v-180h-39v180h-61v39zM1366 1315q18 -8 36 -20.5t36 -22.5h-325q38 30 75 43q37 18 88 18q48 0 90 -18zM559 604l-47 68q4 0 11 4q8 5 9 10q9 5 9 11v26q0 1 -2 5q-3 10 -11 15q-5 9 -14 9q-2 5 -6.5 6t-9.5 1h-57v-155h24v64
h23l40 -56q1 -4 8 -6q2 -2 3 -2h20zM1169 604l-67 155h-22l-65 -155h11q7 0 9 2q0 2 7 6l11 27h76l13 -27q1 -4 5 -6q2 -2 8 -2h14zM1930 721q3 -2 8 -7.5t6 -12.5q4 -7 4 -21q0 -12 -4 -23q-1 -5 -6 -9.5t-8 -6.5q-5 -4 -9 -6.5t-8 -7.5q-9 -4 -23 -4q-6 0 -12 1t-10 3
q-5 5 -10.5 7.5t-9.5 6.5q-3 2 -6 6.5t-3 9.5q-4 7 -5 12t-1 11q0 10 6 21q0 7 3 12.5t6 7.5q4 4 9.5 7t10.5 5q9 4 22 4q5 0 11.5 -1t11.5 -3zM801 721q7 -2 9.5 -7.5t4.5 -12.5q4 -7 4 -21q0 -11 -4 -23q-2 -5 -4.5 -9.5t-9.5 -6.5q-1 -4 -6 -7l-11 -7q-9 -4 -22 -4
q-11 0 -23 4q-4 5 -9 7.5t-9 6.5q-2 2 -5.5 6.5t-5.5 9.5q-4 12 -4 23q0 12 4 21q2 7 5.5 12.5t5.5 7.5q4 4 9 7t9 5q5 2 12.5 3t10.5 1q13 0 22 -4q8 -2 11.5 -5t5.5 -7zM2126 759h-22v-120q-1 2 -2 5t-3 4l-75 104l-3 7h-24v-155h22v121l2 -2l87 -119h18v155zM2218 332h31
l6 3q3 3 4 5q6 0 14 5q2 5 3 7t4 4q0 3 3 8t3 10v34q-3 6 -7 10.5t-6 7.5q-10 4 -18 12h-43q-6 -4 -9.5 -7t-9.5 -5q-5 -3 -7.5 -7.5t-4.5 -10.5q-1 -4 -1.5 -7t-0.5 -7v-20q0 -13 5 -18q2 -2 4.5 -4t4.5 -7l7 -3q2 -2 4 -2q4 -4 7 -5t7 -3zM296 690q5 12 5 20q0 9 -5 18
q0 2 -5 7l-6 6q-2 3 -5 7t-10 4q-3 5 -8.5 6t-9.5 1h-52v-155h16v59h36q4 0 9.5 0.5t8.5 2.5q10 4 15 10q4 2 7.5 6t3.5 8zM1579 408q-6 -14 -6 -21v-8q0 -4 3 -5q0 -10 5 -18q0 -2 2 -4t4 -7l5 -3q2 -2 11 -2q2 -4 5.5 -5t5.5 -3h27q6 2 9.5 3t6.5 5l6 2l4 3q2 5 4.5 7
t2.5 4q3 3 4 8t3 10q0 2 1 5.5t1 7.5q0 2 -1 8t-5 13q0 6 -4 10.5t-6 7.5q-3 1 -8 6l-10 6h-42q-4 -4 -10 -7l-10 -5l-5 -8q-3 -5 -3 -10zM997 759h-18v-120l-2 4q-2 6 -2 5l-74 104q-5 0 -6 7h-25v-155h21v124h2l2 -1v-4l86 -119h16v155zM2115 381q-5 -1 -8.5 -2t-5.5 -2
l45 -61h-12l-6 2q-4 0 -4 9l-39 50h-28v-61h-15v140h57q3 0 9 -2q2 -2 6.5 -5.5t5.5 -5.5q4 -2 5 -5.5t7 -7.5v-27q-4 -4 -5 -8t-3 -6zM1342 381q-3 -3 -11 -4l47 -61h-15q-3 0 -3 2q-6 0 -6 9l-39 50h-28v-61h-13v140h56q2 0 6 -2q10 -1 18 -11q0 -2 3 -5.5t3 -7.5
q2 -2 2 -6v-14q0 -1 -2 -7q0 -10 -4 -14l-5 -4q-3 -3 -9 -4zM412 759h-98v-155h98v21h-74v47h58v18h-58v45h74v24zM1721 759h-93v-155h93v21h-69v47h58v18h-58v45h69v24zM2460 454q6 2 5 2h13v-140h-12v114l-2 -2v-2q-4 -8 -6.5 -17.5t-8.5 -14.5q-5 -7 -7 -12.5t-7 -14.5
q-2 -9 -3 -15.5t-5 -9.5q-3 -8 -6.5 -12.5t-5.5 -13.5h-15q-10 14 -15 27t-10 28q-4 12 -12 26.5t-12 28.5v2h-4v-112h-14v140h14q4 0 6 -2l2 -2v-7l49 -105q0 -4 2 -4l1 2v4q0 2 8 6l41 97q2 7 3 7t1 2zM1480 759h-22v-104q0 -4 -2 -8q-1 -7 -10 -12q0 -2 -4 -3.5t-6 -6.5
l-9 -2h-9q-7 0 -13 2q-5 5 -8.5 6.5t-5.5 3.5l-11 12q0 3 -1 7.5t-1 11.5v93h-20v-93q0 -7 1 -11.5t1 -7.5q0 -8 6 -14q3 -8 10 -12q2 -4 4.5 -6.5t8.5 -4.5q2 -2 6.5 -3t7.5 -3q4 0 7 -1.5t8 -1.5t8.5 1.5t11.5 1.5q2 2 5 3t7 3q3 2 6 4.5t6 6.5q3 2 5 5.5t7 6.5q0 4 3 7
t3 7v112zM664 632q2 5 3 8t1 8q0 12 -5.5 20t-12.5 14q-2 0 -3.5 2t-5.5 4l-4 2h-4q-1 0 -1 4q-8 0 -9 1q-8 2 -9.5 3t-5.5 3q-6 5 -9 5q-3 4 -3 6v15q0 1 1.5 2.5t1.5 3.5q2 0 4.5 1t4.5 1q6 2 5 2h10q2 -2 4 -2q7 0 8 -4q1 -3 4 -3h2q9 0 14 5l4 2q0 2 -2 4l-5 4
q-2 1 -4.5 4t-6.5 5q-2 0 -4 2.5t-5 4.5q-5 0 -7 0.5t-4 0.5q-7 0 -12 -0.5t-8 -0.5q-5 -2 -7 -4.5t-6 -4.5q-2 -6 -5.5 -8.5t-8.5 -6.5q0 -4 -2 -7t-2 -9t4 -18l12 -11q2 -2 6 -5t7 -3q5 -2 8 -4t7 -2q1 -2 6 -2t7 -2l6 -2q2 0 4 -2t2 -3t2 -6q2 -2 2 -7v-9q0 -2 -2 -4
t-2 -4t-2 -3q-2 -5 -6 -6l-4 -1q-4 0 -8 -1t-5 -1q-4 0 -7 1t-6 1q-2 0 -3.5 1t-1.5 6l-4 1q-4 4 -11 4h-7l-4 -2l-5 -2q0 -3 3 -3q0 -3 2 -5q0 -4 4 -4v-6h5q7 -7 16 -9t19 -2h10q5 0 11 2q4 2 8.5 4t6.5 5q13 5 14 17zM1741 316h-18v140h20q3 0 4 -4l74 -104q2 0 2 -5
l2 -1v114h14v-140h-12l-82 114v4h-4v-118zM1596 632q9 7 9 16q0 12 -5.5 20t-12.5 14q-6 4 -6 6h-4l-4 2h-3q-4 0 -5 4h-4q-2 0 -5 1q-2 2 -4 3t-7 3l-7 5q-2 1 -3 2l-2 2l-1 2q0 1 -1 3t-1 4q0 4 4 8q0 2 4 6q2 0 3 1t4 1q2 2 11 2l4 -1q2 -1 5 -1q3 -3 8 -4q6 -3 8 -3
q6 0 8 5l5 2q0 2 -2.5 4t-4.5 4q0 1 -3 4l-5 5q-3 0 -5.5 2.5t-6.5 4.5h-6l-5 1q-6 0 -10 -0.5t-8 -0.5l-13 -9l-7 -8.5t-6 -6.5q-1 -4 -3 -7t-2 -9q0 -4 2 -7.5t3 -10.5l10 -11q5 -2 7.5 -5t6.5 -3q4 -2 7.5 -4t6.5 -2q4 -2 7 -2t6 -2q6 0 10 -4l4 -3q2 -2 2 -6q2 -2 2 -6
v-9q0 -3 -2 -5q0 -6 -6 -7q-6 -5 -7 -6t-3 -1q-7 0 -8 -1t-5 -1q-3 0 -6.5 1t-5.5 1q-2 1 -4 3l-4 4l-2 1q-5 4 -10 4h-7q-2 0 -4 -2l-6 -2q2 -1 2 -2t2 -1q0 -3 1 -4l3 -3v-2q6 -6 9 -6q7 -7 14.5 -9t17.5 -2h12q3 0 11 2q3 2 6.5 4t7.5 5l5 8q3 3 4 9zM78 350q-6 6 -7 17
l-3 10q-1 3 -1 10t4 16l2 10t5 10l4 6l5 7q2 2 6.5 4.5t6.5 4.5q6 7 11 8t9 3q3 0 8 1.5t10 1.5q7 0 14.5 -1.5t13.5 -5.5q8 -2 12.5 -6.5t8.5 -9.5q-2 -2 -4 -2v-4h-13q-4 2 -7 5t-7 3h-36l-22 -12q-4 -3 -7.5 -7.5t-4.5 -10.5q-2 -7 -3 -13t-1 -8q0 -9 4 -13q0 -5 0.5 -10
t0.5 -8l5 -4q4 -1 6 -7l7 -4q3 -1 8 -1q3 -4 5.5 -5t6.5 -3h33q2 2 7 3t9 5v29h-14v2q-2 0 -3 1.5t-3 3.5h-2q-1 1 -1 3v4h36v-51q-2 -5 -3.5 -6t-5.5 -8h-12q-8 -2 -12 -2h-34q-4 0 -9 3.5l-11 7.5q-2 0 -6.5 2.5t-6.5 6.5l-5 6.5t-4 7.5zM240 438v-44h56v-15h-56v-47h67
v-16h-84v140h84v-18h-67zM1171 438v-44h60v-15h-60v-47h68v-16h-84v140h84v-18h-68zM2375 759h-20q-3 0 -8 -5q-6 -5 -6 -10l-37 -47h-2q0 -2 -2 -2v2l-39 47q-1 7 -4 10q-5 5 -11 5h-18l58 -77v-2q0 -2 2 -2l2 -2v-72h21v70q2 0 2 2l2 4v2zM641 456v-85q0 -7 2 -10t5 -5
q0 -6 3.5 -9.5t5.5 -4.5q0 -2 4.5 -4t6.5 -4q6 -2 8 -2h16q1 0 5 2l9 4q2 1 3.5 2t3.5 2q3 1 8 14q4 3 4 15v85h14v-85q0 -12 -4 -23t-12 -16q-2 -5 -6.5 -9.5t-8.5 -4.5q-8 -1 -13.5 -1.5t-10.5 -0.5t-11 0.5t-14 1.5q-2 0 -6.5 4.5l-9.5 9.5l-10 16q-1 6 -3.5 11t-2.5 12
v85h14zM2253 625h-69v134h-21v-155h90v21zM1271 625h-67v134h-20v-155h87v21zM1452 336q1 2 2 3.5t2 3.5q2 2 3 6.5t1 6.5q0 9 -2 11t-3 4.5t-3 4.5q-1 1 -8 3q-4 0 -6 2t-6 2q-8 0 -14 6q-9 0 -13 7q-2 0 -3.5 3.5t-3.5 7.5v22q0 1 2 7q0 8 7 9l6 7q2 1 3.5 2t3.5 2
q5 0 7.5 1.5t8.5 1.5l6 -2l4 -1q4 0 5 -1t5 -3q2 0 4 -3.5t2 -5.5q4 0 6 -3l1 -2l-2 -2q-6 -2 -9 -2h-6q-2 2 -2 4h-23q-9 0 -9 -2q-5 -7 -5 -8q-4 0 -4 -8q0 -5 4 -6q0 -5 3 -6q0 -1 3 -4l4 -1q4 -4 7.5 -4t7.5 -3q3 0 4 -1l2 -1q4 0 8 -5h4q2 0 4 -2h2l8.5 -7t5.5 -4
q1 -5 1.5 -10.5t0.5 -9.5v-10q0 -5 -4 -6l-5.5 -7.5t-6.5 -5.5q-2 -2 -6 -5.5t-6 -3.5q-6 -2 -10 -2h-9q-11 0 -18.5 1t-12.5 10q-2 0 -3.5 2.5t-5.5 4.5v4l-2 2l4 2h7q1 0 3 -1t4 -1q4 -4 6.5 -5t4.5 -3h22q8 0 12 4zM1069 316l-59 140h6q6 0 8 -2t3 -2t3 -7l43 -103v-2
l2 -6v6l2 2q5 14 13 27.5t12 24.5q4 16 10 28l12 23q0 7 1.5 7t1.5 2q6 2 7 2h11l-15.5 -35t-16.5 -34q-4 -9 -7 -18.5l-6 -18.5l-16 -34h-15zM532 438v-49h60v-12h-60v-61h-16v140h85v-18h-69zM1959 438v-49h54v-12h-54v-61h-16v140h81v-18h-65zM879 456v-124h63v-16h-80
v140h17zM371 316v122h-46v18h105v-18h-47v-122h-12zM784 456v-124h64v-16h-80v140h16zM270 728q2 -1 3 -4t3 -5q4 -4 4 -9v-4q0 -5 -4 -9q-2 -2 -3 -4.5t-3 -2.5l-4 -4l-4 -4h-46v53h36q4 0 10 -2q1 0 4 -3zM1325 389q4 0 6 3q4 4 9 4l2 5q0 2 5 6q0 1 1 4t1 7q0 2 -1 3.5
t-1 4.5q-7 3 -7 8q-5 0 -9 4h-44v-49h38zM2101 392q4 4 7 4q7 7 7 11q2 4 2 11q0 4 -2 8q0 2 -7 8q-3 0 -7 4h-44v-49h36q3 0 8 3zM1525 456v-140h-18v140h18zM518 701l-4 -7q-2 0 -3 -2t-3 -2q-2 -2 -10 -2h-33v47h33q4 0 10 -2q2 0 6 -5q1 -2 2 -3.5t2 -3.5q3 -2 3 -9
q0 -5 -3 -11zM684 129l-27 69q0 2 -1 3l-1 2q0 4 -3 6v-6l-1 -2q-1 -1 -1 -3l-27 -69h61zM1093 727v-4l27 -64h-59l30 64v5zM1755 82q6 0 6 -6q2 -2 2 -5v-4q0 -9 -2 -11q0 -5 -6 -9q-3 0 -6 -4h-17q-4 4 -11 4q0 2 -5 9q-2 2 -2 11v4q0 3 2 5l3 4l2 2q7 4 11 4q1 3 4 3h10
q3 0 3 -3q3 0 6 -4z" />
    <glyph glyph-name="four" unicode="4" 
d="M2478 1093v-587h-2404v587h910q0 30 5.5 58t20.5 53q12 29 26 52.5t37 41.5q39 42 91 62q28 12 55.5 17t56.5 5q33 0 61.5 -6.5t53.5 -15.5q27 -14 50.5 -29.5t45.5 -36.5q35 -38 60 -94q11 -27 15.5 -54t4.5 -53h911zM1030 1194q-20 -49 -20 -101q0 -58 20 -106
q10 -22 24.5 -43.5l29.5 -42.5q20 -17 41.5 -32t45.5 -25q46 -23 105 -23q31 0 56.5 4.5t47.5 16.5q48 19 83 57q22 20 35.5 41l26.5 43q20 54 20 110q0 20 -3.5 43.5t-11.5 47.5q-14 40 -43 72q-14 20 -29.5 33.5t-34.5 25.5l-76 36l-33 6t-38 3q-29 0 -55.5 -5.5
t-51.5 -19.5q-50 -19 -85 -57q-17 -19 -30.5 -39.5t-23.5 -44.5zM1142 936l314 317q62 -80 62 -160q0 -24 -3.5 -45.5t-11.5 -41.5q-8 -19 -17.5 -37t-23.5 -33h-320zM1095 928q-14 17 -25 36.5t-19 39.5q-9 18 -12.5 40.5t-3.5 48.5q0 18 3.5 39t12.5 43q7 35 40 68h318z
M1135 207q2 -4 4.5 -11t5.5 -14q2 -10 2 -14v-32q0 -5 -2 -11l-6 -15l-4 -14q-6 -4 -10.5 -10t-8.5 -10q-6 -5 -11 -10.5t-10 -9.5q-9 -5 -15.5 -7l-12.5 -4q-10 -2 -15 -2h-17q-9 0 -19 2t-23 4q-12 6 -18.5 13t-17.5 14q-15 14 -21 35q-4 10 -6 19.5t-2 23.5v14q0 4 2 14
q4 17 12 25q4 8 7.5 13l7.5 11q9 5 13.5 9.5t10.5 9.5l12 4l17 6q5 0 11.5 1t13.5 1q10 0 17 -1t15 -1q6 -4 12.5 -6t15.5 -4q5 -5 10 -9.5l11 -9.5q4 -6 8.5 -11t10.5 -13zM2195 207q4 -4 6.5 -11t4.5 -14q4 -7 4 -14v-32q0 -7 -4 -11l-4.5 -15t-6.5 -14l-16 -20l-12 -10
l-14 -10q-5 -5 -12 -7t-13 -4q-8 -2 -14 -2h-17q-19 0 -43 6q-8 6 -16 13t-17 14q-8 6 -14 14t-8 21q-6 10 -7.5 19.5t-1.5 23.5q0 8 1 14t1 14l6 14t7 11q2 8 6 13t10 11q3 5 10.5 9.5t12.5 9.5q4 2 11 4t13 6q11 0 17 1t12 1q9 0 17 -1t14 -1q6 -4 13 -6t12 -4l26 -19
q2 -6 8 -11t8 -13zM2433 260l1 1q1 1 6 1h38v-219h-38v160l-5 -9v-8q0 -2 -2 -4l-13 -34.5t-16 -31.5q-6 -20 -12 -36.5t-14 -36.5h-37l-55 139q-6 3 -6 12q0 4 -1 4l-2 2v-157h-42v219h40q5 0 6.5 -1t4.5 -1q2 -2 3 -2t4 -2l7 -4q0 -2 2 -3.5t2 -3.5q4 -18 11 -32.5
l16 -34.5l12 -33q3 -8 6 -15l6 -14v-14q3 0 4 -4q0 4 1 4v14l11 13l44 116q0 1 2 3l2 4q0 1 3 3l3 1q2 2 4 2t4 2zM1329 262h38v-219h-36l-100 146l-4 5v2q-3 4 -3 5q-4 1 -4 4q0 4 -7 4v-166h-37v219h33q4 0 9.5 -1t5.5 -3q3 -2 5 -2t4 -2l22 -33q6 -8 11 -16.5t10 -19.5
q13 -13 24 -29t25 -29q0 -2 1 -4.5t1 -6.5l1 -3q0 -2 1 -3v152zM672 262l94 -219h-25q-9 0 -16 4q-2 2 -4 6.5t-6 8.5l-14 27h-100l-9 -27q0 -6 -4 -6q-2 -5 -4 -5l-3 -4q-2 0 -4.5 -1t-6.5 -1q0 -2 -2 -2h-27l96 219h35zM260 262h139v-39h-100v-49h82v-41h-82v-51h100v-39
h-139v219zM839 659q1 7 2 11t1 10q0 12 -3 21q0 7 -4.5 10.5t-6.5 9.5l-4.5 6.5t-6.5 7.5l-7 6q-2 3 -9 9q-4 2 -8 4.5t-11 4.5q-5 0 -9.5 0.5t-10.5 0.5q-3 0 -8.5 -0.5t-12.5 -0.5q-6 -2 -10 -4.5t-8 -4.5q-4 -6 -7.5 -8.5t-7.5 -6.5q-13 -7 -14 -14q-4 -6 -5 -9.5
l-3 -10.5q-1 -5 -1.5 -10t-0.5 -11t2 -14.5t4 -15.5t6.5 -12.5t11.5 -12.5q10 -15 25 -15q10 -6 29 -6h20q15 5 19 8q11 4 16 13q3 4 6 7.5t5 8.5q2 4 6.5 9t4.5 9zM1966 659v42l-7 20q-5 7 -15 14q-1 4 -6 6.5t-10 8.5l-4 2t-5 2l-7 5q-7 0 -12 0.5t-10 0.5q-6 0 -11 -0.5
t-9 -0.5l-22 -9q-3 -6 -6 -8.5t-7 -6.5q-3 -4 -6.5 -7t-5.5 -7q-2 -6 -4.5 -9.5t-2.5 -10.5q-6 -9 -6 -21q0 -6 3 -14.5t6 -15.5q4 -15 16 -25q7 -15 26 -15q10 -6 29 -6h22q3 2 8 4t8 4l10 6t6 7q11 8 15 16zM74 262h158v-24q0 -4 -1 -6q0 -3 -2 -5l-4 -4l-105 -143h1l2 2
h108v-39h-164v13q0 11 2 13q0 2 5 7v4l2 4q2 2 4 3.5t2 6.5l94 129h-102v39zM1839 203q-4 -4 -7 -10.5l-7 -14.5q-2 -4 -4 -10t-2 -14q0 -7 2 -15l4 -12q2 -7 6 -14.5t8 -10.5q4 -4 9.5 -8.5t14.5 -7.5q12 -4 27 -4q5 0 10 1t12 1q3 2 8 5t8 7q3 0 9 2h13q3 0 9 -2
q2 -1 3.5 -3t3.5 -4l6 -7q-3 -4 -6 -7.5t-7 -7.5l-11.5 -8t-12.5 -6q-7 -4 -11.5 -5t-10.5 -3t-11 -2h-12q-12 0 -23.5 2t-21.5 4q-10 5 -18.5 12t-16.5 15q-16 13 -22 35q-4 10 -7 19.5t-3 23.5q0 10 1 14l4 14q1 7 3 14t6 11q6 8 8.5 13t9.5 11q14 9 25 19q4 2 9.5 4
t18.5 6q5 0 12 1t15 1h13q4 0 10 -2t10.5 -3t11.5 -3q8 -4 12.5 -6.5t11.5 -7.5l13 -17l-6 -8q-2 -1 -5 -4l-2 -4h-15q-7 0 -16 4l-16 10q-10 2 -12 2h-10q-17 0 -27 -7q-17 -1 -24 -13zM1690 151l7 -10.5t3 -7.5q6 -8 6 -20q0 -15 -8 -29l-8 -12l-9 -10q-7 -6 -11.5 -9.5
t-12.5 -5.5q-5 -2 -14 -3t-15 -1q-8 0 -14.5 1l-19.5 3q-5 2 -10 6.5t-11 13.5q-4 1 -6 5l-4 8q-7 2 -7 9l7 5q2 2 4 2h4l2 2h10q4 0 4 -2q7 0 9 -2q7 -5 10.5 -6.5t5.5 -3.5q2 0 6 -1t10 -1h5q2 0 6 2q5 1 8 2t7 3q6 6 7 9q2 4 4 7.5t2 7.5q0 7 -6 10q-5 6 -7 6
q-2 4 -7.5 5t-7.5 2q-6 0 -14 7q-5 0 -9 1t-9 7q-11 3 -14.5 6t-7.5 7q-12 4 -12 14q-6 10 -6 25q0 18 6 26l6 11l8 10q4 2 10 4t13 6q6 0 10.5 1t13.5 1q4 0 8.5 -1t11.5 -1l15 -6q3 -4 6.5 -6.5t7.5 -7.5q4 -2 7.5 -5.5t3.5 -7.5l-7 -4q-4 -2 -7 -4.5t-3 -3.5h-18l-5 1
l-7 5q-2 0 -4 1t-4 1h-17q-2 0 -3 -1t-5 -3q-2 -3 -6 -6q-1 -3 -1 -10q0 -5 1 -5q2 -2 3 -5.5t3 -7.5h6q1 0 5 -2q5 -1 9.5 -3t10.5 -4l9 -2q5 -4 9 -5t9 -5q5 -2 10 -5t8 -8zM1579 336q-12 7 -16 20q-7 17 -7 31v16l11 20l12 13q6 7 12 9q3 7 9.5 8t9.5 3q4 0 8 1.5t10 1.5
q4 0 10.5 -1.5t10.5 -1.5q5 -2 8.5 -3t7.5 -8q2 -2 5.5 -4.5l6.5 -4.5l13 -13l8 -20q0 -4 1 -9t1 -7q0 -6 -1 -14t-5 -17q-5 -13 -17 -20l-9.5 -7.5t-11.5 -10.5q-5 -1 -12 -1.5t-16 -0.5h-15q-4 0 -10 2q-18 7 -24 18zM2284 336l-13.5 -7.5t-11.5 -10.5q-8 -2 -12 -2h-30
q-5 0 -13 2q-7 4 -12.5 8.5t-10.5 9.5q-6 6 -13 20q-2 9 -4.5 17t-2.5 14q0 2 1 7t1 9q3 5 4 10t4 10q2 3 5 6t5 7q6 4 18 9q3 7 8 8t7 3q6 0 9 1.5t10 1.5q2 0 8.5 -1.5t11.5 -1.5q4 -2 7.5 -3t6.5 -8l17 -9q2 -4 4 -7t5 -6q2 -5 4 -9.5t3 -10.5q2 -4 3 -9t1 -7
q0 -6 -1 -14t-5 -17q0 -6 -5 -11zM2166 127q5 12 5 27q0 16 -5 24q-3 9 -8 15.5t-8 9.5q-10 10 -24 13q-4 5 -12 6t-17 1q-12 0 -25 -7q-8 -1 -13 -4t-11 -9q-4 -3 -7.5 -9.5l-8.5 -15.5q0 -4 -1 -10t-1 -14q0 -9 1 -15t1 -12q4 -8 8 -14t8 -11q6 -4 11 -8.5t13 -7.5
q7 -2 14 -3t11 -1q9 0 17 1t12 3q8 3 14 7.5t10 8.5q11 11 16 25zM1104 127q4 11 4 27q0 13 -4 24q-2 9 -6.5 15.5t-13.5 9.5q-2 6 -7.5 9t-11.5 4q-11 7 -30 7q-14 0 -25 -7q-11 -1 -23 -13q-6 -3 -9 -9.5t-5 -15.5q-5 -5 -5 -10v-29q0 -5 5 -12q2 -7 5 -14.5t9 -10.5
q6 -4 11 -8.5t12 -7.5q11 -4 25 -4q19 0 30 4q13 7 19 16q9 3 13.5 10.5t6.5 14.5zM774 262h139v-39h-100v-55h82v-39h-82v-86h-39v219zM570 223h-58v-180h-43v180h-62v39h163v-39zM1188 864q-19 7 -37 19t-35 26h322q-18 -14 -36 -26t-36 -19l-45.5 -11t-44.5 -5
q-25 0 -45.5 5t-42.5 11zM1389 262h165v-39h-65v-180h-39v180h-61v39zM1366 1315q18 -8 36 -20.5t36 -22.5h-325q38 30 75 43q37 18 88 18q48 0 90 -18zM559 604l-47 68q4 0 11 4q8 5 9 10q9 5 9 11v26q0 1 -2 5q-3 10 -11 15q-5 9 -14 9q-2 5 -6.5 6t-9.5 1h-57v-155h24v64
h23l40 -56q1 -4 8 -6q2 -2 3 -2h20zM1169 604l-67 155h-22l-65 -155h11q7 0 9 2q0 2 7 6l11 27h76l13 -27q1 -4 5 -6q2 -2 8 -2h14zM1930 721q3 -2 8 -7.5t6 -12.5q4 -7 4 -21q0 -12 -4 -23q-1 -5 -6 -9.5t-8 -6.5q-5 -4 -9 -6.5t-8 -7.5q-9 -4 -23 -4q-6 0 -12 1t-10 3
q-5 5 -10.5 7.5t-9.5 6.5q-3 2 -6 6.5t-3 9.5q-4 7 -5 12t-1 11q0 10 6 21q0 7 3 12.5t6 7.5q4 4 9.5 7t10.5 5q9 4 22 4q5 0 11.5 -1t11.5 -3zM801 721q7 -2 9.5 -7.5t4.5 -12.5q4 -7 4 -21q0 -11 -4 -23q-2 -5 -4.5 -9.5t-9.5 -6.5q-1 -4 -6 -7l-11 -7q-9 -4 -22 -4
q-11 0 -23 4q-4 5 -9 7.5t-9 6.5q-2 2 -5.5 6.5t-5.5 9.5q-4 12 -4 23q0 12 4 21q2 7 5.5 12.5t5.5 7.5q4 4 9 7t9 5q5 2 12.5 3t10.5 1q13 0 22 -4q8 -2 11.5 -5t5.5 -7zM2126 759h-22v-120q-1 2 -2 5t-3 4l-75 104l-3 7h-24v-155h22v121l2 -2l87 -119h18v155zM2218 332h31
l6 3q3 3 4 5q6 0 14 5q2 5 3 7t4 4q0 3 3 8t3 10v34q-3 6 -7 10.5t-6 7.5q-10 4 -18 12h-43q-6 -4 -9.5 -7t-9.5 -5q-5 -3 -7.5 -7.5t-4.5 -10.5q-1 -4 -1.5 -7t-0.5 -7v-20q0 -13 5 -18q2 -2 4.5 -4t4.5 -7l7 -3q2 -2 4 -2q4 -4 7 -5t7 -3zM296 690q5 12 5 20q0 9 -5 18
q0 2 -5 7l-6 6q-2 3 -5 7t-10 4q-3 5 -8.5 6t-9.5 1h-52v-155h16v59h36q4 0 9.5 0.5t8.5 2.5q10 4 15 10q4 2 7.5 6t3.5 8zM1579 408q-6 -14 -6 -21v-8q0 -4 3 -5q0 -10 5 -18q0 -2 2 -4t4 -7l5 -3q2 -2 11 -2q2 -4 5.5 -5t5.5 -3h27q6 2 9.5 3t6.5 5l6 2l4 3q2 5 4.5 7
t2.5 4q3 3 4 8t3 10q0 2 1 5.5t1 7.5q0 2 -1 8t-5 13q0 6 -4 10.5t-6 7.5q-3 1 -8 6l-10 6h-42q-4 -4 -10 -7l-10 -5l-5 -8q-3 -5 -3 -10zM997 759h-18v-120l-2 4q-2 6 -2 5l-74 104q-5 0 -6 7h-25v-155h21v124h2l2 -1v-4l86 -119h16v155zM2115 381q-5 -1 -8.5 -2t-5.5 -2
l45 -61h-12l-6 2q-4 0 -4 9l-39 50h-28v-61h-15v140h57q3 0 9 -2q2 -2 6.5 -5.5t5.5 -5.5q4 -2 5 -5.5t7 -7.5v-27q-4 -4 -5 -8t-3 -6zM1342 381q-3 -3 -11 -4l47 -61h-15q-3 0 -3 2q-6 0 -6 9l-39 50h-28v-61h-13v140h56q2 0 6 -2q10 -1 18 -11q0 -2 3 -5.5t3 -7.5
q2 -2 2 -6v-14q0 -1 -2 -7q0 -10 -4 -14l-5 -4q-3 -3 -9 -4zM412 759h-98v-155h98v21h-74v47h58v18h-58v45h74v24zM1721 759h-93v-155h93v21h-69v47h58v18h-58v45h69v24zM2460 454q6 2 5 2h13v-140h-12v114l-2 -2v-2q-4 -8 -6.5 -17.5t-8.5 -14.5q-5 -7 -7 -12.5t-7 -14.5
q-2 -9 -3 -15.5t-5 -9.5q-3 -8 -6.5 -12.5t-5.5 -13.5h-15q-10 14 -15 27t-10 28q-4 12 -12 26.5t-12 28.5v2h-4v-112h-14v140h14q4 0 6 -2l2 -2v-7l49 -105q0 -4 2 -4l1 2v4q0 2 8 6l41 97q2 7 3 7t1 2zM1480 759h-22v-104q0 -4 -2 -8q-1 -7 -10 -12q0 -2 -4 -3.5t-6 -6.5
l-9 -2h-9q-7 0 -13 2q-5 5 -8.5 6.5t-5.5 3.5l-11 12q0 3 -1 7.5t-1 11.5v93h-20v-93q0 -7 1 -11.5t1 -7.5q0 -8 6 -14q3 -8 10 -12q2 -4 4.5 -6.5t8.5 -4.5q2 -2 6.5 -3t7.5 -3q4 0 7 -1.5t8 -1.5t8.5 1.5t11.5 1.5q2 2 5 3t7 3q3 2 6 4.5t6 6.5q3 2 5 5.5t7 6.5q0 4 3 7
t3 7v112zM664 632q2 5 3 8t1 8q0 12 -5.5 20t-12.5 14q-2 0 -3.5 2t-5.5 4l-4 2h-4q-1 0 -1 4q-8 0 -9 1q-8 2 -9.5 3t-5.5 3q-6 5 -9 5q-3 4 -3 6v15q0 1 1.5 2.5t1.5 3.5q2 0 4.5 1t4.5 1q6 2 5 2h10q2 -2 4 -2q7 0 8 -4q1 -3 4 -3h2q9 0 14 5l4 2q0 2 -2 4l-5 4
q-2 1 -4.5 4t-6.5 5q-2 0 -4 2.5t-5 4.5q-5 0 -7 0.5t-4 0.5q-7 0 -12 -0.5t-8 -0.5q-5 -2 -7 -4.5t-6 -4.5q-2 -6 -5.5 -8.5t-8.5 -6.5q0 -4 -2 -7t-2 -9t4 -18l12 -11q2 -2 6 -5t7 -3q5 -2 8 -4t7 -2q1 -2 6 -2t7 -2l6 -2q2 0 4 -2t2 -3t2 -6q2 -2 2 -7v-9q0 -2 -2 -4
t-2 -4t-2 -3q-2 -5 -6 -6l-4 -1q-4 0 -8 -1t-5 -1q-4 0 -7 1t-6 1q-2 0 -3.5 1t-1.5 6l-4 1q-4 4 -11 4h-7l-4 -2l-5 -2q0 -3 3 -3q0 -3 2 -5q0 -4 4 -4v-6h5q7 -7 16 -9t19 -2h10q5 0 11 2q4 2 8.5 4t6.5 5q13 5 14 17zM1741 316h-18v140h20q3 0 4 -4l74 -104q2 0 2 -5
l2 -1v114h14v-140h-12l-82 114v4h-4v-118zM1596 632q9 7 9 16q0 12 -5.5 20t-12.5 14q-6 4 -6 6h-4l-4 2h-3q-4 0 -5 4h-4q-2 0 -5 1q-2 2 -4 3t-7 3l-7 5q-2 1 -3 2l-2 2l-1 2q0 1 -1 3t-1 4q0 4 4 8q0 2 4 6q2 0 3 1t4 1q2 2 11 2l4 -1q2 -1 5 -1q3 -3 8 -4q6 -3 8 -3
q6 0 8 5l5 2q0 2 -2.5 4t-4.5 4q0 1 -3 4l-5 5q-3 0 -5.5 2.5t-6.5 4.5h-6l-5 1q-6 0 -10 -0.5t-8 -0.5l-13 -9l-7 -8.5t-6 -6.5q-1 -4 -3 -7t-2 -9q0 -4 2 -7.5t3 -10.5l10 -11q5 -2 7.5 -5t6.5 -3q4 -2 7.5 -4t6.5 -2q4 -2 7 -2t6 -2q6 0 10 -4l4 -3q2 -2 2 -6q2 -2 2 -6
v-9q0 -3 -2 -5q0 -6 -6 -7q-6 -5 -7 -6t-3 -1q-7 0 -8 -1t-5 -1q-3 0 -6.5 1t-5.5 1q-2 1 -4 3l-4 4l-2 1q-5 4 -10 4h-7q-2 0 -4 -2l-6 -2q2 -1 2 -2t2 -1q0 -3 1 -4l3 -3v-2q6 -6 9 -6q7 -7 14.5 -9t17.5 -2h12q3 0 11 2q3 2 6.5 4t7.5 5l5 8q3 3 4 9zM78 350q-6 6 -7 17
l-3 10q-1 3 -1 10t4 16l2 10t5 10l4 6l5 7q2 2 6.5 4.5t6.5 4.5q6 7 11 8t9 3q3 0 8 1.5t10 1.5q7 0 14.5 -1.5t13.5 -5.5q8 -2 12.5 -6.5t8.5 -9.5q-2 -2 -4 -2v-4h-13q-4 2 -7 5t-7 3h-36l-22 -12q-4 -3 -7.5 -7.5t-4.5 -10.5q-2 -7 -3 -13t-1 -8q0 -9 4 -13q0 -5 0.5 -10
t0.5 -8l5 -4q4 -1 6 -7l7 -4q3 -1 8 -1q3 -4 5.5 -5t6.5 -3h33q2 2 7 3t9 5v29h-14v2q-2 0 -3 1.5t-3 3.5h-2q-1 1 -1 3v4h36v-51q-2 -5 -3.5 -6t-5.5 -8h-12q-8 -2 -12 -2h-34q-4 0 -9 3.5l-11 7.5q-2 0 -6.5 2.5t-6.5 6.5l-5 6.5t-4 7.5zM240 438v-44h56v-15h-56v-47h67
v-16h-84v140h84v-18h-67zM1171 438v-44h60v-15h-60v-47h68v-16h-84v140h84v-18h-68zM2375 759h-20q-3 0 -8 -5q-6 -5 -6 -10l-37 -47h-2q0 -2 -2 -2v2l-39 47q-1 7 -4 10q-5 5 -11 5h-18l58 -77v-2q0 -2 2 -2l2 -2v-72h21v70q2 0 2 2l2 4v2zM641 456v-85q0 -7 2 -10t5 -5
q0 -6 3.5 -9.5t5.5 -4.5q0 -2 4.5 -4t6.5 -4q6 -2 8 -2h16q1 0 5 2l9 4q2 1 3.5 2t3.5 2q3 1 8 14q4 3 4 15v85h14v-85q0 -12 -4 -23t-12 -16q-2 -5 -6.5 -9.5t-8.5 -4.5q-8 -1 -13.5 -1.5t-10.5 -0.5t-11 0.5t-14 1.5q-2 0 -6.5 4.5l-9.5 9.5l-10 16q-1 6 -3.5 11t-2.5 12
v85h14zM2253 625h-69v134h-21v-155h90v21zM1271 625h-67v134h-20v-155h87v21zM1452 336q1 2 2 3.5t2 3.5q2 2 3 6.5t1 6.5q0 9 -2 11t-3 4.5t-3 4.5q-1 1 -8 3q-4 0 -6 2t-6 2q-8 0 -14 6q-9 0 -13 7q-2 0 -3.5 3.5t-3.5 7.5v22q0 1 2 7q0 8 7 9l6 7q2 1 3.5 2t3.5 2
q5 0 7.5 1.5t8.5 1.5l6 -2l4 -1q4 0 5 -1t5 -3q2 0 4 -3.5t2 -5.5q4 0 6 -3l1 -2l-2 -2q-6 -2 -9 -2h-6q-2 2 -2 4h-23q-9 0 -9 -2q-5 -7 -5 -8q-4 0 -4 -8q0 -5 4 -6q0 -5 3 -6q0 -1 3 -4l4 -1q4 -4 7.5 -4t7.5 -3q3 0 4 -1l2 -1q4 0 8 -5h4q2 0 4 -2h2l8.5 -7t5.5 -4
q1 -5 1.5 -10.5t0.5 -9.5v-10q0 -5 -4 -6l-5.5 -7.5t-6.5 -5.5q-2 -2 -6 -5.5t-6 -3.5q-6 -2 -10 -2h-9q-11 0 -18.5 1t-12.5 10q-2 0 -3.5 2.5t-5.5 4.5v4l-2 2l4 2h7q1 0 3 -1t4 -1q4 -4 6.5 -5t4.5 -3h22q8 0 12 4zM1069 316l-59 140h6q6 0 8 -2t3 -2t3 -7l43 -103v-2
l2 -6v6l2 2q5 14 13 27.5t12 24.5q4 16 10 28l12 23q0 7 1.5 7t1.5 2q6 2 7 2h11l-15.5 -35t-16.5 -34q-4 -9 -7 -18.5l-6 -18.5l-16 -34h-15zM532 438v-49h60v-12h-60v-61h-16v140h85v-18h-69zM1959 438v-49h54v-12h-54v-61h-16v140h81v-18h-65zM879 456v-124h63v-16h-80
v140h17zM371 316v122h-46v18h105v-18h-47v-122h-12zM784 456v-124h64v-16h-80v140h16zM270 728q2 -1 3 -4t3 -5q4 -4 4 -9v-4q0 -5 -4 -9q-2 -2 -3 -4.5t-3 -2.5l-4 -4l-4 -4h-46v53h36q4 0 10 -2q1 0 4 -3zM1325 389q4 0 6 3q4 4 9 4l2 5q0 2 5 6q0 1 1 4t1 7q0 2 -1 3.5
t-1 4.5q-7 3 -7 8q-5 0 -9 4h-44v-49h38zM2101 392q4 4 7 4q7 7 7 11q2 4 2 11q0 4 -2 8q0 2 -7 8q-3 0 -7 4h-44v-49h36q3 0 8 3zM1525 456v-140h-18v140h18zM518 701l-4 -7q-2 0 -3 -2t-3 -2q-2 -2 -10 -2h-33v47h33q4 0 10 -2q2 0 6 -5q1 -2 2 -3.5t2 -3.5q3 -2 3 -9
q0 -5 -3 -11zM684 129l-27 69q0 2 -1 3l-1 2q0 4 -3 6v-6l-1 -2q-1 -1 -1 -3l-27 -69h61zM1093 727v-4l27 -64h-59l30 64v5zM1755 82q6 0 6 -6q2 -2 2 -5v-4q0 -9 -2 -11q0 -5 -6 -9q-3 0 -6 -4h-17q-4 4 -11 4q0 2 -5 9q-2 2 -2 11v4q0 3 2 5l3 4l2 2q7 4 11 4q1 3 4 3h10
q3 0 3 -3q3 0 6 -4z" />
    <glyph glyph-name="five" unicode="5" 
d="M2478 1093v-587h-2404v587h910q0 30 5.5 58t20.5 53q12 29 26 52.5t37 41.5q39 42 91 62q28 12 55.5 17t56.5 5q33 0 61.5 -6.5t53.5 -15.5q27 -14 50.5 -29.5t45.5 -36.5q35 -38 60 -94q11 -27 15.5 -54t4.5 -53h911zM1030 1194q-20 -49 -20 -101q0 -58 20 -106
q10 -22 24.5 -43.5l29.5 -42.5q20 -17 41.5 -32t45.5 -25q46 -23 105 -23q31 0 56.5 4.5t47.5 16.5q48 19 83 57q22 20 35.5 41l26.5 43q20 54 20 110q0 20 -3.5 43.5t-11.5 47.5q-14 40 -43 72q-14 20 -29.5 33.5t-34.5 25.5l-76 36l-33 6t-38 3q-29 0 -55.5 -5.5
t-51.5 -19.5q-50 -19 -85 -57q-17 -19 -30.5 -39.5t-23.5 -44.5zM1142 936l314 317q62 -80 62 -160q0 -24 -3.5 -45.5t-11.5 -41.5q-8 -19 -17.5 -37t-23.5 -33h-320zM1095 928q-14 17 -25 36.5t-19 39.5q-9 18 -12.5 40.5t-3.5 48.5q0 18 3.5 39t12.5 43q7 35 40 68h318z
M1135 207q2 -4 4.5 -11t5.5 -14q2 -10 2 -14v-32q0 -5 -2 -11l-6 -15l-4 -14q-6 -4 -10.5 -10t-8.5 -10q-6 -5 -11 -10.5t-10 -9.5q-9 -5 -15.5 -7l-12.5 -4q-10 -2 -15 -2h-17q-9 0 -19 2t-23 4q-12 6 -18.5 13t-17.5 14q-15 14 -21 35q-4 10 -6 19.5t-2 23.5v14q0 4 2 14
q4 17 12 25q4 8 7.5 13l7.5 11q9 5 13.5 9.5t10.5 9.5l12 4l17 6q5 0 11.5 1t13.5 1q10 0 17 -1t15 -1q6 -4 12.5 -6t15.5 -4q5 -5 10 -9.5l11 -9.5q4 -6 8.5 -11t10.5 -13zM2195 207q4 -4 6.5 -11t4.5 -14q4 -7 4 -14v-32q0 -7 -4 -11l-4.5 -15t-6.5 -14l-16 -20l-12 -10
l-14 -10q-5 -5 -12 -7t-13 -4q-8 -2 -14 -2h-17q-19 0 -43 6q-8 6 -16 13t-17 14q-8 6 -14 14t-8 21q-6 10 -7.5 19.5t-1.5 23.5q0 8 1 14t1 14l6 14t7 11q2 8 6 13t10 11q3 5 10.5 9.5t12.5 9.5q4 2 11 4t13 6q11 0 17 1t12 1q9 0 17 -1t14 -1q6 -4 13 -6t12 -4l26 -19
q2 -6 8 -11t8 -13zM2433 260l1 1q1 1 6 1h38v-219h-38v160l-5 -9v-8q0 -2 -2 -4l-13 -34.5t-16 -31.5q-6 -20 -12 -36.5t-14 -36.5h-37l-55 139q-6 3 -6 12q0 4 -1 4l-2 2v-157h-42v219h40q5 0 6.5 -1t4.5 -1q2 -2 3 -2t4 -2l7 -4q0 -2 2 -3.5t2 -3.5q4 -18 11 -32.5
l16 -34.5l12 -33q3 -8 6 -15l6 -14v-14q3 0 4 -4q0 4 1 4v14l11 13l44 116q0 1 2 3l2 4q0 1 3 3l3 1q2 2 4 2t4 2zM1329 262h38v-219h-36l-100 146l-4 5v2q-3 4 -3 5q-4 1 -4 4q0 4 -7 4v-166h-37v219h33q4 0 9.5 -1t5.5 -3q3 -2 5 -2t4 -2l22 -33q6 -8 11 -16.5t10 -19.5
q13 -13 24 -29t25 -29q0 -2 1 -4.5t1 -6.5l1 -3q0 -2 1 -3v152zM672 262l94 -219h-25q-9 0 -16 4q-2 2 -4 6.5t-6 8.5l-14 27h-100l-9 -27q0 -6 -4 -6q-2 -5 -4 -5l-3 -4q-2 0 -4.5 -1t-6.5 -1q0 -2 -2 -2h-27l96 219h35zM260 262h139v-39h-100v-49h82v-41h-82v-51h100v-39
h-139v219zM839 659q1 7 2 11t1 10q0 12 -3 21q0 7 -4.5 10.5t-6.5 9.5l-4.5 6.5t-6.5 7.5l-7 6q-2 3 -9 9q-4 2 -8 4.5t-11 4.5q-5 0 -9.5 0.5t-10.5 0.5q-3 0 -8.5 -0.5t-12.5 -0.5q-6 -2 -10 -4.5t-8 -4.5q-4 -6 -7.5 -8.5t-7.5 -6.5q-13 -7 -14 -14q-4 -6 -5 -9.5
l-3 -10.5q-1 -5 -1.5 -10t-0.5 -11t2 -14.5t4 -15.5t6.5 -12.5t11.5 -12.5q10 -15 25 -15q10 -6 29 -6h20q15 5 19 8q11 4 16 13q3 4 6 7.5t5 8.5q2 4 6.5 9t4.5 9zM1966 659v42l-7 20q-5 7 -15 14q-1 4 -6 6.5t-10 8.5l-4 2t-5 2l-7 5q-7 0 -12 0.5t-10 0.5q-6 0 -11 -0.5
t-9 -0.5l-22 -9q-3 -6 -6 -8.5t-7 -6.5q-3 -4 -6.5 -7t-5.5 -7q-2 -6 -4.5 -9.5t-2.5 -10.5q-6 -9 -6 -21q0 -6 3 -14.5t6 -15.5q4 -15 16 -25q7 -15 26 -15q10 -6 29 -6h22q3 2 8 4t8 4l10 6t6 7q11 8 15 16zM74 262h158v-24q0 -4 -1 -6q0 -3 -2 -5l-4 -4l-105 -143h1l2 2
h108v-39h-164v13q0 11 2 13q0 2 5 7v4l2 4q2 2 4 3.5t2 6.5l94 129h-102v39zM1839 203q-4 -4 -7 -10.5l-7 -14.5q-2 -4 -4 -10t-2 -14q0 -7 2 -15l4 -12q2 -7 6 -14.5t8 -10.5q4 -4 9.5 -8.5t14.5 -7.5q12 -4 27 -4q5 0 10 1t12 1q3 2 8 5t8 7q3 0 9 2h13q3 0 9 -2
q2 -1 3.5 -3t3.5 -4l6 -7q-3 -4 -6 -7.5t-7 -7.5l-11.5 -8t-12.5 -6q-7 -4 -11.5 -5t-10.5 -3t-11 -2h-12q-12 0 -23.5 2t-21.5 4q-10 5 -18.5 12t-16.5 15q-16 13 -22 35q-4 10 -7 19.5t-3 23.5q0 10 1 14l4 14q1 7 3 14t6 11q6 8 8.5 13t9.5 11q14 9 25 19q4 2 9.5 4
t18.5 6q5 0 12 1t15 1h13q4 0 10 -2t10.5 -3t11.5 -3q8 -4 12.5 -6.5t11.5 -7.5l13 -17l-6 -8q-2 -1 -5 -4l-2 -4h-15q-7 0 -16 4l-16 10q-10 2 -12 2h-10q-17 0 -27 -7q-17 -1 -24 -13zM1690 151l7 -10.5t3 -7.5q6 -8 6 -20q0 -15 -8 -29l-8 -12l-9 -10q-7 -6 -11.5 -9.5
t-12.5 -5.5q-5 -2 -14 -3t-15 -1q-8 0 -14.5 1l-19.5 3q-5 2 -10 6.5t-11 13.5q-4 1 -6 5l-4 8q-7 2 -7 9l7 5q2 2 4 2h4l2 2h10q4 0 4 -2q7 0 9 -2q7 -5 10.5 -6.5t5.5 -3.5q2 0 6 -1t10 -1h5q2 0 6 2q5 1 8 2t7 3q6 6 7 9q2 4 4 7.5t2 7.5q0 7 -6 10q-5 6 -7 6
q-2 4 -7.5 5t-7.5 2q-6 0 -14 7q-5 0 -9 1t-9 7q-11 3 -14.5 6t-7.5 7q-12 4 -12 14q-6 10 -6 25q0 18 6 26l6 11l8 10q4 2 10 4t13 6q6 0 10.5 1t13.5 1q4 0 8.5 -1t11.5 -1l15 -6q3 -4 6.5 -6.5t7.5 -7.5q4 -2 7.5 -5.5t3.5 -7.5l-7 -4q-4 -2 -7 -4.5t-3 -3.5h-18l-5 1
l-7 5q-2 0 -4 1t-4 1h-17q-2 0 -3 -1t-5 -3q-2 -3 -6 -6q-1 -3 -1 -10q0 -5 1 -5q2 -2 3 -5.5t3 -7.5h6q1 0 5 -2q5 -1 9.5 -3t10.5 -4l9 -2q5 -4 9 -5t9 -5q5 -2 10 -5t8 -8zM1579 336q-12 7 -16 20q-7 17 -7 31v16l11 20l12 13q6 7 12 9q3 7 9.5 8t9.5 3q4 0 8 1.5t10 1.5
q4 0 10.5 -1.5t10.5 -1.5q5 -2 8.5 -3t7.5 -8q2 -2 5.5 -4.5l6.5 -4.5l13 -13l8 -20q0 -4 1 -9t1 -7q0 -6 -1 -14t-5 -17q-5 -13 -17 -20l-9.5 -7.5t-11.5 -10.5q-5 -1 -12 -1.5t-16 -0.5h-15q-4 0 -10 2q-18 7 -24 18zM2284 336l-13.5 -7.5t-11.5 -10.5q-8 -2 -12 -2h-30
q-5 0 -13 2q-7 4 -12.5 8.5t-10.5 9.5q-6 6 -13 20q-2 9 -4.5 17t-2.5 14q0 2 1 7t1 9q3 5 4 10t4 10q2 3 5 6t5 7q6 4 18 9q3 7 8 8t7 3q6 0 9 1.5t10 1.5q2 0 8.5 -1.5t11.5 -1.5q4 -2 7.5 -3t6.5 -8l17 -9q2 -4 4 -7t5 -6q2 -5 4 -9.5t3 -10.5q2 -4 3 -9t1 -7
q0 -6 -1 -14t-5 -17q0 -6 -5 -11zM2166 127q5 12 5 27q0 16 -5 24q-3 9 -8 15.5t-8 9.5q-10 10 -24 13q-4 5 -12 6t-17 1q-12 0 -25 -7q-8 -1 -13 -4t-11 -9q-4 -3 -7.5 -9.5l-8.5 -15.5q0 -4 -1 -10t-1 -14q0 -9 1 -15t1 -12q4 -8 8 -14t8 -11q6 -4 11 -8.5t13 -7.5
q7 -2 14 -3t11 -1q9 0 17 1t12 3q8 3 14 7.5t10 8.5q11 11 16 25zM1104 127q4 11 4 27q0 13 -4 24q-2 9 -6.5 15.5t-13.5 9.5q-2 6 -7.5 9t-11.5 4q-11 7 -30 7q-14 0 -25 -7q-11 -1 -23 -13q-6 -3 -9 -9.5t-5 -15.5q-5 -5 -5 -10v-29q0 -5 5 -12q2 -7 5 -14.5t9 -10.5
q6 -4 11 -8.5t12 -7.5q11 -4 25 -4q19 0 30 4q13 7 19 16q9 3 13.5 10.5t6.5 14.5zM774 262h139v-39h-100v-55h82v-39h-82v-86h-39v219zM570 223h-58v-180h-43v180h-62v39h163v-39zM1188 864q-19 7 -37 19t-35 26h322q-18 -14 -36 -26t-36 -19l-45.5 -11t-44.5 -5
q-25 0 -45.5 5t-42.5 11zM1389 262h165v-39h-65v-180h-39v180h-61v39zM1366 1315q18 -8 36 -20.5t36 -22.5h-325q38 30 75 43q37 18 88 18q48 0 90 -18zM559 604l-47 68q4 0 11 4q8 5 9 10q9 5 9 11v26q0 1 -2 5q-3 10 -11 15q-5 9 -14 9q-2 5 -6.5 6t-9.5 1h-57v-155h24v64
h23l40 -56q1 -4 8 -6q2 -2 3 -2h20zM1169 604l-67 155h-22l-65 -155h11q7 0 9 2q0 2 7 6l11 27h76l13 -27q1 -4 5 -6q2 -2 8 -2h14zM1930 721q3 -2 8 -7.5t6 -12.5q4 -7 4 -21q0 -12 -4 -23q-1 -5 -6 -9.5t-8 -6.5q-5 -4 -9 -6.5t-8 -7.5q-9 -4 -23 -4q-6 0 -12 1t-10 3
q-5 5 -10.5 7.5t-9.5 6.5q-3 2 -6 6.5t-3 9.5q-4 7 -5 12t-1 11q0 10 6 21q0 7 3 12.5t6 7.5q4 4 9.5 7t10.5 5q9 4 22 4q5 0 11.5 -1t11.5 -3zM801 721q7 -2 9.5 -7.5t4.5 -12.5q4 -7 4 -21q0 -11 -4 -23q-2 -5 -4.5 -9.5t-9.5 -6.5q-1 -4 -6 -7l-11 -7q-9 -4 -22 -4
q-11 0 -23 4q-4 5 -9 7.5t-9 6.5q-2 2 -5.5 6.5t-5.5 9.5q-4 12 -4 23q0 12 4 21q2 7 5.5 12.5t5.5 7.5q4 4 9 7t9 5q5 2 12.5 3t10.5 1q13 0 22 -4q8 -2 11.5 -5t5.5 -7zM2126 759h-22v-120q-1 2 -2 5t-3 4l-75 104l-3 7h-24v-155h22v121l2 -2l87 -119h18v155zM2218 332h31
l6 3q3 3 4 5q6 0 14 5q2 5 3 7t4 4q0 3 3 8t3 10v34q-3 6 -7 10.5t-6 7.5q-10 4 -18 12h-43q-6 -4 -9.5 -7t-9.5 -5q-5 -3 -7.5 -7.5t-4.5 -10.5q-1 -4 -1.5 -7t-0.5 -7v-20q0 -13 5 -18q2 -2 4.5 -4t4.5 -7l7 -3q2 -2 4 -2q4 -4 7 -5t7 -3zM296 690q5 12 5 20q0 9 -5 18
q0 2 -5 7l-6 6q-2 3 -5 7t-10 4q-3 5 -8.5 6t-9.5 1h-52v-155h16v59h36q4 0 9.5 0.5t8.5 2.5q10 4 15 10q4 2 7.5 6t3.5 8zM1579 408q-6 -14 -6 -21v-8q0 -4 3 -5q0 -10 5 -18q0 -2 2 -4t4 -7l5 -3q2 -2 11 -2q2 -4 5.5 -5t5.5 -3h27q6 2 9.5 3t6.5 5l6 2l4 3q2 5 4.5 7
t2.5 4q3 3 4 8t3 10q0 2 1 5.5t1 7.5q0 2 -1 8t-5 13q0 6 -4 10.5t-6 7.5q-3 1 -8 6l-10 6h-42q-4 -4 -10 -7l-10 -5l-5 -8q-3 -5 -3 -10zM997 759h-18v-120l-2 4q-2 6 -2 5l-74 104q-5 0 -6 7h-25v-155h21v124h2l2 -1v-4l86 -119h16v155zM2115 381q-5 -1 -8.5 -2t-5.5 -2
l45 -61h-12l-6 2q-4 0 -4 9l-39 50h-28v-61h-15v140h57q3 0 9 -2q2 -2 6.5 -5.5t5.5 -5.5q4 -2 5 -5.5t7 -7.5v-27q-4 -4 -5 -8t-3 -6zM1342 381q-3 -3 -11 -4l47 -61h-15q-3 0 -3 2q-6 0 -6 9l-39 50h-28v-61h-13v140h56q2 0 6 -2q10 -1 18 -11q0 -2 3 -5.5t3 -7.5
q2 -2 2 -6v-14q0 -1 -2 -7q0 -10 -4 -14l-5 -4q-3 -3 -9 -4zM412 759h-98v-155h98v21h-74v47h58v18h-58v45h74v24zM1721 759h-93v-155h93v21h-69v47h58v18h-58v45h69v24zM2460 454q6 2 5 2h13v-140h-12v114l-2 -2v-2q-4 -8 -6.5 -17.5t-8.5 -14.5q-5 -7 -7 -12.5t-7 -14.5
q-2 -9 -3 -15.5t-5 -9.5q-3 -8 -6.5 -12.5t-5.5 -13.5h-15q-10 14 -15 27t-10 28q-4 12 -12 26.5t-12 28.5v2h-4v-112h-14v140h14q4 0 6 -2l2 -2v-7l49 -105q0 -4 2 -4l1 2v4q0 2 8 6l41 97q2 7 3 7t1 2zM1480 759h-22v-104q0 -4 -2 -8q-1 -7 -10 -12q0 -2 -4 -3.5t-6 -6.5
l-9 -2h-9q-7 0 -13 2q-5 5 -8.5 6.5t-5.5 3.5l-11 12q0 3 -1 7.5t-1 11.5v93h-20v-93q0 -7 1 -11.5t1 -7.5q0 -8 6 -14q3 -8 10 -12q2 -4 4.5 -6.5t8.5 -4.5q2 -2 6.5 -3t7.5 -3q4 0 7 -1.5t8 -1.5t8.5 1.5t11.5 1.5q2 2 5 3t7 3q3 2 6 4.5t6 6.5q3 2 5 5.5t7 6.5q0 4 3 7
t3 7v112zM664 632q2 5 3 8t1 8q0 12 -5.5 20t-12.5 14q-2 0 -3.5 2t-5.5 4l-4 2h-4q-1 0 -1 4q-8 0 -9 1q-8 2 -9.5 3t-5.5 3q-6 5 -9 5q-3 4 -3 6v15q0 1 1.5 2.5t1.5 3.5q2 0 4.5 1t4.5 1q6 2 5 2h10q2 -2 4 -2q7 0 8 -4q1 -3 4 -3h2q9 0 14 5l4 2q0 2 -2 4l-5 4
q-2 1 -4.5 4t-6.5 5q-2 0 -4 2.5t-5 4.5q-5 0 -7 0.5t-4 0.5q-7 0 -12 -0.5t-8 -0.5q-5 -2 -7 -4.5t-6 -4.5q-2 -6 -5.5 -8.5t-8.5 -6.5q0 -4 -2 -7t-2 -9t4 -18l12 -11q2 -2 6 -5t7 -3q5 -2 8 -4t7 -2q1 -2 6 -2t7 -2l6 -2q2 0 4 -2t2 -3t2 -6q2 -2 2 -7v-9q0 -2 -2 -4
t-2 -4t-2 -3q-2 -5 -6 -6l-4 -1q-4 0 -8 -1t-5 -1q-4 0 -7 1t-6 1q-2 0 -3.5 1t-1.5 6l-4 1q-4 4 -11 4h-7l-4 -2l-5 -2q0 -3 3 -3q0 -3 2 -5q0 -4 4 -4v-6h5q7 -7 16 -9t19 -2h10q5 0 11 2q4 2 8.5 4t6.5 5q13 5 14 17zM1741 316h-18v140h20q3 0 4 -4l74 -104q2 0 2 -5
l2 -1v114h14v-140h-12l-82 114v4h-4v-118zM1596 632q9 7 9 16q0 12 -5.5 20t-12.5 14q-6 4 -6 6h-4l-4 2h-3q-4 0 -5 4h-4q-2 0 -5 1q-2 2 -4 3t-7 3l-7 5q-2 1 -3 2l-2 2l-1 2q0 1 -1 3t-1 4q0 4 4 8q0 2 4 6q2 0 3 1t4 1q2 2 11 2l4 -1q2 -1 5 -1q3 -3 8 -4q6 -3 8 -3
q6 0 8 5l5 2q0 2 -2.5 4t-4.5 4q0 1 -3 4l-5 5q-3 0 -5.5 2.5t-6.5 4.5h-6l-5 1q-6 0 -10 -0.5t-8 -0.5l-13 -9l-7 -8.5t-6 -6.5q-1 -4 -3 -7t-2 -9q0 -4 2 -7.5t3 -10.5l10 -11q5 -2 7.5 -5t6.5 -3q4 -2 7.5 -4t6.5 -2q4 -2 7 -2t6 -2q6 0 10 -4l4 -3q2 -2 2 -6q2 -2 2 -6
v-9q0 -3 -2 -5q0 -6 -6 -7q-6 -5 -7 -6t-3 -1q-7 0 -8 -1t-5 -1q-3 0 -6.5 1t-5.5 1q-2 1 -4 3l-4 4l-2 1q-5 4 -10 4h-7q-2 0 -4 -2l-6 -2q2 -1 2 -2t2 -1q0 -3 1 -4l3 -3v-2q6 -6 9 -6q7 -7 14.5 -9t17.5 -2h12q3 0 11 2q3 2 6.5 4t7.5 5l5 8q3 3 4 9zM78 350q-6 6 -7 17
l-3 10q-1 3 -1 10t4 16l2 10t5 10l4 6l5 7q2 2 6.5 4.5t6.5 4.5q6 7 11 8t9 3q3 0 8 1.5t10 1.5q7 0 14.5 -1.5t13.5 -5.5q8 -2 12.5 -6.5t8.5 -9.5q-2 -2 -4 -2v-4h-13q-4 2 -7 5t-7 3h-36l-22 -12q-4 -3 -7.5 -7.5t-4.5 -10.5q-2 -7 -3 -13t-1 -8q0 -9 4 -13q0 -5 0.5 -10
t0.5 -8l5 -4q4 -1 6 -7l7 -4q3 -1 8 -1q3 -4 5.5 -5t6.5 -3h33q2 2 7 3t9 5v29h-14v2q-2 0 -3 1.5t-3 3.5h-2q-1 1 -1 3v4h36v-51q-2 -5 -3.5 -6t-5.5 -8h-12q-8 -2 -12 -2h-34q-4 0 -9 3.5l-11 7.5q-2 0 -6.5 2.5t-6.5 6.5l-5 6.5t-4 7.5zM240 438v-44h56v-15h-56v-47h67
v-16h-84v140h84v-18h-67zM1171 438v-44h60v-15h-60v-47h68v-16h-84v140h84v-18h-68zM2375 759h-20q-3 0 -8 -5q-6 -5 -6 -10l-37 -47h-2q0 -2 -2 -2v2l-39 47q-1 7 -4 10q-5 5 -11 5h-18l58 -77v-2q0 -2 2 -2l2 -2v-72h21v70q2 0 2 2l2 4v2zM641 456v-85q0 -7 2 -10t5 -5
q0 -6 3.5 -9.5t5.5 -4.5q0 -2 4.5 -4t6.5 -4q6 -2 8 -2h16q1 0 5 2l9 4q2 1 3.5 2t3.5 2q3 1 8 14q4 3 4 15v85h14v-85q0 -12 -4 -23t-12 -16q-2 -5 -6.5 -9.5t-8.5 -4.5q-8 -1 -13.5 -1.5t-10.5 -0.5t-11 0.5t-14 1.5q-2 0 -6.5 4.5l-9.5 9.5l-10 16q-1 6 -3.5 11t-2.5 12
v85h14zM2253 625h-69v134h-21v-155h90v21zM1271 625h-67v134h-20v-155h87v21zM1452 336q1 2 2 3.5t2 3.5q2 2 3 6.5t1 6.5q0 9 -2 11t-3 4.5t-3 4.5q-1 1 -8 3q-4 0 -6 2t-6 2q-8 0 -14 6q-9 0 -13 7q-2 0 -3.5 3.5t-3.5 7.5v22q0 1 2 7q0 8 7 9l6 7q2 1 3.5 2t3.5 2
q5 0 7.5 1.5t8.5 1.5l6 -2l4 -1q4 0 5 -1t5 -3q2 0 4 -3.5t2 -5.5q4 0 6 -3l1 -2l-2 -2q-6 -2 -9 -2h-6q-2 2 -2 4h-23q-9 0 -9 -2q-5 -7 -5 -8q-4 0 -4 -8q0 -5 4 -6q0 -5 3 -6q0 -1 3 -4l4 -1q4 -4 7.5 -4t7.5 -3q3 0 4 -1l2 -1q4 0 8 -5h4q2 0 4 -2h2l8.5 -7t5.5 -4
q1 -5 1.5 -10.5t0.5 -9.5v-10q0 -5 -4 -6l-5.5 -7.5t-6.5 -5.5q-2 -2 -6 -5.5t-6 -3.5q-6 -2 -10 -2h-9q-11 0 -18.5 1t-12.5 10q-2 0 -3.5 2.5t-5.5 4.5v4l-2 2l4 2h7q1 0 3 -1t4 -1q4 -4 6.5 -5t4.5 -3h22q8 0 12 4zM1069 316l-59 140h6q6 0 8 -2t3 -2t3 -7l43 -103v-2
l2 -6v6l2 2q5 14 13 27.5t12 24.5q4 16 10 28l12 23q0 7 1.5 7t1.5 2q6 2 7 2h11l-15.5 -35t-16.5 -34q-4 -9 -7 -18.5l-6 -18.5l-16 -34h-15zM532 438v-49h60v-12h-60v-61h-16v140h85v-18h-69zM1959 438v-49h54v-12h-54v-61h-16v140h81v-18h-65zM879 456v-124h63v-16h-80
v140h17zM371 316v122h-46v18h105v-18h-47v-122h-12zM784 456v-124h64v-16h-80v140h16zM270 728q2 -1 3 -4t3 -5q4 -4 4 -9v-4q0 -5 -4 -9q-2 -2 -3 -4.5t-3 -2.5l-4 -4l-4 -4h-46v53h36q4 0 10 -2q1 0 4 -3zM1325 389q4 0 6 3q4 4 9 4l2 5q0 2 5 6q0 1 1 4t1 7q0 2 -1 3.5
t-1 4.5q-7 3 -7 8q-5 0 -9 4h-44v-49h38zM2101 392q4 4 7 4q7 7 7 11q2 4 2 11q0 4 -2 8q0 2 -7 8q-3 0 -7 4h-44v-49h36q3 0 8 3zM1525 456v-140h-18v140h18zM518 701l-4 -7q-2 0 -3 -2t-3 -2q-2 -2 -10 -2h-33v47h33q4 0 10 -2q2 0 6 -5q1 -2 2 -3.5t2 -3.5q3 -2 3 -9
q0 -5 -3 -11zM684 129l-27 69q0 2 -1 3l-1 2q0 4 -3 6v-6l-1 -2q-1 -1 -1 -3l-27 -69h61zM1093 727v-4l27 -64h-59l30 64v5zM1755 82q6 0 6 -6q2 -2 2 -5v-4q0 -9 -2 -11q0 -5 -6 -9q-3 0 -6 -4h-17q-4 4 -11 4q0 2 -5 9q-2 2 -2 11v4q0 3 2 5l3 4l2 2q7 4 11 4q1 3 4 3h10
q3 0 3 -3q3 0 6 -4z" />
    <glyph glyph-name="six" unicode="6" 
d="M2478 1093v-587h-2404v587h910q0 30 5.5 58t20.5 53q12 29 26 52.5t37 41.5q39 42 91 62q28 12 55.5 17t56.5 5q33 0 61.5 -6.5t53.5 -15.5q27 -14 50.5 -29.5t45.5 -36.5q35 -38 60 -94q11 -27 15.5 -54t4.5 -53h911zM1030 1194q-20 -49 -20 -101q0 -58 20 -106
q10 -22 24.5 -43.5l29.5 -42.5q20 -17 41.5 -32t45.5 -25q46 -23 105 -23q31 0 56.5 4.5t47.5 16.5q48 19 83 57q22 20 35.5 41l26.5 43q20 54 20 110q0 20 -3.5 43.5t-11.5 47.5q-14 40 -43 72q-14 20 -29.5 33.5t-34.5 25.5l-76 36l-33 6t-38 3q-29 0 -55.5 -5.5
t-51.5 -19.5q-50 -19 -85 -57q-17 -19 -30.5 -39.5t-23.5 -44.5zM1142 936l314 317q62 -80 62 -160q0 -24 -3.5 -45.5t-11.5 -41.5q-8 -19 -17.5 -37t-23.5 -33h-320zM1095 928q-14 17 -25 36.5t-19 39.5q-9 18 -12.5 40.5t-3.5 48.5q0 18 3.5 39t12.5 43q7 35 40 68h318z
M1135 207q2 -4 4.5 -11t5.5 -14q2 -10 2 -14v-32q0 -5 -2 -11l-6 -15l-4 -14q-6 -4 -10.5 -10t-8.5 -10q-6 -5 -11 -10.5t-10 -9.5q-9 -5 -15.5 -7l-12.5 -4q-10 -2 -15 -2h-17q-9 0 -19 2t-23 4q-12 6 -18.5 13t-17.5 14q-15 14 -21 35q-4 10 -6 19.5t-2 23.5v14q0 4 2 14
q4 17 12 25q4 8 7.5 13l7.5 11q9 5 13.5 9.5t10.5 9.5l12 4l17 6q5 0 11.5 1t13.5 1q10 0 17 -1t15 -1q6 -4 12.5 -6t15.5 -4q5 -5 10 -9.5l11 -9.5q4 -6 8.5 -11t10.5 -13zM2195 207q4 -4 6.5 -11t4.5 -14q4 -7 4 -14v-32q0 -7 -4 -11l-4.5 -15t-6.5 -14l-16 -20l-12 -10
l-14 -10q-5 -5 -12 -7t-13 -4q-8 -2 -14 -2h-17q-19 0 -43 6q-8 6 -16 13t-17 14q-8 6 -14 14t-8 21q-6 10 -7.5 19.5t-1.5 23.5q0 8 1 14t1 14l6 14t7 11q2 8 6 13t10 11q3 5 10.5 9.5t12.5 9.5q4 2 11 4t13 6q11 0 17 1t12 1q9 0 17 -1t14 -1q6 -4 13 -6t12 -4l26 -19
q2 -6 8 -11t8 -13zM2433 260l1 1q1 1 6 1h38v-219h-38v160l-5 -9v-8q0 -2 -2 -4l-13 -34.5t-16 -31.5q-6 -20 -12 -36.5t-14 -36.5h-37l-55 139q-6 3 -6 12q0 4 -1 4l-2 2v-157h-42v219h40q5 0 6.5 -1t4.5 -1q2 -2 3 -2t4 -2l7 -4q0 -2 2 -3.5t2 -3.5q4 -18 11 -32.5
l16 -34.5l12 -33q3 -8 6 -15l6 -14v-14q3 0 4 -4q0 4 1 4v14l11 13l44 116q0 1 2 3l2 4q0 1 3 3l3 1q2 2 4 2t4 2zM1329 262h38v-219h-36l-100 146l-4 5v2q-3 4 -3 5q-4 1 -4 4q0 4 -7 4v-166h-37v219h33q4 0 9.5 -1t5.5 -3q3 -2 5 -2t4 -2l22 -33q6 -8 11 -16.5t10 -19.5
q13 -13 24 -29t25 -29q0 -2 1 -4.5t1 -6.5l1 -3q0 -2 1 -3v152zM672 262l94 -219h-25q-9 0 -16 4q-2 2 -4 6.5t-6 8.5l-14 27h-100l-9 -27q0 -6 -4 -6q-2 -5 -4 -5l-3 -4q-2 0 -4.5 -1t-6.5 -1q0 -2 -2 -2h-27l96 219h35zM260 262h139v-39h-100v-49h82v-41h-82v-51h100v-39
h-139v219zM839 659q1 7 2 11t1 10q0 12 -3 21q0 7 -4.5 10.5t-6.5 9.5l-4.5 6.5t-6.5 7.5l-7 6q-2 3 -9 9q-4 2 -8 4.5t-11 4.5q-5 0 -9.5 0.5t-10.5 0.5q-3 0 -8.5 -0.5t-12.5 -0.5q-6 -2 -10 -4.5t-8 -4.5q-4 -6 -7.5 -8.5t-7.5 -6.5q-13 -7 -14 -14q-4 -6 -5 -9.5
l-3 -10.5q-1 -5 -1.5 -10t-0.5 -11t2 -14.5t4 -15.5t6.5 -12.5t11.5 -12.5q10 -15 25 -15q10 -6 29 -6h20q15 5 19 8q11 4 16 13q3 4 6 7.5t5 8.5q2 4 6.5 9t4.5 9zM1966 659v42l-7 20q-5 7 -15 14q-1 4 -6 6.5t-10 8.5l-4 2t-5 2l-7 5q-7 0 -12 0.5t-10 0.5q-6 0 -11 -0.5
t-9 -0.5l-22 -9q-3 -6 -6 -8.5t-7 -6.5q-3 -4 -6.5 -7t-5.5 -7q-2 -6 -4.5 -9.5t-2.5 -10.5q-6 -9 -6 -21q0 -6 3 -14.5t6 -15.5q4 -15 16 -25q7 -15 26 -15q10 -6 29 -6h22q3 2 8 4t8 4l10 6t6 7q11 8 15 16zM74 262h158v-24q0 -4 -1 -6q0 -3 -2 -5l-4 -4l-105 -143h1l2 2
h108v-39h-164v13q0 11 2 13q0 2 5 7v4l2 4q2 2 4 3.5t2 6.5l94 129h-102v39zM1839 203q-4 -4 -7 -10.5l-7 -14.5q-2 -4 -4 -10t-2 -14q0 -7 2 -15l4 -12q2 -7 6 -14.5t8 -10.5q4 -4 9.5 -8.5t14.5 -7.5q12 -4 27 -4q5 0 10 1t12 1q3 2 8 5t8 7q3 0 9 2h13q3 0 9 -2
q2 -1 3.5 -3t3.5 -4l6 -7q-3 -4 -6 -7.5t-7 -7.5l-11.5 -8t-12.5 -6q-7 -4 -11.5 -5t-10.5 -3t-11 -2h-12q-12 0 -23.5 2t-21.5 4q-10 5 -18.5 12t-16.5 15q-16 13 -22 35q-4 10 -7 19.5t-3 23.5q0 10 1 14l4 14q1 7 3 14t6 11q6 8 8.5 13t9.5 11q14 9 25 19q4 2 9.5 4
t18.5 6q5 0 12 1t15 1h13q4 0 10 -2t10.5 -3t11.5 -3q8 -4 12.5 -6.5t11.5 -7.5l13 -17l-6 -8q-2 -1 -5 -4l-2 -4h-15q-7 0 -16 4l-16 10q-10 2 -12 2h-10q-17 0 -27 -7q-17 -1 -24 -13zM1690 151l7 -10.5t3 -7.5q6 -8 6 -20q0 -15 -8 -29l-8 -12l-9 -10q-7 -6 -11.5 -9.5
t-12.5 -5.5q-5 -2 -14 -3t-15 -1q-8 0 -14.5 1l-19.5 3q-5 2 -10 6.5t-11 13.5q-4 1 -6 5l-4 8q-7 2 -7 9l7 5q2 2 4 2h4l2 2h10q4 0 4 -2q7 0 9 -2q7 -5 10.5 -6.5t5.5 -3.5q2 0 6 -1t10 -1h5q2 0 6 2q5 1 8 2t7 3q6 6 7 9q2 4 4 7.5t2 7.5q0 7 -6 10q-5 6 -7 6
q-2 4 -7.5 5t-7.5 2q-6 0 -14 7q-5 0 -9 1t-9 7q-11 3 -14.5 6t-7.5 7q-12 4 -12 14q-6 10 -6 25q0 18 6 26l6 11l8 10q4 2 10 4t13 6q6 0 10.5 1t13.5 1q4 0 8.5 -1t11.5 -1l15 -6q3 -4 6.5 -6.5t7.5 -7.5q4 -2 7.5 -5.5t3.5 -7.5l-7 -4q-4 -2 -7 -4.5t-3 -3.5h-18l-5 1
l-7 5q-2 0 -4 1t-4 1h-17q-2 0 -3 -1t-5 -3q-2 -3 -6 -6q-1 -3 -1 -10q0 -5 1 -5q2 -2 3 -5.5t3 -7.5h6q1 0 5 -2q5 -1 9.5 -3t10.5 -4l9 -2q5 -4 9 -5t9 -5q5 -2 10 -5t8 -8zM1579 336q-12 7 -16 20q-7 17 -7 31v16l11 20l12 13q6 7 12 9q3 7 9.5 8t9.5 3q4 0 8 1.5t10 1.5
q4 0 10.5 -1.5t10.5 -1.5q5 -2 8.5 -3t7.5 -8q2 -2 5.5 -4.5l6.5 -4.5l13 -13l8 -20q0 -4 1 -9t1 -7q0 -6 -1 -14t-5 -17q-5 -13 -17 -20l-9.5 -7.5t-11.5 -10.5q-5 -1 -12 -1.5t-16 -0.5h-15q-4 0 -10 2q-18 7 -24 18zM2284 336l-13.5 -7.5t-11.5 -10.5q-8 -2 -12 -2h-30
q-5 0 -13 2q-7 4 -12.5 8.5t-10.5 9.5q-6 6 -13 20q-2 9 -4.5 17t-2.5 14q0 2 1 7t1 9q3 5 4 10t4 10q2 3 5 6t5 7q6 4 18 9q3 7 8 8t7 3q6 0 9 1.5t10 1.5q2 0 8.5 -1.5t11.5 -1.5q4 -2 7.5 -3t6.5 -8l17 -9q2 -4 4 -7t5 -6q2 -5 4 -9.5t3 -10.5q2 -4 3 -9t1 -7
q0 -6 -1 -14t-5 -17q0 -6 -5 -11zM2166 127q5 12 5 27q0 16 -5 24q-3 9 -8 15.5t-8 9.5q-10 10 -24 13q-4 5 -12 6t-17 1q-12 0 -25 -7q-8 -1 -13 -4t-11 -9q-4 -3 -7.5 -9.5l-8.5 -15.5q0 -4 -1 -10t-1 -14q0 -9 1 -15t1 -12q4 -8 8 -14t8 -11q6 -4 11 -8.5t13 -7.5
q7 -2 14 -3t11 -1q9 0 17 1t12 3q8 3 14 7.5t10 8.5q11 11 16 25zM1104 127q4 11 4 27q0 13 -4 24q-2 9 -6.5 15.5t-13.5 9.5q-2 6 -7.5 9t-11.5 4q-11 7 -30 7q-14 0 -25 -7q-11 -1 -23 -13q-6 -3 -9 -9.5t-5 -15.5q-5 -5 -5 -10v-29q0 -5 5 -12q2 -7 5 -14.5t9 -10.5
q6 -4 11 -8.5t12 -7.5q11 -4 25 -4q19 0 30 4q13 7 19 16q9 3 13.5 10.5t6.5 14.5zM774 262h139v-39h-100v-55h82v-39h-82v-86h-39v219zM570 223h-58v-180h-43v180h-62v39h163v-39zM1188 864q-19 7 -37 19t-35 26h322q-18 -14 -36 -26t-36 -19l-45.5 -11t-44.5 -5
q-25 0 -45.5 5t-42.5 11zM1389 262h165v-39h-65v-180h-39v180h-61v39zM1366 1315q18 -8 36 -20.5t36 -22.5h-325q38 30 75 43q37 18 88 18q48 0 90 -18zM559 604l-47 68q4 0 11 4q8 5 9 10q9 5 9 11v26q0 1 -2 5q-3 10 -11 15q-5 9 -14 9q-2 5 -6.5 6t-9.5 1h-57v-155h24v64
h23l40 -56q1 -4 8 -6q2 -2 3 -2h20zM1169 604l-67 155h-22l-65 -155h11q7 0 9 2q0 2 7 6l11 27h76l13 -27q1 -4 5 -6q2 -2 8 -2h14zM1930 721q3 -2 8 -7.5t6 -12.5q4 -7 4 -21q0 -12 -4 -23q-1 -5 -6 -9.5t-8 -6.5q-5 -4 -9 -6.5t-8 -7.5q-9 -4 -23 -4q-6 0 -12 1t-10 3
q-5 5 -10.5 7.5t-9.5 6.5q-3 2 -6 6.5t-3 9.5q-4 7 -5 12t-1 11q0 10 6 21q0 7 3 12.5t6 7.5q4 4 9.5 7t10.5 5q9 4 22 4q5 0 11.5 -1t11.5 -3zM801 721q7 -2 9.5 -7.5t4.5 -12.5q4 -7 4 -21q0 -11 -4 -23q-2 -5 -4.5 -9.5t-9.5 -6.5q-1 -4 -6 -7l-11 -7q-9 -4 -22 -4
q-11 0 -23 4q-4 5 -9 7.5t-9 6.5q-2 2 -5.5 6.5t-5.5 9.5q-4 12 -4 23q0 12 4 21q2 7 5.5 12.5t5.5 7.5q4 4 9 7t9 5q5 2 12.5 3t10.5 1q13 0 22 -4q8 -2 11.5 -5t5.5 -7zM2126 759h-22v-120q-1 2 -2 5t-3 4l-75 104l-3 7h-24v-155h22v121l2 -2l87 -119h18v155zM2218 332h31
l6 3q3 3 4 5q6 0 14 5q2 5 3 7t4 4q0 3 3 8t3 10v34q-3 6 -7 10.5t-6 7.5q-10 4 -18 12h-43q-6 -4 -9.5 -7t-9.5 -5q-5 -3 -7.5 -7.5t-4.5 -10.5q-1 -4 -1.5 -7t-0.5 -7v-20q0 -13 5 -18q2 -2 4.5 -4t4.5 -7l7 -3q2 -2 4 -2q4 -4 7 -5t7 -3zM296 690q5 12 5 20q0 9 -5 18
q0 2 -5 7l-6 6q-2 3 -5 7t-10 4q-3 5 -8.5 6t-9.5 1h-52v-155h16v59h36q4 0 9.5 0.5t8.5 2.5q10 4 15 10q4 2 7.5 6t3.5 8zM1579 408q-6 -14 -6 -21v-8q0 -4 3 -5q0 -10 5 -18q0 -2 2 -4t4 -7l5 -3q2 -2 11 -2q2 -4 5.5 -5t5.5 -3h27q6 2 9.5 3t6.5 5l6 2l4 3q2 5 4.5 7
t2.5 4q3 3 4 8t3 10q0 2 1 5.5t1 7.5q0 2 -1 8t-5 13q0 6 -4 10.5t-6 7.5q-3 1 -8 6l-10 6h-42q-4 -4 -10 -7l-10 -5l-5 -8q-3 -5 -3 -10zM997 759h-18v-120l-2 4q-2 6 -2 5l-74 104q-5 0 -6 7h-25v-155h21v124h2l2 -1v-4l86 -119h16v155zM2115 381q-5 -1 -8.5 -2t-5.5 -2
l45 -61h-12l-6 2q-4 0 -4 9l-39 50h-28v-61h-15v140h57q3 0 9 -2q2 -2 6.5 -5.5t5.5 -5.5q4 -2 5 -5.5t7 -7.5v-27q-4 -4 -5 -8t-3 -6zM1342 381q-3 -3 -11 -4l47 -61h-15q-3 0 -3 2q-6 0 -6 9l-39 50h-28v-61h-13v140h56q2 0 6 -2q10 -1 18 -11q0 -2 3 -5.5t3 -7.5
q2 -2 2 -6v-14q0 -1 -2 -7q0 -10 -4 -14l-5 -4q-3 -3 -9 -4zM412 759h-98v-155h98v21h-74v47h58v18h-58v45h74v24zM1721 759h-93v-155h93v21h-69v47h58v18h-58v45h69v24zM2460 454q6 2 5 2h13v-140h-12v114l-2 -2v-2q-4 -8 -6.5 -17.5t-8.5 -14.5q-5 -7 -7 -12.5t-7 -14.5
q-2 -9 -3 -15.5t-5 -9.5q-3 -8 -6.5 -12.5t-5.5 -13.5h-15q-10 14 -15 27t-10 28q-4 12 -12 26.5t-12 28.5v2h-4v-112h-14v140h14q4 0 6 -2l2 -2v-7l49 -105q0 -4 2 -4l1 2v4q0 2 8 6l41 97q2 7 3 7t1 2zM1480 759h-22v-104q0 -4 -2 -8q-1 -7 -10 -12q0 -2 -4 -3.5t-6 -6.5
l-9 -2h-9q-7 0 -13 2q-5 5 -8.5 6.5t-5.5 3.5l-11 12q0 3 -1 7.5t-1 11.5v93h-20v-93q0 -7 1 -11.5t1 -7.5q0 -8 6 -14q3 -8 10 -12q2 -4 4.5 -6.5t8.5 -4.5q2 -2 6.5 -3t7.5 -3q4 0 7 -1.5t8 -1.5t8.5 1.5t11.5 1.5q2 2 5 3t7 3q3 2 6 4.5t6 6.5q3 2 5 5.5t7 6.5q0 4 3 7
t3 7v112zM664 632q2 5 3 8t1 8q0 12 -5.5 20t-12.5 14q-2 0 -3.5 2t-5.5 4l-4 2h-4q-1 0 -1 4q-8 0 -9 1q-8 2 -9.5 3t-5.5 3q-6 5 -9 5q-3 4 -3 6v15q0 1 1.5 2.5t1.5 3.5q2 0 4.5 1t4.5 1q6 2 5 2h10q2 -2 4 -2q7 0 8 -4q1 -3 4 -3h2q9 0 14 5l4 2q0 2 -2 4l-5 4
q-2 1 -4.5 4t-6.5 5q-2 0 -4 2.5t-5 4.5q-5 0 -7 0.5t-4 0.5q-7 0 -12 -0.5t-8 -0.5q-5 -2 -7 -4.5t-6 -4.5q-2 -6 -5.5 -8.5t-8.5 -6.5q0 -4 -2 -7t-2 -9t4 -18l12 -11q2 -2 6 -5t7 -3q5 -2 8 -4t7 -2q1 -2 6 -2t7 -2l6 -2q2 0 4 -2t2 -3t2 -6q2 -2 2 -7v-9q0 -2 -2 -4
t-2 -4t-2 -3q-2 -5 -6 -6l-4 -1q-4 0 -8 -1t-5 -1q-4 0 -7 1t-6 1q-2 0 -3.5 1t-1.5 6l-4 1q-4 4 -11 4h-7l-4 -2l-5 -2q0 -3 3 -3q0 -3 2 -5q0 -4 4 -4v-6h5q7 -7 16 -9t19 -2h10q5 0 11 2q4 2 8.5 4t6.5 5q13 5 14 17zM1741 316h-18v140h20q3 0 4 -4l74 -104q2 0 2 -5
l2 -1v114h14v-140h-12l-82 114v4h-4v-118zM1596 632q9 7 9 16q0 12 -5.5 20t-12.5 14q-6 4 -6 6h-4l-4 2h-3q-4 0 -5 4h-4q-2 0 -5 1q-2 2 -4 3t-7 3l-7 5q-2 1 -3 2l-2 2l-1 2q0 1 -1 3t-1 4q0 4 4 8q0 2 4 6q2 0 3 1t4 1q2 2 11 2l4 -1q2 -1 5 -1q3 -3 8 -4q6 -3 8 -3
q6 0 8 5l5 2q0 2 -2.5 4t-4.5 4q0 1 -3 4l-5 5q-3 0 -5.5 2.5t-6.5 4.5h-6l-5 1q-6 0 -10 -0.5t-8 -0.5l-13 -9l-7 -8.5t-6 -6.5q-1 -4 -3 -7t-2 -9q0 -4 2 -7.5t3 -10.5l10 -11q5 -2 7.5 -5t6.5 -3q4 -2 7.5 -4t6.5 -2q4 -2 7 -2t6 -2q6 0 10 -4l4 -3q2 -2 2 -6q2 -2 2 -6
v-9q0 -3 -2 -5q0 -6 -6 -7q-6 -5 -7 -6t-3 -1q-7 0 -8 -1t-5 -1q-3 0 -6.5 1t-5.5 1q-2 1 -4 3l-4 4l-2 1q-5 4 -10 4h-7q-2 0 -4 -2l-6 -2q2 -1 2 -2t2 -1q0 -3 1 -4l3 -3v-2q6 -6 9 -6q7 -7 14.5 -9t17.5 -2h12q3 0 11 2q3 2 6.5 4t7.5 5l5 8q3 3 4 9zM78 350q-6 6 -7 17
l-3 10q-1 3 -1 10t4 16l2 10t5 10l4 6l5 7q2 2 6.5 4.5t6.5 4.5q6 7 11 8t9 3q3 0 8 1.5t10 1.5q7 0 14.5 -1.5t13.5 -5.5q8 -2 12.5 -6.5t8.5 -9.5q-2 -2 -4 -2v-4h-13q-4 2 -7 5t-7 3h-36l-22 -12q-4 -3 -7.5 -7.5t-4.5 -10.5q-2 -7 -3 -13t-1 -8q0 -9 4 -13q0 -5 0.5 -10
t0.5 -8l5 -4q4 -1 6 -7l7 -4q3 -1 8 -1q3 -4 5.5 -5t6.5 -3h33q2 2 7 3t9 5v29h-14v2q-2 0 -3 1.5t-3 3.5h-2q-1 1 -1 3v4h36v-51q-2 -5 -3.5 -6t-5.5 -8h-12q-8 -2 -12 -2h-34q-4 0 -9 3.5l-11 7.5q-2 0 -6.5 2.5t-6.5 6.5l-5 6.5t-4 7.5zM240 438v-44h56v-15h-56v-47h67
v-16h-84v140h84v-18h-67zM1171 438v-44h60v-15h-60v-47h68v-16h-84v140h84v-18h-68zM2375 759h-20q-3 0 -8 -5q-6 -5 -6 -10l-37 -47h-2q0 -2 -2 -2v2l-39 47q-1 7 -4 10q-5 5 -11 5h-18l58 -77v-2q0 -2 2 -2l2 -2v-72h21v70q2 0 2 2l2 4v2zM641 456v-85q0 -7 2 -10t5 -5
q0 -6 3.5 -9.5t5.5 -4.5q0 -2 4.5 -4t6.5 -4q6 -2 8 -2h16q1 0 5 2l9 4q2 1 3.5 2t3.5 2q3 1 8 14q4 3 4 15v85h14v-85q0 -12 -4 -23t-12 -16q-2 -5 -6.5 -9.5t-8.5 -4.5q-8 -1 -13.5 -1.5t-10.5 -0.5t-11 0.5t-14 1.5q-2 0 -6.5 4.5l-9.5 9.5l-10 16q-1 6 -3.5 11t-2.5 12
v85h14zM2253 625h-69v134h-21v-155h90v21zM1271 625h-67v134h-20v-155h87v21zM1452 336q1 2 2 3.5t2 3.5q2 2 3 6.5t1 6.5q0 9 -2 11t-3 4.5t-3 4.5q-1 1 -8 3q-4 0 -6 2t-6 2q-8 0 -14 6q-9 0 -13 7q-2 0 -3.5 3.5t-3.5 7.5v22q0 1 2 7q0 8 7 9l6 7q2 1 3.5 2t3.5 2
q5 0 7.5 1.5t8.5 1.5l6 -2l4 -1q4 0 5 -1t5 -3q2 0 4 -3.5t2 -5.5q4 0 6 -3l1 -2l-2 -2q-6 -2 -9 -2h-6q-2 2 -2 4h-23q-9 0 -9 -2q-5 -7 -5 -8q-4 0 -4 -8q0 -5 4 -6q0 -5 3 -6q0 -1 3 -4l4 -1q4 -4 7.5 -4t7.5 -3q3 0 4 -1l2 -1q4 0 8 -5h4q2 0 4 -2h2l8.5 -7t5.5 -4
q1 -5 1.5 -10.5t0.5 -9.5v-10q0 -5 -4 -6l-5.5 -7.5t-6.5 -5.5q-2 -2 -6 -5.5t-6 -3.5q-6 -2 -10 -2h-9q-11 0 -18.5 1t-12.5 10q-2 0 -3.5 2.5t-5.5 4.5v4l-2 2l4 2h7q1 0 3 -1t4 -1q4 -4 6.5 -5t4.5 -3h22q8 0 12 4zM1069 316l-59 140h6q6 0 8 -2t3 -2t3 -7l43 -103v-2
l2 -6v6l2 2q5 14 13 27.5t12 24.5q4 16 10 28l12 23q0 7 1.5 7t1.5 2q6 2 7 2h11l-15.5 -35t-16.5 -34q-4 -9 -7 -18.5l-6 -18.5l-16 -34h-15zM532 438v-49h60v-12h-60v-61h-16v140h85v-18h-69zM1959 438v-49h54v-12h-54v-61h-16v140h81v-18h-65zM879 456v-124h63v-16h-80
v140h17zM371 316v122h-46v18h105v-18h-47v-122h-12zM784 456v-124h64v-16h-80v140h16zM270 728q2 -1 3 -4t3 -5q4 -4 4 -9v-4q0 -5 -4 -9q-2 -2 -3 -4.5t-3 -2.5l-4 -4l-4 -4h-46v53h36q4 0 10 -2q1 0 4 -3zM1325 389q4 0 6 3q4 4 9 4l2 5q0 2 5 6q0 1 1 4t1 7q0 2 -1 3.5
t-1 4.5q-7 3 -7 8q-5 0 -9 4h-44v-49h38zM2101 392q4 4 7 4q7 7 7 11q2 4 2 11q0 4 -2 8q0 2 -7 8q-3 0 -7 4h-44v-49h36q3 0 8 3zM1525 456v-140h-18v140h18zM518 701l-4 -7q-2 0 -3 -2t-3 -2q-2 -2 -10 -2h-33v47h33q4 0 10 -2q2 0 6 -5q1 -2 2 -3.5t2 -3.5q3 -2 3 -9
q0 -5 -3 -11zM684 129l-27 69q0 2 -1 3l-1 2q0 4 -3 6v-6l-1 -2q-1 -1 -1 -3l-27 -69h61zM1093 727v-4l27 -64h-59l30 64v5zM1755 82q6 0 6 -6q2 -2 2 -5v-4q0 -9 -2 -11q0 -5 -6 -9q-3 0 -6 -4h-17q-4 4 -11 4q0 2 -5 9q-2 2 -2 11v4q0 3 2 5l3 4l2 2q7 4 11 4q1 3 4 3h10
q3 0 3 -3q3 0 6 -4z" />
    <glyph glyph-name="seven" unicode="7" 
d="M2478 1093v-587h-2404v587h910q0 30 5.5 58t20.5 53q12 29 26 52.5t37 41.5q39 42 91 62q28 12 55.5 17t56.5 5q33 0 61.5 -6.5t53.5 -15.5q27 -14 50.5 -29.5t45.5 -36.5q35 -38 60 -94q11 -27 15.5 -54t4.5 -53h911zM1030 1194q-20 -49 -20 -101q0 -58 20 -106
q10 -22 24.5 -43.5l29.5 -42.5q20 -17 41.5 -32t45.5 -25q46 -23 105 -23q31 0 56.5 4.5t47.5 16.5q48 19 83 57q22 20 35.5 41l26.5 43q20 54 20 110q0 20 -3.5 43.5t-11.5 47.5q-14 40 -43 72q-14 20 -29.5 33.5t-34.5 25.5l-76 36l-33 6t-38 3q-29 0 -55.5 -5.5
t-51.5 -19.5q-50 -19 -85 -57q-17 -19 -30.5 -39.5t-23.5 -44.5zM1142 936l314 317q62 -80 62 -160q0 -24 -3.5 -45.5t-11.5 -41.5q-8 -19 -17.5 -37t-23.5 -33h-320zM1095 928q-14 17 -25 36.5t-19 39.5q-9 18 -12.5 40.5t-3.5 48.5q0 18 3.5 39t12.5 43q7 35 40 68h318z
M1135 207q2 -4 4.5 -11t5.5 -14q2 -10 2 -14v-32q0 -5 -2 -11l-6 -15l-4 -14q-6 -4 -10.5 -10t-8.5 -10q-6 -5 -11 -10.5t-10 -9.5q-9 -5 -15.5 -7l-12.5 -4q-10 -2 -15 -2h-17q-9 0 -19 2t-23 4q-12 6 -18.5 13t-17.5 14q-15 14 -21 35q-4 10 -6 19.5t-2 23.5v14q0 4 2 14
q4 17 12 25q4 8 7.5 13l7.5 11q9 5 13.5 9.5t10.5 9.5l12 4l17 6q5 0 11.5 1t13.5 1q10 0 17 -1t15 -1q6 -4 12.5 -6t15.5 -4q5 -5 10 -9.5l11 -9.5q4 -6 8.5 -11t10.5 -13zM2195 207q4 -4 6.5 -11t4.5 -14q4 -7 4 -14v-32q0 -7 -4 -11l-4.5 -15t-6.5 -14l-16 -20l-12 -10
l-14 -10q-5 -5 -12 -7t-13 -4q-8 -2 -14 -2h-17q-19 0 -43 6q-8 6 -16 13t-17 14q-8 6 -14 14t-8 21q-6 10 -7.5 19.5t-1.5 23.5q0 8 1 14t1 14l6 14t7 11q2 8 6 13t10 11q3 5 10.5 9.5t12.5 9.5q4 2 11 4t13 6q11 0 17 1t12 1q9 0 17 -1t14 -1q6 -4 13 -6t12 -4l26 -19
q2 -6 8 -11t8 -13zM2433 260l1 1q1 1 6 1h38v-219h-38v160l-5 -9v-8q0 -2 -2 -4l-13 -34.5t-16 -31.5q-6 -20 -12 -36.5t-14 -36.5h-37l-55 139q-6 3 -6 12q0 4 -1 4l-2 2v-157h-42v219h40q5 0 6.5 -1t4.5 -1q2 -2 3 -2t4 -2l7 -4q0 -2 2 -3.5t2 -3.5q4 -18 11 -32.5
l16 -34.5l12 -33q3 -8 6 -15l6 -14v-14q3 0 4 -4q0 4 1 4v14l11 13l44 116q0 1 2 3l2 4q0 1 3 3l3 1q2 2 4 2t4 2zM1329 262h38v-219h-36l-100 146l-4 5v2q-3 4 -3 5q-4 1 -4 4q0 4 -7 4v-166h-37v219h33q4 0 9.5 -1t5.5 -3q3 -2 5 -2t4 -2l22 -33q6 -8 11 -16.5t10 -19.5
q13 -13 24 -29t25 -29q0 -2 1 -4.5t1 -6.5l1 -3q0 -2 1 -3v152zM672 262l94 -219h-25q-9 0 -16 4q-2 2 -4 6.5t-6 8.5l-14 27h-100l-9 -27q0 -6 -4 -6q-2 -5 -4 -5l-3 -4q-2 0 -4.5 -1t-6.5 -1q0 -2 -2 -2h-27l96 219h35zM260 262h139v-39h-100v-49h82v-41h-82v-51h100v-39
h-139v219zM839 659q1 7 2 11t1 10q0 12 -3 21q0 7 -4.5 10.5t-6.5 9.5l-4.5 6.5t-6.5 7.5l-7 6q-2 3 -9 9q-4 2 -8 4.5t-11 4.5q-5 0 -9.5 0.5t-10.5 0.5q-3 0 -8.5 -0.5t-12.5 -0.5q-6 -2 -10 -4.5t-8 -4.5q-4 -6 -7.5 -8.5t-7.5 -6.5q-13 -7 -14 -14q-4 -6 -5 -9.5
l-3 -10.5q-1 -5 -1.5 -10t-0.5 -11t2 -14.5t4 -15.5t6.5 -12.5t11.5 -12.5q10 -15 25 -15q10 -6 29 -6h20q15 5 19 8q11 4 16 13q3 4 6 7.5t5 8.5q2 4 6.5 9t4.5 9zM1966 659v42l-7 20q-5 7 -15 14q-1 4 -6 6.5t-10 8.5l-4 2t-5 2l-7 5q-7 0 -12 0.5t-10 0.5q-6 0 -11 -0.5
t-9 -0.5l-22 -9q-3 -6 -6 -8.5t-7 -6.5q-3 -4 -6.5 -7t-5.5 -7q-2 -6 -4.5 -9.5t-2.5 -10.5q-6 -9 -6 -21q0 -6 3 -14.5t6 -15.5q4 -15 16 -25q7 -15 26 -15q10 -6 29 -6h22q3 2 8 4t8 4l10 6t6 7q11 8 15 16zM74 262h158v-24q0 -4 -1 -6q0 -3 -2 -5l-4 -4l-105 -143h1l2 2
h108v-39h-164v13q0 11 2 13q0 2 5 7v4l2 4q2 2 4 3.5t2 6.5l94 129h-102v39zM1839 203q-4 -4 -7 -10.5l-7 -14.5q-2 -4 -4 -10t-2 -14q0 -7 2 -15l4 -12q2 -7 6 -14.5t8 -10.5q4 -4 9.5 -8.5t14.5 -7.5q12 -4 27 -4q5 0 10 1t12 1q3 2 8 5t8 7q3 0 9 2h13q3 0 9 -2
q2 -1 3.5 -3t3.5 -4l6 -7q-3 -4 -6 -7.5t-7 -7.5l-11.5 -8t-12.5 -6q-7 -4 -11.5 -5t-10.5 -3t-11 -2h-12q-12 0 -23.5 2t-21.5 4q-10 5 -18.5 12t-16.5 15q-16 13 -22 35q-4 10 -7 19.5t-3 23.5q0 10 1 14l4 14q1 7 3 14t6 11q6 8 8.5 13t9.5 11q14 9 25 19q4 2 9.5 4
t18.5 6q5 0 12 1t15 1h13q4 0 10 -2t10.5 -3t11.5 -3q8 -4 12.5 -6.5t11.5 -7.5l13 -17l-6 -8q-2 -1 -5 -4l-2 -4h-15q-7 0 -16 4l-16 10q-10 2 -12 2h-10q-17 0 -27 -7q-17 -1 -24 -13zM1690 151l7 -10.5t3 -7.5q6 -8 6 -20q0 -15 -8 -29l-8 -12l-9 -10q-7 -6 -11.5 -9.5
t-12.5 -5.5q-5 -2 -14 -3t-15 -1q-8 0 -14.5 1l-19.5 3q-5 2 -10 6.5t-11 13.5q-4 1 -6 5l-4 8q-7 2 -7 9l7 5q2 2 4 2h4l2 2h10q4 0 4 -2q7 0 9 -2q7 -5 10.5 -6.5t5.5 -3.5q2 0 6 -1t10 -1h5q2 0 6 2q5 1 8 2t7 3q6 6 7 9q2 4 4 7.5t2 7.5q0 7 -6 10q-5 6 -7 6
q-2 4 -7.5 5t-7.5 2q-6 0 -14 7q-5 0 -9 1t-9 7q-11 3 -14.5 6t-7.5 7q-12 4 -12 14q-6 10 -6 25q0 18 6 26l6 11l8 10q4 2 10 4t13 6q6 0 10.5 1t13.5 1q4 0 8.5 -1t11.5 -1l15 -6q3 -4 6.5 -6.5t7.5 -7.5q4 -2 7.5 -5.5t3.5 -7.5l-7 -4q-4 -2 -7 -4.5t-3 -3.5h-18l-5 1
l-7 5q-2 0 -4 1t-4 1h-17q-2 0 -3 -1t-5 -3q-2 -3 -6 -6q-1 -3 -1 -10q0 -5 1 -5q2 -2 3 -5.5t3 -7.5h6q1 0 5 -2q5 -1 9.5 -3t10.5 -4l9 -2q5 -4 9 -5t9 -5q5 -2 10 -5t8 -8zM1579 336q-12 7 -16 20q-7 17 -7 31v16l11 20l12 13q6 7 12 9q3 7 9.5 8t9.5 3q4 0 8 1.5t10 1.5
q4 0 10.5 -1.5t10.5 -1.5q5 -2 8.5 -3t7.5 -8q2 -2 5.5 -4.5l6.5 -4.5l13 -13l8 -20q0 -4 1 -9t1 -7q0 -6 -1 -14t-5 -17q-5 -13 -17 -20l-9.5 -7.5t-11.5 -10.5q-5 -1 -12 -1.5t-16 -0.5h-15q-4 0 -10 2q-18 7 -24 18zM2284 336l-13.5 -7.5t-11.5 -10.5q-8 -2 -12 -2h-30
q-5 0 -13 2q-7 4 -12.5 8.5t-10.5 9.5q-6 6 -13 20q-2 9 -4.5 17t-2.5 14q0 2 1 7t1 9q3 5 4 10t4 10q2 3 5 6t5 7q6 4 18 9q3 7 8 8t7 3q6 0 9 1.5t10 1.5q2 0 8.5 -1.5t11.5 -1.5q4 -2 7.5 -3t6.5 -8l17 -9q2 -4 4 -7t5 -6q2 -5 4 -9.5t3 -10.5q2 -4 3 -9t1 -7
q0 -6 -1 -14t-5 -17q0 -6 -5 -11zM2166 127q5 12 5 27q0 16 -5 24q-3 9 -8 15.5t-8 9.5q-10 10 -24 13q-4 5 -12 6t-17 1q-12 0 -25 -7q-8 -1 -13 -4t-11 -9q-4 -3 -7.5 -9.5l-8.5 -15.5q0 -4 -1 -10t-1 -14q0 -9 1 -15t1 -12q4 -8 8 -14t8 -11q6 -4 11 -8.5t13 -7.5
q7 -2 14 -3t11 -1q9 0 17 1t12 3q8 3 14 7.5t10 8.5q11 11 16 25zM1104 127q4 11 4 27q0 13 -4 24q-2 9 -6.5 15.5t-13.5 9.5q-2 6 -7.5 9t-11.5 4q-11 7 -30 7q-14 0 -25 -7q-11 -1 -23 -13q-6 -3 -9 -9.5t-5 -15.5q-5 -5 -5 -10v-29q0 -5 5 -12q2 -7 5 -14.5t9 -10.5
q6 -4 11 -8.5t12 -7.5q11 -4 25 -4q19 0 30 4q13 7 19 16q9 3 13.5 10.5t6.5 14.5zM774 262h139v-39h-100v-55h82v-39h-82v-86h-39v219zM570 223h-58v-180h-43v180h-62v39h163v-39zM1188 864q-19 7 -37 19t-35 26h322q-18 -14 -36 -26t-36 -19l-45.5 -11t-44.5 -5
q-25 0 -45.5 5t-42.5 11zM1389 262h165v-39h-65v-180h-39v180h-61v39zM1366 1315q18 -8 36 -20.5t36 -22.5h-325q38 30 75 43q37 18 88 18q48 0 90 -18zM559 604l-47 68q4 0 11 4q8 5 9 10q9 5 9 11v26q0 1 -2 5q-3 10 -11 15q-5 9 -14 9q-2 5 -6.5 6t-9.5 1h-57v-155h24v64
h23l40 -56q1 -4 8 -6q2 -2 3 -2h20zM1169 604l-67 155h-22l-65 -155h11q7 0 9 2q0 2 7 6l11 27h76l13 -27q1 -4 5 -6q2 -2 8 -2h14zM1930 721q3 -2 8 -7.5t6 -12.5q4 -7 4 -21q0 -12 -4 -23q-1 -5 -6 -9.5t-8 -6.5q-5 -4 -9 -6.5t-8 -7.5q-9 -4 -23 -4q-6 0 -12 1t-10 3
q-5 5 -10.5 7.5t-9.5 6.5q-3 2 -6 6.5t-3 9.5q-4 7 -5 12t-1 11q0 10 6 21q0 7 3 12.5t6 7.5q4 4 9.5 7t10.5 5q9 4 22 4q5 0 11.5 -1t11.5 -3zM801 721q7 -2 9.5 -7.5t4.5 -12.5q4 -7 4 -21q0 -11 -4 -23q-2 -5 -4.5 -9.5t-9.5 -6.5q-1 -4 -6 -7l-11 -7q-9 -4 -22 -4
q-11 0 -23 4q-4 5 -9 7.5t-9 6.5q-2 2 -5.5 6.5t-5.5 9.5q-4 12 -4 23q0 12 4 21q2 7 5.5 12.5t5.5 7.5q4 4 9 7t9 5q5 2 12.5 3t10.5 1q13 0 22 -4q8 -2 11.5 -5t5.5 -7zM2126 759h-22v-120q-1 2 -2 5t-3 4l-75 104l-3 7h-24v-155h22v121l2 -2l87 -119h18v155zM2218 332h31
l6 3q3 3 4 5q6 0 14 5q2 5 3 7t4 4q0 3 3 8t3 10v34q-3 6 -7 10.5t-6 7.5q-10 4 -18 12h-43q-6 -4 -9.5 -7t-9.5 -5q-5 -3 -7.5 -7.5t-4.5 -10.5q-1 -4 -1.5 -7t-0.5 -7v-20q0 -13 5 -18q2 -2 4.5 -4t4.5 -7l7 -3q2 -2 4 -2q4 -4 7 -5t7 -3zM296 690q5 12 5 20q0 9 -5 18
q0 2 -5 7l-6 6q-2 3 -5 7t-10 4q-3 5 -8.5 6t-9.5 1h-52v-155h16v59h36q4 0 9.5 0.5t8.5 2.5q10 4 15 10q4 2 7.5 6t3.5 8zM1579 408q-6 -14 -6 -21v-8q0 -4 3 -5q0 -10 5 -18q0 -2 2 -4t4 -7l5 -3q2 -2 11 -2q2 -4 5.5 -5t5.5 -3h27q6 2 9.5 3t6.5 5l6 2l4 3q2 5 4.5 7
t2.5 4q3 3 4 8t3 10q0 2 1 5.5t1 7.5q0 2 -1 8t-5 13q0 6 -4 10.5t-6 7.5q-3 1 -8 6l-10 6h-42q-4 -4 -10 -7l-10 -5l-5 -8q-3 -5 -3 -10zM997 759h-18v-120l-2 4q-2 6 -2 5l-74 104q-5 0 -6 7h-25v-155h21v124h2l2 -1v-4l86 -119h16v155zM2115 381q-5 -1 -8.5 -2t-5.5 -2
l45 -61h-12l-6 2q-4 0 -4 9l-39 50h-28v-61h-15v140h57q3 0 9 -2q2 -2 6.5 -5.5t5.5 -5.5q4 -2 5 -5.5t7 -7.5v-27q-4 -4 -5 -8t-3 -6zM1342 381q-3 -3 -11 -4l47 -61h-15q-3 0 -3 2q-6 0 -6 9l-39 50h-28v-61h-13v140h56q2 0 6 -2q10 -1 18 -11q0 -2 3 -5.5t3 -7.5
q2 -2 2 -6v-14q0 -1 -2 -7q0 -10 -4 -14l-5 -4q-3 -3 -9 -4zM412 759h-98v-155h98v21h-74v47h58v18h-58v45h74v24zM1721 759h-93v-155h93v21h-69v47h58v18h-58v45h69v24zM2460 454q6 2 5 2h13v-140h-12v114l-2 -2v-2q-4 -8 -6.5 -17.5t-8.5 -14.5q-5 -7 -7 -12.5t-7 -14.5
q-2 -9 -3 -15.5t-5 -9.5q-3 -8 -6.5 -12.5t-5.5 -13.5h-15q-10 14 -15 27t-10 28q-4 12 -12 26.5t-12 28.5v2h-4v-112h-14v140h14q4 0 6 -2l2 -2v-7l49 -105q0 -4 2 -4l1 2v4q0 2 8 6l41 97q2 7 3 7t1 2zM1480 759h-22v-104q0 -4 -2 -8q-1 -7 -10 -12q0 -2 -4 -3.5t-6 -6.5
l-9 -2h-9q-7 0 -13 2q-5 5 -8.5 6.5t-5.5 3.5l-11 12q0 3 -1 7.5t-1 11.5v93h-20v-93q0 -7 1 -11.5t1 -7.5q0 -8 6 -14q3 -8 10 -12q2 -4 4.5 -6.5t8.5 -4.5q2 -2 6.5 -3t7.5 -3q4 0 7 -1.5t8 -1.5t8.5 1.5t11.5 1.5q2 2 5 3t7 3q3 2 6 4.5t6 6.5q3 2 5 5.5t7 6.5q0 4 3 7
t3 7v112zM664 632q2 5 3 8t1 8q0 12 -5.5 20t-12.5 14q-2 0 -3.5 2t-5.5 4l-4 2h-4q-1 0 -1 4q-8 0 -9 1q-8 2 -9.5 3t-5.5 3q-6 5 -9 5q-3 4 -3 6v15q0 1 1.5 2.5t1.5 3.5q2 0 4.5 1t4.5 1q6 2 5 2h10q2 -2 4 -2q7 0 8 -4q1 -3 4 -3h2q9 0 14 5l4 2q0 2 -2 4l-5 4
q-2 1 -4.5 4t-6.5 5q-2 0 -4 2.5t-5 4.5q-5 0 -7 0.5t-4 0.5q-7 0 -12 -0.5t-8 -0.5q-5 -2 -7 -4.5t-6 -4.5q-2 -6 -5.5 -8.5t-8.5 -6.5q0 -4 -2 -7t-2 -9t4 -18l12 -11q2 -2 6 -5t7 -3q5 -2 8 -4t7 -2q1 -2 6 -2t7 -2l6 -2q2 0 4 -2t2 -3t2 -6q2 -2 2 -7v-9q0 -2 -2 -4
t-2 -4t-2 -3q-2 -5 -6 -6l-4 -1q-4 0 -8 -1t-5 -1q-4 0 -7 1t-6 1q-2 0 -3.5 1t-1.5 6l-4 1q-4 4 -11 4h-7l-4 -2l-5 -2q0 -3 3 -3q0 -3 2 -5q0 -4 4 -4v-6h5q7 -7 16 -9t19 -2h10q5 0 11 2q4 2 8.5 4t6.5 5q13 5 14 17zM1741 316h-18v140h20q3 0 4 -4l74 -104q2 0 2 -5
l2 -1v114h14v-140h-12l-82 114v4h-4v-118zM1596 632q9 7 9 16q0 12 -5.5 20t-12.5 14q-6 4 -6 6h-4l-4 2h-3q-4 0 -5 4h-4q-2 0 -5 1q-2 2 -4 3t-7 3l-7 5q-2 1 -3 2l-2 2l-1 2q0 1 -1 3t-1 4q0 4 4 8q0 2 4 6q2 0 3 1t4 1q2 2 11 2l4 -1q2 -1 5 -1q3 -3 8 -4q6 -3 8 -3
q6 0 8 5l5 2q0 2 -2.5 4t-4.5 4q0 1 -3 4l-5 5q-3 0 -5.5 2.5t-6.5 4.5h-6l-5 1q-6 0 -10 -0.5t-8 -0.5l-13 -9l-7 -8.5t-6 -6.5q-1 -4 -3 -7t-2 -9q0 -4 2 -7.5t3 -10.5l10 -11q5 -2 7.5 -5t6.5 -3q4 -2 7.5 -4t6.5 -2q4 -2 7 -2t6 -2q6 0 10 -4l4 -3q2 -2 2 -6q2 -2 2 -6
v-9q0 -3 -2 -5q0 -6 -6 -7q-6 -5 -7 -6t-3 -1q-7 0 -8 -1t-5 -1q-3 0 -6.5 1t-5.5 1q-2 1 -4 3l-4 4l-2 1q-5 4 -10 4h-7q-2 0 -4 -2l-6 -2q2 -1 2 -2t2 -1q0 -3 1 -4l3 -3v-2q6 -6 9 -6q7 -7 14.5 -9t17.5 -2h12q3 0 11 2q3 2 6.5 4t7.5 5l5 8q3 3 4 9zM78 350q-6 6 -7 17
l-3 10q-1 3 -1 10t4 16l2 10t5 10l4 6l5 7q2 2 6.5 4.5t6.5 4.5q6 7 11 8t9 3q3 0 8 1.5t10 1.5q7 0 14.5 -1.5t13.5 -5.5q8 -2 12.5 -6.5t8.5 -9.5q-2 -2 -4 -2v-4h-13q-4 2 -7 5t-7 3h-36l-22 -12q-4 -3 -7.5 -7.5t-4.5 -10.5q-2 -7 -3 -13t-1 -8q0 -9 4 -13q0 -5 0.5 -10
t0.5 -8l5 -4q4 -1 6 -7l7 -4q3 -1 8 -1q3 -4 5.5 -5t6.5 -3h33q2 2 7 3t9 5v29h-14v2q-2 0 -3 1.5t-3 3.5h-2q-1 1 -1 3v4h36v-51q-2 -5 -3.5 -6t-5.5 -8h-12q-8 -2 -12 -2h-34q-4 0 -9 3.5l-11 7.5q-2 0 -6.5 2.5t-6.5 6.5l-5 6.5t-4 7.5zM240 438v-44h56v-15h-56v-47h67
v-16h-84v140h84v-18h-67zM1171 438v-44h60v-15h-60v-47h68v-16h-84v140h84v-18h-68zM2375 759h-20q-3 0 -8 -5q-6 -5 -6 -10l-37 -47h-2q0 -2 -2 -2v2l-39 47q-1 7 -4 10q-5 5 -11 5h-18l58 -77v-2q0 -2 2 -2l2 -2v-72h21v70q2 0 2 2l2 4v2zM641 456v-85q0 -7 2 -10t5 -5
q0 -6 3.5 -9.5t5.5 -4.5q0 -2 4.5 -4t6.5 -4q6 -2 8 -2h16q1 0 5 2l9 4q2 1 3.5 2t3.5 2q3 1 8 14q4 3 4 15v85h14v-85q0 -12 -4 -23t-12 -16q-2 -5 -6.5 -9.5t-8.5 -4.5q-8 -1 -13.5 -1.5t-10.5 -0.5t-11 0.5t-14 1.5q-2 0 -6.5 4.5l-9.5 9.5l-10 16q-1 6 -3.5 11t-2.5 12
v85h14zM2253 625h-69v134h-21v-155h90v21zM1271 625h-67v134h-20v-155h87v21zM1452 336q1 2 2 3.5t2 3.5q2 2 3 6.5t1 6.5q0 9 -2 11t-3 4.5t-3 4.5q-1 1 -8 3q-4 0 -6 2t-6 2q-8 0 -14 6q-9 0 -13 7q-2 0 -3.5 3.5t-3.5 7.5v22q0 1 2 7q0 8 7 9l6 7q2 1 3.5 2t3.5 2
q5 0 7.5 1.5t8.5 1.5l6 -2l4 -1q4 0 5 -1t5 -3q2 0 4 -3.5t2 -5.5q4 0 6 -3l1 -2l-2 -2q-6 -2 -9 -2h-6q-2 2 -2 4h-23q-9 0 -9 -2q-5 -7 -5 -8q-4 0 -4 -8q0 -5 4 -6q0 -5 3 -6q0 -1 3 -4l4 -1q4 -4 7.5 -4t7.5 -3q3 0 4 -1l2 -1q4 0 8 -5h4q2 0 4 -2h2l8.5 -7t5.5 -4
q1 -5 1.5 -10.5t0.5 -9.5v-10q0 -5 -4 -6l-5.5 -7.5t-6.5 -5.5q-2 -2 -6 -5.5t-6 -3.5q-6 -2 -10 -2h-9q-11 0 -18.5 1t-12.5 10q-2 0 -3.5 2.5t-5.5 4.5v4l-2 2l4 2h7q1 0 3 -1t4 -1q4 -4 6.5 -5t4.5 -3h22q8 0 12 4zM1069 316l-59 140h6q6 0 8 -2t3 -2t3 -7l43 -103v-2
l2 -6v6l2 2q5 14 13 27.5t12 24.5q4 16 10 28l12 23q0 7 1.5 7t1.5 2q6 2 7 2h11l-15.5 -35t-16.5 -34q-4 -9 -7 -18.5l-6 -18.5l-16 -34h-15zM532 438v-49h60v-12h-60v-61h-16v140h85v-18h-69zM1959 438v-49h54v-12h-54v-61h-16v140h81v-18h-65zM879 456v-124h63v-16h-80
v140h17zM371 316v122h-46v18h105v-18h-47v-122h-12zM784 456v-124h64v-16h-80v140h16zM270 728q2 -1 3 -4t3 -5q4 -4 4 -9v-4q0 -5 -4 -9q-2 -2 -3 -4.5t-3 -2.5l-4 -4l-4 -4h-46v53h36q4 0 10 -2q1 0 4 -3zM1325 389q4 0 6 3q4 4 9 4l2 5q0 2 5 6q0 1 1 4t1 7q0 2 -1 3.5
t-1 4.5q-7 3 -7 8q-5 0 -9 4h-44v-49h38zM2101 392q4 4 7 4q7 7 7 11q2 4 2 11q0 4 -2 8q0 2 -7 8q-3 0 -7 4h-44v-49h36q3 0 8 3zM1525 456v-140h-18v140h18zM518 701l-4 -7q-2 0 -3 -2t-3 -2q-2 -2 -10 -2h-33v47h33q4 0 10 -2q2 0 6 -5q1 -2 2 -3.5t2 -3.5q3 -2 3 -9
q0 -5 -3 -11zM684 129l-27 69q0 2 -1 3l-1 2q0 4 -3 6v-6l-1 -2q-1 -1 -1 -3l-27 -69h61zM1093 727v-4l27 -64h-59l30 64v5zM1755 82q6 0 6 -6q2 -2 2 -5v-4q0 -9 -2 -11q0 -5 -6 -9q-3 0 -6 -4h-17q-4 4 -11 4q0 2 -5 9q-2 2 -2 11v4q0 3 2 5l3 4l2 2q7 4 11 4q1 3 4 3h10
q3 0 3 -3q3 0 6 -4z" />
    <glyph glyph-name="eight" unicode="8" 
d="M2478 1093v-587h-2404v587h910q0 30 5.5 58t20.5 53q12 29 26 52.5t37 41.5q39 42 91 62q28 12 55.5 17t56.5 5q33 0 61.5 -6.5t53.5 -15.5q27 -14 50.5 -29.5t45.5 -36.5q35 -38 60 -94q11 -27 15.5 -54t4.5 -53h911zM1030 1194q-20 -49 -20 -101q0 -58 20 -106
q10 -22 24.5 -43.5l29.5 -42.5q20 -17 41.5 -32t45.5 -25q46 -23 105 -23q31 0 56.5 4.5t47.5 16.5q48 19 83 57q22 20 35.5 41l26.5 43q20 54 20 110q0 20 -3.5 43.5t-11.5 47.5q-14 40 -43 72q-14 20 -29.5 33.5t-34.5 25.5l-76 36l-33 6t-38 3q-29 0 -55.5 -5.5
t-51.5 -19.5q-50 -19 -85 -57q-17 -19 -30.5 -39.5t-23.5 -44.5zM1142 936l314 317q62 -80 62 -160q0 -24 -3.5 -45.5t-11.5 -41.5q-8 -19 -17.5 -37t-23.5 -33h-320zM1095 928q-14 17 -25 36.5t-19 39.5q-9 18 -12.5 40.5t-3.5 48.5q0 18 3.5 39t12.5 43q7 35 40 68h318z
M1135 207q2 -4 4.5 -11t5.5 -14q2 -10 2 -14v-32q0 -5 -2 -11l-6 -15l-4 -14q-6 -4 -10.5 -10t-8.5 -10q-6 -5 -11 -10.5t-10 -9.5q-9 -5 -15.5 -7l-12.5 -4q-10 -2 -15 -2h-17q-9 0 -19 2t-23 4q-12 6 -18.5 13t-17.5 14q-15 14 -21 35q-4 10 -6 19.5t-2 23.5v14q0 4 2 14
q4 17 12 25q4 8 7.5 13l7.5 11q9 5 13.5 9.5t10.5 9.5l12 4l17 6q5 0 11.5 1t13.5 1q10 0 17 -1t15 -1q6 -4 12.5 -6t15.5 -4q5 -5 10 -9.5l11 -9.5q4 -6 8.5 -11t10.5 -13zM2195 207q4 -4 6.5 -11t4.5 -14q4 -7 4 -14v-32q0 -7 -4 -11l-4.5 -15t-6.5 -14l-16 -20l-12 -10
l-14 -10q-5 -5 -12 -7t-13 -4q-8 -2 -14 -2h-17q-19 0 -43 6q-8 6 -16 13t-17 14q-8 6 -14 14t-8 21q-6 10 -7.5 19.5t-1.5 23.5q0 8 1 14t1 14l6 14t7 11q2 8 6 13t10 11q3 5 10.5 9.5t12.5 9.5q4 2 11 4t13 6q11 0 17 1t12 1q9 0 17 -1t14 -1q6 -4 13 -6t12 -4l26 -19
q2 -6 8 -11t8 -13zM2433 260l1 1q1 1 6 1h38v-219h-38v160l-5 -9v-8q0 -2 -2 -4l-13 -34.5t-16 -31.5q-6 -20 -12 -36.5t-14 -36.5h-37l-55 139q-6 3 -6 12q0 4 -1 4l-2 2v-157h-42v219h40q5 0 6.5 -1t4.5 -1q2 -2 3 -2t4 -2l7 -4q0 -2 2 -3.5t2 -3.5q4 -18 11 -32.5
l16 -34.5l12 -33q3 -8 6 -15l6 -14v-14q3 0 4 -4q0 4 1 4v14l11 13l44 116q0 1 2 3l2 4q0 1 3 3l3 1q2 2 4 2t4 2zM1329 262h38v-219h-36l-100 146l-4 5v2q-3 4 -3 5q-4 1 -4 4q0 4 -7 4v-166h-37v219h33q4 0 9.5 -1t5.5 -3q3 -2 5 -2t4 -2l22 -33q6 -8 11 -16.5t10 -19.5
q13 -13 24 -29t25 -29q0 -2 1 -4.5t1 -6.5l1 -3q0 -2 1 -3v152zM672 262l94 -219h-25q-9 0 -16 4q-2 2 -4 6.5t-6 8.5l-14 27h-100l-9 -27q0 -6 -4 -6q-2 -5 -4 -5l-3 -4q-2 0 -4.5 -1t-6.5 -1q0 -2 -2 -2h-27l96 219h35zM260 262h139v-39h-100v-49h82v-41h-82v-51h100v-39
h-139v219zM839 659q1 7 2 11t1 10q0 12 -3 21q0 7 -4.5 10.5t-6.5 9.5l-4.5 6.5t-6.5 7.5l-7 6q-2 3 -9 9q-4 2 -8 4.5t-11 4.5q-5 0 -9.5 0.5t-10.5 0.5q-3 0 -8.5 -0.5t-12.5 -0.5q-6 -2 -10 -4.5t-8 -4.5q-4 -6 -7.5 -8.5t-7.5 -6.5q-13 -7 -14 -14q-4 -6 -5 -9.5
l-3 -10.5q-1 -5 -1.5 -10t-0.5 -11t2 -14.5t4 -15.5t6.5 -12.5t11.5 -12.5q10 -15 25 -15q10 -6 29 -6h20q15 5 19 8q11 4 16 13q3 4 6 7.5t5 8.5q2 4 6.5 9t4.5 9zM1966 659v42l-7 20q-5 7 -15 14q-1 4 -6 6.5t-10 8.5l-4 2t-5 2l-7 5q-7 0 -12 0.5t-10 0.5q-6 0 -11 -0.5
t-9 -0.5l-22 -9q-3 -6 -6 -8.5t-7 -6.5q-3 -4 -6.5 -7t-5.5 -7q-2 -6 -4.5 -9.5t-2.5 -10.5q-6 -9 -6 -21q0 -6 3 -14.5t6 -15.5q4 -15 16 -25q7 -15 26 -15q10 -6 29 -6h22q3 2 8 4t8 4l10 6t6 7q11 8 15 16zM74 262h158v-24q0 -4 -1 -6q0 -3 -2 -5l-4 -4l-105 -143h1l2 2
h108v-39h-164v13q0 11 2 13q0 2 5 7v4l2 4q2 2 4 3.5t2 6.5l94 129h-102v39zM1839 203q-4 -4 -7 -10.5l-7 -14.5q-2 -4 -4 -10t-2 -14q0 -7 2 -15l4 -12q2 -7 6 -14.5t8 -10.5q4 -4 9.5 -8.5t14.5 -7.5q12 -4 27 -4q5 0 10 1t12 1q3 2 8 5t8 7q3 0 9 2h13q3 0 9 -2
q2 -1 3.5 -3t3.5 -4l6 -7q-3 -4 -6 -7.5t-7 -7.5l-11.5 -8t-12.5 -6q-7 -4 -11.5 -5t-10.5 -3t-11 -2h-12q-12 0 -23.5 2t-21.5 4q-10 5 -18.5 12t-16.5 15q-16 13 -22 35q-4 10 -7 19.5t-3 23.5q0 10 1 14l4 14q1 7 3 14t6 11q6 8 8.5 13t9.5 11q14 9 25 19q4 2 9.5 4
t18.5 6q5 0 12 1t15 1h13q4 0 10 -2t10.5 -3t11.5 -3q8 -4 12.5 -6.5t11.5 -7.5l13 -17l-6 -8q-2 -1 -5 -4l-2 -4h-15q-7 0 -16 4l-16 10q-10 2 -12 2h-10q-17 0 -27 -7q-17 -1 -24 -13zM1690 151l7 -10.5t3 -7.5q6 -8 6 -20q0 -15 -8 -29l-8 -12l-9 -10q-7 -6 -11.5 -9.5
t-12.5 -5.5q-5 -2 -14 -3t-15 -1q-8 0 -14.5 1l-19.5 3q-5 2 -10 6.5t-11 13.5q-4 1 -6 5l-4 8q-7 2 -7 9l7 5q2 2 4 2h4l2 2h10q4 0 4 -2q7 0 9 -2q7 -5 10.5 -6.5t5.5 -3.5q2 0 6 -1t10 -1h5q2 0 6 2q5 1 8 2t7 3q6 6 7 9q2 4 4 7.5t2 7.5q0 7 -6 10q-5 6 -7 6
q-2 4 -7.5 5t-7.5 2q-6 0 -14 7q-5 0 -9 1t-9 7q-11 3 -14.5 6t-7.5 7q-12 4 -12 14q-6 10 -6 25q0 18 6 26l6 11l8 10q4 2 10 4t13 6q6 0 10.5 1t13.5 1q4 0 8.5 -1t11.5 -1l15 -6q3 -4 6.5 -6.5t7.5 -7.5q4 -2 7.5 -5.5t3.5 -7.5l-7 -4q-4 -2 -7 -4.5t-3 -3.5h-18l-5 1
l-7 5q-2 0 -4 1t-4 1h-17q-2 0 -3 -1t-5 -3q-2 -3 -6 -6q-1 -3 -1 -10q0 -5 1 -5q2 -2 3 -5.5t3 -7.5h6q1 0 5 -2q5 -1 9.5 -3t10.5 -4l9 -2q5 -4 9 -5t9 -5q5 -2 10 -5t8 -8zM1579 336q-12 7 -16 20q-7 17 -7 31v16l11 20l12 13q6 7 12 9q3 7 9.5 8t9.5 3q4 0 8 1.5t10 1.5
q4 0 10.5 -1.5t10.5 -1.5q5 -2 8.5 -3t7.5 -8q2 -2 5.5 -4.5l6.5 -4.5l13 -13l8 -20q0 -4 1 -9t1 -7q0 -6 -1 -14t-5 -17q-5 -13 -17 -20l-9.5 -7.5t-11.5 -10.5q-5 -1 -12 -1.5t-16 -0.5h-15q-4 0 -10 2q-18 7 -24 18zM2284 336l-13.5 -7.5t-11.5 -10.5q-8 -2 -12 -2h-30
q-5 0 -13 2q-7 4 -12.5 8.5t-10.5 9.5q-6 6 -13 20q-2 9 -4.5 17t-2.5 14q0 2 1 7t1 9q3 5 4 10t4 10q2 3 5 6t5 7q6 4 18 9q3 7 8 8t7 3q6 0 9 1.5t10 1.5q2 0 8.5 -1.5t11.5 -1.5q4 -2 7.5 -3t6.5 -8l17 -9q2 -4 4 -7t5 -6q2 -5 4 -9.5t3 -10.5q2 -4 3 -9t1 -7
q0 -6 -1 -14t-5 -17q0 -6 -5 -11zM2166 127q5 12 5 27q0 16 -5 24q-3 9 -8 15.5t-8 9.5q-10 10 -24 13q-4 5 -12 6t-17 1q-12 0 -25 -7q-8 -1 -13 -4t-11 -9q-4 -3 -7.5 -9.5l-8.5 -15.5q0 -4 -1 -10t-1 -14q0 -9 1 -15t1 -12q4 -8 8 -14t8 -11q6 -4 11 -8.5t13 -7.5
q7 -2 14 -3t11 -1q9 0 17 1t12 3q8 3 14 7.5t10 8.5q11 11 16 25zM1104 127q4 11 4 27q0 13 -4 24q-2 9 -6.5 15.5t-13.5 9.5q-2 6 -7.5 9t-11.5 4q-11 7 -30 7q-14 0 -25 -7q-11 -1 -23 -13q-6 -3 -9 -9.5t-5 -15.5q-5 -5 -5 -10v-29q0 -5 5 -12q2 -7 5 -14.5t9 -10.5
q6 -4 11 -8.5t12 -7.5q11 -4 25 -4q19 0 30 4q13 7 19 16q9 3 13.5 10.5t6.5 14.5zM774 262h139v-39h-100v-55h82v-39h-82v-86h-39v219zM570 223h-58v-180h-43v180h-62v39h163v-39zM1188 864q-19 7 -37 19t-35 26h322q-18 -14 -36 -26t-36 -19l-45.5 -11t-44.5 -5
q-25 0 -45.5 5t-42.5 11zM1389 262h165v-39h-65v-180h-39v180h-61v39zM1366 1315q18 -8 36 -20.5t36 -22.5h-325q38 30 75 43q37 18 88 18q48 0 90 -18zM559 604l-47 68q4 0 11 4q8 5 9 10q9 5 9 11v26q0 1 -2 5q-3 10 -11 15q-5 9 -14 9q-2 5 -6.5 6t-9.5 1h-57v-155h24v64
h23l40 -56q1 -4 8 -6q2 -2 3 -2h20zM1169 604l-67 155h-22l-65 -155h11q7 0 9 2q0 2 7 6l11 27h76l13 -27q1 -4 5 -6q2 -2 8 -2h14zM1930 721q3 -2 8 -7.5t6 -12.5q4 -7 4 -21q0 -12 -4 -23q-1 -5 -6 -9.5t-8 -6.5q-5 -4 -9 -6.5t-8 -7.5q-9 -4 -23 -4q-6 0 -12 1t-10 3
q-5 5 -10.5 7.5t-9.5 6.5q-3 2 -6 6.5t-3 9.5q-4 7 -5 12t-1 11q0 10 6 21q0 7 3 12.5t6 7.5q4 4 9.5 7t10.5 5q9 4 22 4q5 0 11.5 -1t11.5 -3zM801 721q7 -2 9.5 -7.5t4.5 -12.5q4 -7 4 -21q0 -11 -4 -23q-2 -5 -4.5 -9.5t-9.5 -6.5q-1 -4 -6 -7l-11 -7q-9 -4 -22 -4
q-11 0 -23 4q-4 5 -9 7.5t-9 6.5q-2 2 -5.5 6.5t-5.5 9.5q-4 12 -4 23q0 12 4 21q2 7 5.5 12.5t5.5 7.5q4 4 9 7t9 5q5 2 12.5 3t10.5 1q13 0 22 -4q8 -2 11.5 -5t5.5 -7zM2126 759h-22v-120q-1 2 -2 5t-3 4l-75 104l-3 7h-24v-155h22v121l2 -2l87 -119h18v155zM2218 332h31
l6 3q3 3 4 5q6 0 14 5q2 5 3 7t4 4q0 3 3 8t3 10v34q-3 6 -7 10.5t-6 7.5q-10 4 -18 12h-43q-6 -4 -9.5 -7t-9.5 -5q-5 -3 -7.5 -7.5t-4.5 -10.5q-1 -4 -1.5 -7t-0.5 -7v-20q0 -13 5 -18q2 -2 4.5 -4t4.5 -7l7 -3q2 -2 4 -2q4 -4 7 -5t7 -3zM296 690q5 12 5 20q0 9 -5 18
q0 2 -5 7l-6 6q-2 3 -5 7t-10 4q-3 5 -8.5 6t-9.5 1h-52v-155h16v59h36q4 0 9.5 0.5t8.5 2.5q10 4 15 10q4 2 7.5 6t3.5 8zM1579 408q-6 -14 -6 -21v-8q0 -4 3 -5q0 -10 5 -18q0 -2 2 -4t4 -7l5 -3q2 -2 11 -2q2 -4 5.5 -5t5.5 -3h27q6 2 9.5 3t6.5 5l6 2l4 3q2 5 4.5 7
t2.5 4q3 3 4 8t3 10q0 2 1 5.5t1 7.5q0 2 -1 8t-5 13q0 6 -4 10.5t-6 7.5q-3 1 -8 6l-10 6h-42q-4 -4 -10 -7l-10 -5l-5 -8q-3 -5 -3 -10zM997 759h-18v-120l-2 4q-2 6 -2 5l-74 104q-5 0 -6 7h-25v-155h21v124h2l2 -1v-4l86 -119h16v155zM2115 381q-5 -1 -8.5 -2t-5.5 -2
l45 -61h-12l-6 2q-4 0 -4 9l-39 50h-28v-61h-15v140h57q3 0 9 -2q2 -2 6.5 -5.5t5.5 -5.5q4 -2 5 -5.5t7 -7.5v-27q-4 -4 -5 -8t-3 -6zM1342 381q-3 -3 -11 -4l47 -61h-15q-3 0 -3 2q-6 0 -6 9l-39 50h-28v-61h-13v140h56q2 0 6 -2q10 -1 18 -11q0 -2 3 -5.5t3 -7.5
q2 -2 2 -6v-14q0 -1 -2 -7q0 -10 -4 -14l-5 -4q-3 -3 -9 -4zM412 759h-98v-155h98v21h-74v47h58v18h-58v45h74v24zM1721 759h-93v-155h93v21h-69v47h58v18h-58v45h69v24zM2460 454q6 2 5 2h13v-140h-12v114l-2 -2v-2q-4 -8 -6.5 -17.5t-8.5 -14.5q-5 -7 -7 -12.5t-7 -14.5
q-2 -9 -3 -15.5t-5 -9.5q-3 -8 -6.5 -12.5t-5.5 -13.5h-15q-10 14 -15 27t-10 28q-4 12 -12 26.5t-12 28.5v2h-4v-112h-14v140h14q4 0 6 -2l2 -2v-7l49 -105q0 -4 2 -4l1 2v4q0 2 8 6l41 97q2 7 3 7t1 2zM1480 759h-22v-104q0 -4 -2 -8q-1 -7 -10 -12q0 -2 -4 -3.5t-6 -6.5
l-9 -2h-9q-7 0 -13 2q-5 5 -8.5 6.5t-5.5 3.5l-11 12q0 3 -1 7.5t-1 11.5v93h-20v-93q0 -7 1 -11.5t1 -7.5q0 -8 6 -14q3 -8 10 -12q2 -4 4.5 -6.5t8.5 -4.5q2 -2 6.5 -3t7.5 -3q4 0 7 -1.5t8 -1.5t8.5 1.5t11.5 1.5q2 2 5 3t7 3q3 2 6 4.5t6 6.5q3 2 5 5.5t7 6.5q0 4 3 7
t3 7v112zM664 632q2 5 3 8t1 8q0 12 -5.5 20t-12.5 14q-2 0 -3.5 2t-5.5 4l-4 2h-4q-1 0 -1 4q-8 0 -9 1q-8 2 -9.5 3t-5.5 3q-6 5 -9 5q-3 4 -3 6v15q0 1 1.5 2.5t1.5 3.5q2 0 4.5 1t4.5 1q6 2 5 2h10q2 -2 4 -2q7 0 8 -4q1 -3 4 -3h2q9 0 14 5l4 2q0 2 -2 4l-5 4
q-2 1 -4.5 4t-6.5 5q-2 0 -4 2.5t-5 4.5q-5 0 -7 0.5t-4 0.5q-7 0 -12 -0.5t-8 -0.5q-5 -2 -7 -4.5t-6 -4.5q-2 -6 -5.5 -8.5t-8.5 -6.5q0 -4 -2 -7t-2 -9t4 -18l12 -11q2 -2 6 -5t7 -3q5 -2 8 -4t7 -2q1 -2 6 -2t7 -2l6 -2q2 0 4 -2t2 -3t2 -6q2 -2 2 -7v-9q0 -2 -2 -4
t-2 -4t-2 -3q-2 -5 -6 -6l-4 -1q-4 0 -8 -1t-5 -1q-4 0 -7 1t-6 1q-2 0 -3.5 1t-1.5 6l-4 1q-4 4 -11 4h-7l-4 -2l-5 -2q0 -3 3 -3q0 -3 2 -5q0 -4 4 -4v-6h5q7 -7 16 -9t19 -2h10q5 0 11 2q4 2 8.5 4t6.5 5q13 5 14 17zM1741 316h-18v140h20q3 0 4 -4l74 -104q2 0 2 -5
l2 -1v114h14v-140h-12l-82 114v4h-4v-118zM1596 632q9 7 9 16q0 12 -5.5 20t-12.5 14q-6 4 -6 6h-4l-4 2h-3q-4 0 -5 4h-4q-2 0 -5 1q-2 2 -4 3t-7 3l-7 5q-2 1 -3 2l-2 2l-1 2q0 1 -1 3t-1 4q0 4 4 8q0 2 4 6q2 0 3 1t4 1q2 2 11 2l4 -1q2 -1 5 -1q3 -3 8 -4q6 -3 8 -3
q6 0 8 5l5 2q0 2 -2.5 4t-4.5 4q0 1 -3 4l-5 5q-3 0 -5.5 2.5t-6.5 4.5h-6l-5 1q-6 0 -10 -0.5t-8 -0.5l-13 -9l-7 -8.5t-6 -6.5q-1 -4 -3 -7t-2 -9q0 -4 2 -7.5t3 -10.5l10 -11q5 -2 7.5 -5t6.5 -3q4 -2 7.5 -4t6.5 -2q4 -2 7 -2t6 -2q6 0 10 -4l4 -3q2 -2 2 -6q2 -2 2 -6
v-9q0 -3 -2 -5q0 -6 -6 -7q-6 -5 -7 -6t-3 -1q-7 0 -8 -1t-5 -1q-3 0 -6.5 1t-5.5 1q-2 1 -4 3l-4 4l-2 1q-5 4 -10 4h-7q-2 0 -4 -2l-6 -2q2 -1 2 -2t2 -1q0 -3 1 -4l3 -3v-2q6 -6 9 -6q7 -7 14.5 -9t17.5 -2h12q3 0 11 2q3 2 6.5 4t7.5 5l5 8q3 3 4 9zM78 350q-6 6 -7 17
l-3 10q-1 3 -1 10t4 16l2 10t5 10l4 6l5 7q2 2 6.5 4.5t6.5 4.5q6 7 11 8t9 3q3 0 8 1.5t10 1.5q7 0 14.5 -1.5t13.5 -5.5q8 -2 12.5 -6.5t8.5 -9.5q-2 -2 -4 -2v-4h-13q-4 2 -7 5t-7 3h-36l-22 -12q-4 -3 -7.5 -7.5t-4.5 -10.5q-2 -7 -3 -13t-1 -8q0 -9 4 -13q0 -5 0.5 -10
t0.5 -8l5 -4q4 -1 6 -7l7 -4q3 -1 8 -1q3 -4 5.5 -5t6.5 -3h33q2 2 7 3t9 5v29h-14v2q-2 0 -3 1.5t-3 3.5h-2q-1 1 -1 3v4h36v-51q-2 -5 -3.5 -6t-5.5 -8h-12q-8 -2 -12 -2h-34q-4 0 -9 3.5l-11 7.5q-2 0 -6.5 2.5t-6.5 6.5l-5 6.5t-4 7.5zM240 438v-44h56v-15h-56v-47h67
v-16h-84v140h84v-18h-67zM1171 438v-44h60v-15h-60v-47h68v-16h-84v140h84v-18h-68zM2375 759h-20q-3 0 -8 -5q-6 -5 -6 -10l-37 -47h-2q0 -2 -2 -2v2l-39 47q-1 7 -4 10q-5 5 -11 5h-18l58 -77v-2q0 -2 2 -2l2 -2v-72h21v70q2 0 2 2l2 4v2zM641 456v-85q0 -7 2 -10t5 -5
q0 -6 3.5 -9.5t5.5 -4.5q0 -2 4.5 -4t6.5 -4q6 -2 8 -2h16q1 0 5 2l9 4q2 1 3.5 2t3.5 2q3 1 8 14q4 3 4 15v85h14v-85q0 -12 -4 -23t-12 -16q-2 -5 -6.5 -9.5t-8.5 -4.5q-8 -1 -13.5 -1.5t-10.5 -0.5t-11 0.5t-14 1.5q-2 0 -6.5 4.5l-9.5 9.5l-10 16q-1 6 -3.5 11t-2.5 12
v85h14zM2253 625h-69v134h-21v-155h90v21zM1271 625h-67v134h-20v-155h87v21zM1452 336q1 2 2 3.5t2 3.5q2 2 3 6.5t1 6.5q0 9 -2 11t-3 4.5t-3 4.5q-1 1 -8 3q-4 0 -6 2t-6 2q-8 0 -14 6q-9 0 -13 7q-2 0 -3.5 3.5t-3.5 7.5v22q0 1 2 7q0 8 7 9l6 7q2 1 3.5 2t3.5 2
q5 0 7.5 1.5t8.5 1.5l6 -2l4 -1q4 0 5 -1t5 -3q2 0 4 -3.5t2 -5.5q4 0 6 -3l1 -2l-2 -2q-6 -2 -9 -2h-6q-2 2 -2 4h-23q-9 0 -9 -2q-5 -7 -5 -8q-4 0 -4 -8q0 -5 4 -6q0 -5 3 -6q0 -1 3 -4l4 -1q4 -4 7.5 -4t7.5 -3q3 0 4 -1l2 -1q4 0 8 -5h4q2 0 4 -2h2l8.5 -7t5.5 -4
q1 -5 1.5 -10.5t0.5 -9.5v-10q0 -5 -4 -6l-5.5 -7.5t-6.5 -5.5q-2 -2 -6 -5.5t-6 -3.5q-6 -2 -10 -2h-9q-11 0 -18.5 1t-12.5 10q-2 0 -3.5 2.5t-5.5 4.5v4l-2 2l4 2h7q1 0 3 -1t4 -1q4 -4 6.5 -5t4.5 -3h22q8 0 12 4zM1069 316l-59 140h6q6 0 8 -2t3 -2t3 -7l43 -103v-2
l2 -6v6l2 2q5 14 13 27.5t12 24.5q4 16 10 28l12 23q0 7 1.5 7t1.5 2q6 2 7 2h11l-15.5 -35t-16.5 -34q-4 -9 -7 -18.5l-6 -18.5l-16 -34h-15zM532 438v-49h60v-12h-60v-61h-16v140h85v-18h-69zM1959 438v-49h54v-12h-54v-61h-16v140h81v-18h-65zM879 456v-124h63v-16h-80
v140h17zM371 316v122h-46v18h105v-18h-47v-122h-12zM784 456v-124h64v-16h-80v140h16zM270 728q2 -1 3 -4t3 -5q4 -4 4 -9v-4q0 -5 -4 -9q-2 -2 -3 -4.5t-3 -2.5l-4 -4l-4 -4h-46v53h36q4 0 10 -2q1 0 4 -3zM1325 389q4 0 6 3q4 4 9 4l2 5q0 2 5 6q0 1 1 4t1 7q0 2 -1 3.5
t-1 4.5q-7 3 -7 8q-5 0 -9 4h-44v-49h38zM2101 392q4 4 7 4q7 7 7 11q2 4 2 11q0 4 -2 8q0 2 -7 8q-3 0 -7 4h-44v-49h36q3 0 8 3zM1525 456v-140h-18v140h18zM518 701l-4 -7q-2 0 -3 -2t-3 -2q-2 -2 -10 -2h-33v47h33q4 0 10 -2q2 0 6 -5q1 -2 2 -3.5t2 -3.5q3 -2 3 -9
q0 -5 -3 -11zM684 129l-27 69q0 2 -1 3l-1 2q0 4 -3 6v-6l-1 -2q-1 -1 -1 -3l-27 -69h61zM1093 727v-4l27 -64h-59l30 64v5zM1755 82q6 0 6 -6q2 -2 2 -5v-4q0 -9 -2 -11q0 -5 -6 -9q-3 0 -6 -4h-17q-4 4 -11 4q0 2 -5 9q-2 2 -2 11v4q0 3 2 5l3 4l2 2q7 4 11 4q1 3 4 3h10
q3 0 3 -3q3 0 6 -4z" />
    <glyph glyph-name="nine" unicode="9" 
d="M2478 1093v-587h-2404v587h910q0 30 5.5 58t20.5 53q12 29 26 52.5t37 41.5q39 42 91 62q28 12 55.5 17t56.5 5q33 0 61.5 -6.5t53.5 -15.5q27 -14 50.5 -29.5t45.5 -36.5q35 -38 60 -94q11 -27 15.5 -54t4.5 -53h911zM1030 1194q-20 -49 -20 -101q0 -58 20 -106
q10 -22 24.5 -43.5l29.5 -42.5q20 -17 41.5 -32t45.5 -25q46 -23 105 -23q31 0 56.5 4.5t47.5 16.5q48 19 83 57q22 20 35.5 41l26.5 43q20 54 20 110q0 20 -3.5 43.5t-11.5 47.5q-14 40 -43 72q-14 20 -29.5 33.5t-34.5 25.5l-76 36l-33 6t-38 3q-29 0 -55.5 -5.5
t-51.5 -19.5q-50 -19 -85 -57q-17 -19 -30.5 -39.5t-23.5 -44.5zM1142 936l314 317q62 -80 62 -160q0 -24 -3.5 -45.5t-11.5 -41.5q-8 -19 -17.5 -37t-23.5 -33h-320zM1095 928q-14 17 -25 36.5t-19 39.5q-9 18 -12.5 40.5t-3.5 48.5q0 18 3.5 39t12.5 43q7 35 40 68h318z
M1135 207q2 -4 4.5 -11t5.5 -14q2 -10 2 -14v-32q0 -5 -2 -11l-6 -15l-4 -14q-6 -4 -10.5 -10t-8.5 -10q-6 -5 -11 -10.5t-10 -9.5q-9 -5 -15.5 -7l-12.5 -4q-10 -2 -15 -2h-17q-9 0 -19 2t-23 4q-12 6 -18.5 13t-17.5 14q-15 14 -21 35q-4 10 -6 19.5t-2 23.5v14q0 4 2 14
q4 17 12 25q4 8 7.5 13l7.5 11q9 5 13.5 9.5t10.5 9.5l12 4l17 6q5 0 11.5 1t13.5 1q10 0 17 -1t15 -1q6 -4 12.5 -6t15.5 -4q5 -5 10 -9.5l11 -9.5q4 -6 8.5 -11t10.5 -13zM2195 207q4 -4 6.5 -11t4.5 -14q4 -7 4 -14v-32q0 -7 -4 -11l-4.5 -15t-6.5 -14l-16 -20l-12 -10
l-14 -10q-5 -5 -12 -7t-13 -4q-8 -2 -14 -2h-17q-19 0 -43 6q-8 6 -16 13t-17 14q-8 6 -14 14t-8 21q-6 10 -7.5 19.5t-1.5 23.5q0 8 1 14t1 14l6 14t7 11q2 8 6 13t10 11q3 5 10.5 9.5t12.5 9.5q4 2 11 4t13 6q11 0 17 1t12 1q9 0 17 -1t14 -1q6 -4 13 -6t12 -4l26 -19
q2 -6 8 -11t8 -13zM2433 260l1 1q1 1 6 1h38v-219h-38v160l-5 -9v-8q0 -2 -2 -4l-13 -34.5t-16 -31.5q-6 -20 -12 -36.5t-14 -36.5h-37l-55 139q-6 3 -6 12q0 4 -1 4l-2 2v-157h-42v219h40q5 0 6.5 -1t4.5 -1q2 -2 3 -2t4 -2l7 -4q0 -2 2 -3.5t2 -3.5q4 -18 11 -32.5
l16 -34.5l12 -33q3 -8 6 -15l6 -14v-14q3 0 4 -4q0 4 1 4v14l11 13l44 116q0 1 2 3l2 4q0 1 3 3l3 1q2 2 4 2t4 2zM1329 262h38v-219h-36l-100 146l-4 5v2q-3 4 -3 5q-4 1 -4 4q0 4 -7 4v-166h-37v219h33q4 0 9.5 -1t5.5 -3q3 -2 5 -2t4 -2l22 -33q6 -8 11 -16.5t10 -19.5
q13 -13 24 -29t25 -29q0 -2 1 -4.5t1 -6.5l1 -3q0 -2 1 -3v152zM672 262l94 -219h-25q-9 0 -16 4q-2 2 -4 6.5t-6 8.5l-14 27h-100l-9 -27q0 -6 -4 -6q-2 -5 -4 -5l-3 -4q-2 0 -4.5 -1t-6.5 -1q0 -2 -2 -2h-27l96 219h35zM260 262h139v-39h-100v-49h82v-41h-82v-51h100v-39
h-139v219zM839 659q1 7 2 11t1 10q0 12 -3 21q0 7 -4.5 10.5t-6.5 9.5l-4.5 6.5t-6.5 7.5l-7 6q-2 3 -9 9q-4 2 -8 4.5t-11 4.5q-5 0 -9.5 0.5t-10.5 0.5q-3 0 -8.5 -0.5t-12.5 -0.5q-6 -2 -10 -4.5t-8 -4.5q-4 -6 -7.5 -8.5t-7.5 -6.5q-13 -7 -14 -14q-4 -6 -5 -9.5
l-3 -10.5q-1 -5 -1.5 -10t-0.5 -11t2 -14.5t4 -15.5t6.5 -12.5t11.5 -12.5q10 -15 25 -15q10 -6 29 -6h20q15 5 19 8q11 4 16 13q3 4 6 7.5t5 8.5q2 4 6.5 9t4.5 9zM1966 659v42l-7 20q-5 7 -15 14q-1 4 -6 6.5t-10 8.5l-4 2t-5 2l-7 5q-7 0 -12 0.5t-10 0.5q-6 0 -11 -0.5
t-9 -0.5l-22 -9q-3 -6 -6 -8.5t-7 -6.5q-3 -4 -6.5 -7t-5.5 -7q-2 -6 -4.5 -9.5t-2.5 -10.5q-6 -9 -6 -21q0 -6 3 -14.5t6 -15.5q4 -15 16 -25q7 -15 26 -15q10 -6 29 -6h22q3 2 8 4t8 4l10 6t6 7q11 8 15 16zM74 262h158v-24q0 -4 -1 -6q0 -3 -2 -5l-4 -4l-105 -143h1l2 2
h108v-39h-164v13q0 11 2 13q0 2 5 7v4l2 4q2 2 4 3.5t2 6.5l94 129h-102v39zM1839 203q-4 -4 -7 -10.5l-7 -14.5q-2 -4 -4 -10t-2 -14q0 -7 2 -15l4 -12q2 -7 6 -14.5t8 -10.5q4 -4 9.5 -8.5t14.5 -7.5q12 -4 27 -4q5 0 10 1t12 1q3 2 8 5t8 7q3 0 9 2h13q3 0 9 -2
q2 -1 3.5 -3t3.5 -4l6 -7q-3 -4 -6 -7.5t-7 -7.5l-11.5 -8t-12.5 -6q-7 -4 -11.5 -5t-10.5 -3t-11 -2h-12q-12 0 -23.5 2t-21.5 4q-10 5 -18.5 12t-16.5 15q-16 13 -22 35q-4 10 -7 19.5t-3 23.5q0 10 1 14l4 14q1 7 3 14t6 11q6 8 8.5 13t9.5 11q14 9 25 19q4 2 9.5 4
t18.5 6q5 0 12 1t15 1h13q4 0 10 -2t10.5 -3t11.5 -3q8 -4 12.5 -6.5t11.5 -7.5l13 -17l-6 -8q-2 -1 -5 -4l-2 -4h-15q-7 0 -16 4l-16 10q-10 2 -12 2h-10q-17 0 -27 -7q-17 -1 -24 -13zM1690 151l7 -10.5t3 -7.5q6 -8 6 -20q0 -15 -8 -29l-8 -12l-9 -10q-7 -6 -11.5 -9.5
t-12.5 -5.5q-5 -2 -14 -3t-15 -1q-8 0 -14.5 1l-19.5 3q-5 2 -10 6.5t-11 13.5q-4 1 -6 5l-4 8q-7 2 -7 9l7 5q2 2 4 2h4l2 2h10q4 0 4 -2q7 0 9 -2q7 -5 10.5 -6.5t5.5 -3.5q2 0 6 -1t10 -1h5q2 0 6 2q5 1 8 2t7 3q6 6 7 9q2 4 4 7.5t2 7.5q0 7 -6 10q-5 6 -7 6
q-2 4 -7.5 5t-7.5 2q-6 0 -14 7q-5 0 -9 1t-9 7q-11 3 -14.5 6t-7.5 7q-12 4 -12 14q-6 10 -6 25q0 18 6 26l6 11l8 10q4 2 10 4t13 6q6 0 10.5 1t13.5 1q4 0 8.5 -1t11.5 -1l15 -6q3 -4 6.5 -6.5t7.5 -7.5q4 -2 7.5 -5.5t3.5 -7.5l-7 -4q-4 -2 -7 -4.5t-3 -3.5h-18l-5 1
l-7 5q-2 0 -4 1t-4 1h-17q-2 0 -3 -1t-5 -3q-2 -3 -6 -6q-1 -3 -1 -10q0 -5 1 -5q2 -2 3 -5.5t3 -7.5h6q1 0 5 -2q5 -1 9.5 -3t10.5 -4l9 -2q5 -4 9 -5t9 -5q5 -2 10 -5t8 -8zM1579 336q-12 7 -16 20q-7 17 -7 31v16l11 20l12 13q6 7 12 9q3 7 9.5 8t9.5 3q4 0 8 1.5t10 1.5
q4 0 10.5 -1.5t10.5 -1.5q5 -2 8.5 -3t7.5 -8q2 -2 5.5 -4.5l6.5 -4.5l13 -13l8 -20q0 -4 1 -9t1 -7q0 -6 -1 -14t-5 -17q-5 -13 -17 -20l-9.5 -7.5t-11.5 -10.5q-5 -1 -12 -1.5t-16 -0.5h-15q-4 0 -10 2q-18 7 -24 18zM2284 336l-13.5 -7.5t-11.5 -10.5q-8 -2 -12 -2h-30
q-5 0 -13 2q-7 4 -12.5 8.5t-10.5 9.5q-6 6 -13 20q-2 9 -4.5 17t-2.5 14q0 2 1 7t1 9q3 5 4 10t4 10q2 3 5 6t5 7q6 4 18 9q3 7 8 8t7 3q6 0 9 1.5t10 1.5q2 0 8.5 -1.5t11.5 -1.5q4 -2 7.5 -3t6.5 -8l17 -9q2 -4 4 -7t5 -6q2 -5 4 -9.5t3 -10.5q2 -4 3 -9t1 -7
q0 -6 -1 -14t-5 -17q0 -6 -5 -11zM2166 127q5 12 5 27q0 16 -5 24q-3 9 -8 15.5t-8 9.5q-10 10 -24 13q-4 5 -12 6t-17 1q-12 0 -25 -7q-8 -1 -13 -4t-11 -9q-4 -3 -7.5 -9.5l-8.5 -15.5q0 -4 -1 -10t-1 -14q0 -9 1 -15t1 -12q4 -8 8 -14t8 -11q6 -4 11 -8.5t13 -7.5
q7 -2 14 -3t11 -1q9 0 17 1t12 3q8 3 14 7.5t10 8.5q11 11 16 25zM1104 127q4 11 4 27q0 13 -4 24q-2 9 -6.5 15.5t-13.5 9.5q-2 6 -7.5 9t-11.5 4q-11 7 -30 7q-14 0 -25 -7q-11 -1 -23 -13q-6 -3 -9 -9.5t-5 -15.5q-5 -5 -5 -10v-29q0 -5 5 -12q2 -7 5 -14.5t9 -10.5
q6 -4 11 -8.5t12 -7.5q11 -4 25 -4q19 0 30 4q13 7 19 16q9 3 13.5 10.5t6.5 14.5zM774 262h139v-39h-100v-55h82v-39h-82v-86h-39v219zM570 223h-58v-180h-43v180h-62v39h163v-39zM1188 864q-19 7 -37 19t-35 26h322q-18 -14 -36 -26t-36 -19l-45.5 -11t-44.5 -5
q-25 0 -45.5 5t-42.5 11zM1389 262h165v-39h-65v-180h-39v180h-61v39zM1366 1315q18 -8 36 -20.5t36 -22.5h-325q38 30 75 43q37 18 88 18q48 0 90 -18zM559 604l-47 68q4 0 11 4q8 5 9 10q9 5 9 11v26q0 1 -2 5q-3 10 -11 15q-5 9 -14 9q-2 5 -6.5 6t-9.5 1h-57v-155h24v64
h23l40 -56q1 -4 8 -6q2 -2 3 -2h20zM1169 604l-67 155h-22l-65 -155h11q7 0 9 2q0 2 7 6l11 27h76l13 -27q1 -4 5 -6q2 -2 8 -2h14zM1930 721q3 -2 8 -7.5t6 -12.5q4 -7 4 -21q0 -12 -4 -23q-1 -5 -6 -9.5t-8 -6.5q-5 -4 -9 -6.5t-8 -7.5q-9 -4 -23 -4q-6 0 -12 1t-10 3
q-5 5 -10.5 7.5t-9.5 6.5q-3 2 -6 6.5t-3 9.5q-4 7 -5 12t-1 11q0 10 6 21q0 7 3 12.5t6 7.5q4 4 9.5 7t10.5 5q9 4 22 4q5 0 11.5 -1t11.5 -3zM801 721q7 -2 9.5 -7.5t4.5 -12.5q4 -7 4 -21q0 -11 -4 -23q-2 -5 -4.5 -9.5t-9.5 -6.5q-1 -4 -6 -7l-11 -7q-9 -4 -22 -4
q-11 0 -23 4q-4 5 -9 7.5t-9 6.5q-2 2 -5.5 6.5t-5.5 9.5q-4 12 -4 23q0 12 4 21q2 7 5.5 12.5t5.5 7.5q4 4 9 7t9 5q5 2 12.5 3t10.5 1q13 0 22 -4q8 -2 11.5 -5t5.5 -7zM2126 759h-22v-120q-1 2 -2 5t-3 4l-75 104l-3 7h-24v-155h22v121l2 -2l87 -119h18v155zM2218 332h31
l6 3q3 3 4 5q6 0 14 5q2 5 3 7t4 4q0 3 3 8t3 10v34q-3 6 -7 10.5t-6 7.5q-10 4 -18 12h-43q-6 -4 -9.5 -7t-9.5 -5q-5 -3 -7.5 -7.5t-4.5 -10.5q-1 -4 -1.5 -7t-0.5 -7v-20q0 -13 5 -18q2 -2 4.5 -4t4.5 -7l7 -3q2 -2 4 -2q4 -4 7 -5t7 -3zM296 690q5 12 5 20q0 9 -5 18
q0 2 -5 7l-6 6q-2 3 -5 7t-10 4q-3 5 -8.5 6t-9.5 1h-52v-155h16v59h36q4 0 9.5 0.5t8.5 2.5q10 4 15 10q4 2 7.5 6t3.5 8zM1579 408q-6 -14 -6 -21v-8q0 -4 3 -5q0 -10 5 -18q0 -2 2 -4t4 -7l5 -3q2 -2 11 -2q2 -4 5.5 -5t5.5 -3h27q6 2 9.5 3t6.5 5l6 2l4 3q2 5 4.5 7
t2.5 4q3 3 4 8t3 10q0 2 1 5.5t1 7.5q0 2 -1 8t-5 13q0 6 -4 10.5t-6 7.5q-3 1 -8 6l-10 6h-42q-4 -4 -10 -7l-10 -5l-5 -8q-3 -5 -3 -10zM997 759h-18v-120l-2 4q-2 6 -2 5l-74 104q-5 0 -6 7h-25v-155h21v124h2l2 -1v-4l86 -119h16v155zM2115 381q-5 -1 -8.5 -2t-5.5 -2
l45 -61h-12l-6 2q-4 0 -4 9l-39 50h-28v-61h-15v140h57q3 0 9 -2q2 -2 6.5 -5.5t5.5 -5.5q4 -2 5 -5.5t7 -7.5v-27q-4 -4 -5 -8t-3 -6zM1342 381q-3 -3 -11 -4l47 -61h-15q-3 0 -3 2q-6 0 -6 9l-39 50h-28v-61h-13v140h56q2 0 6 -2q10 -1 18 -11q0 -2 3 -5.5t3 -7.5
q2 -2 2 -6v-14q0 -1 -2 -7q0 -10 -4 -14l-5 -4q-3 -3 -9 -4zM412 759h-98v-155h98v21h-74v47h58v18h-58v45h74v24zM1721 759h-93v-155h93v21h-69v47h58v18h-58v45h69v24zM2460 454q6 2 5 2h13v-140h-12v114l-2 -2v-2q-4 -8 -6.5 -17.5t-8.5 -14.5q-5 -7 -7 -12.5t-7 -14.5
q-2 -9 -3 -15.5t-5 -9.5q-3 -8 -6.5 -12.5t-5.5 -13.5h-15q-10 14 -15 27t-10 28q-4 12 -12 26.5t-12 28.5v2h-4v-112h-14v140h14q4 0 6 -2l2 -2v-7l49 -105q0 -4 2 -4l1 2v4q0 2 8 6l41 97q2 7 3 7t1 2zM1480 759h-22v-104q0 -4 -2 -8q-1 -7 -10 -12q0 -2 -4 -3.5t-6 -6.5
l-9 -2h-9q-7 0 -13 2q-5 5 -8.5 6.5t-5.5 3.5l-11 12q0 3 -1 7.5t-1 11.5v93h-20v-93q0 -7 1 -11.5t1 -7.5q0 -8 6 -14q3 -8 10 -12q2 -4 4.5 -6.5t8.5 -4.5q2 -2 6.5 -3t7.5 -3q4 0 7 -1.5t8 -1.5t8.5 1.5t11.5 1.5q2 2 5 3t7 3q3 2 6 4.5t6 6.5q3 2 5 5.5t7 6.5q0 4 3 7
t3 7v112zM664 632q2 5 3 8t1 8q0 12 -5.5 20t-12.5 14q-2 0 -3.5 2t-5.5 4l-4 2h-4q-1 0 -1 4q-8 0 -9 1q-8 2 -9.5 3t-5.5 3q-6 5 -9 5q-3 4 -3 6v15q0 1 1.5 2.5t1.5 3.5q2 0 4.5 1t4.5 1q6 2 5 2h10q2 -2 4 -2q7 0 8 -4q1 -3 4 -3h2q9 0 14 5l4 2q0 2 -2 4l-5 4
q-2 1 -4.5 4t-6.5 5q-2 0 -4 2.5t-5 4.5q-5 0 -7 0.5t-4 0.5q-7 0 -12 -0.5t-8 -0.5q-5 -2 -7 -4.5t-6 -4.5q-2 -6 -5.5 -8.5t-8.5 -6.5q0 -4 -2 -7t-2 -9t4 -18l12 -11q2 -2 6 -5t7 -3q5 -2 8 -4t7 -2q1 -2 6 -2t7 -2l6 -2q2 0 4 -2t2 -3t2 -6q2 -2 2 -7v-9q0 -2 -2 -4
t-2 -4t-2 -3q-2 -5 -6 -6l-4 -1q-4 0 -8 -1t-5 -1q-4 0 -7 1t-6 1q-2 0 -3.5 1t-1.5 6l-4 1q-4 4 -11 4h-7l-4 -2l-5 -2q0 -3 3 -3q0 -3 2 -5q0 -4 4 -4v-6h5q7 -7 16 -9t19 -2h10q5 0 11 2q4 2 8.5 4t6.5 5q13 5 14 17zM1741 316h-18v140h20q3 0 4 -4l74 -104q2 0 2 -5
l2 -1v114h14v-140h-12l-82 114v4h-4v-118zM1596 632q9 7 9 16q0 12 -5.5 20t-12.5 14q-6 4 -6 6h-4l-4 2h-3q-4 0 -5 4h-4q-2 0 -5 1q-2 2 -4 3t-7 3l-7 5q-2 1 -3 2l-2 2l-1 2q0 1 -1 3t-1 4q0 4 4 8q0 2 4 6q2 0 3 1t4 1q2 2 11 2l4 -1q2 -1 5 -1q3 -3 8 -4q6 -3 8 -3
q6 0 8 5l5 2q0 2 -2.5 4t-4.5 4q0 1 -3 4l-5 5q-3 0 -5.5 2.5t-6.5 4.5h-6l-5 1q-6 0 -10 -0.5t-8 -0.5l-13 -9l-7 -8.5t-6 -6.5q-1 -4 -3 -7t-2 -9q0 -4 2 -7.5t3 -10.5l10 -11q5 -2 7.5 -5t6.5 -3q4 -2 7.5 -4t6.5 -2q4 -2 7 -2t6 -2q6 0 10 -4l4 -3q2 -2 2 -6q2 -2 2 -6
v-9q0 -3 -2 -5q0 -6 -6 -7q-6 -5 -7 -6t-3 -1q-7 0 -8 -1t-5 -1q-3 0 -6.5 1t-5.5 1q-2 1 -4 3l-4 4l-2 1q-5 4 -10 4h-7q-2 0 -4 -2l-6 -2q2 -1 2 -2t2 -1q0 -3 1 -4l3 -3v-2q6 -6 9 -6q7 -7 14.5 -9t17.5 -2h12q3 0 11 2q3 2 6.5 4t7.5 5l5 8q3 3 4 9zM78 350q-6 6 -7 17
l-3 10q-1 3 -1 10t4 16l2 10t5 10l4 6l5 7q2 2 6.5 4.5t6.5 4.5q6 7 11 8t9 3q3 0 8 1.5t10 1.5q7 0 14.5 -1.5t13.5 -5.5q8 -2 12.5 -6.5t8.5 -9.5q-2 -2 -4 -2v-4h-13q-4 2 -7 5t-7 3h-36l-22 -12q-4 -3 -7.5 -7.5t-4.5 -10.5q-2 -7 -3 -13t-1 -8q0 -9 4 -13q0 -5 0.5 -10
t0.5 -8l5 -4q4 -1 6 -7l7 -4q3 -1 8 -1q3 -4 5.5 -5t6.5 -3h33q2 2 7 3t9 5v29h-14v2q-2 0 -3 1.5t-3 3.5h-2q-1 1 -1 3v4h36v-51q-2 -5 -3.5 -6t-5.5 -8h-12q-8 -2 -12 -2h-34q-4 0 -9 3.5l-11 7.5q-2 0 -6.5 2.5t-6.5 6.5l-5 6.5t-4 7.5zM240 438v-44h56v-15h-56v-47h67
v-16h-84v140h84v-18h-67zM1171 438v-44h60v-15h-60v-47h68v-16h-84v140h84v-18h-68zM2375 759h-20q-3 0 -8 -5q-6 -5 -6 -10l-37 -47h-2q0 -2 -2 -2v2l-39 47q-1 7 -4 10q-5 5 -11 5h-18l58 -77v-2q0 -2 2 -2l2 -2v-72h21v70q2 0 2 2l2 4v2zM641 456v-85q0 -7 2 -10t5 -5
q0 -6 3.5 -9.5t5.5 -4.5q0 -2 4.5 -4t6.5 -4q6 -2 8 -2h16q1 0 5 2l9 4q2 1 3.5 2t3.5 2q3 1 8 14q4 3 4 15v85h14v-85q0 -12 -4 -23t-12 -16q-2 -5 -6.5 -9.5t-8.5 -4.5q-8 -1 -13.5 -1.5t-10.5 -0.5t-11 0.5t-14 1.5q-2 0 -6.5 4.5l-9.5 9.5l-10 16q-1 6 -3.5 11t-2.5 12
v85h14zM2253 625h-69v134h-21v-155h90v21zM1271 625h-67v134h-20v-155h87v21zM1452 336q1 2 2 3.5t2 3.5q2 2 3 6.5t1 6.5q0 9 -2 11t-3 4.5t-3 4.5q-1 1 -8 3q-4 0 -6 2t-6 2q-8 0 -14 6q-9 0 -13 7q-2 0 -3.5 3.5t-3.5 7.5v22q0 1 2 7q0 8 7 9l6 7q2 1 3.5 2t3.5 2
q5 0 7.5 1.5t8.5 1.5l6 -2l4 -1q4 0 5 -1t5 -3q2 0 4 -3.5t2 -5.5q4 0 6 -3l1 -2l-2 -2q-6 -2 -9 -2h-6q-2 2 -2 4h-23q-9 0 -9 -2q-5 -7 -5 -8q-4 0 -4 -8q0 -5 4 -6q0 -5 3 -6q0 -1 3 -4l4 -1q4 -4 7.5 -4t7.5 -3q3 0 4 -1l2 -1q4 0 8 -5h4q2 0 4 -2h2l8.5 -7t5.5 -4
q1 -5 1.5 -10.5t0.5 -9.5v-10q0 -5 -4 -6l-5.5 -7.5t-6.5 -5.5q-2 -2 -6 -5.5t-6 -3.5q-6 -2 -10 -2h-9q-11 0 -18.5 1t-12.5 10q-2 0 -3.5 2.5t-5.5 4.5v4l-2 2l4 2h7q1 0 3 -1t4 -1q4 -4 6.5 -5t4.5 -3h22q8 0 12 4zM1069 316l-59 140h6q6 0 8 -2t3 -2t3 -7l43 -103v-2
l2 -6v6l2 2q5 14 13 27.5t12 24.5q4 16 10 28l12 23q0 7 1.5 7t1.5 2q6 2 7 2h11l-15.5 -35t-16.5 -34q-4 -9 -7 -18.5l-6 -18.5l-16 -34h-15zM532 438v-49h60v-12h-60v-61h-16v140h85v-18h-69zM1959 438v-49h54v-12h-54v-61h-16v140h81v-18h-65zM879 456v-124h63v-16h-80
v140h17zM371 316v122h-46v18h105v-18h-47v-122h-12zM784 456v-124h64v-16h-80v140h16zM270 728q2 -1 3 -4t3 -5q4 -4 4 -9v-4q0 -5 -4 -9q-2 -2 -3 -4.5t-3 -2.5l-4 -4l-4 -4h-46v53h36q4 0 10 -2q1 0 4 -3zM1325 389q4 0 6 3q4 4 9 4l2 5q0 2 5 6q0 1 1 4t1 7q0 2 -1 3.5
t-1 4.5q-7 3 -7 8q-5 0 -9 4h-44v-49h38zM2101 392q4 4 7 4q7 7 7 11q2 4 2 11q0 4 -2 8q0 2 -7 8q-3 0 -7 4h-44v-49h36q3 0 8 3zM1525 456v-140h-18v140h18zM518 701l-4 -7q-2 0 -3 -2t-3 -2q-2 -2 -10 -2h-33v47h33q4 0 10 -2q2 0 6 -5q1 -2 2 -3.5t2 -3.5q3 -2 3 -9
q0 -5 -3 -11zM684 129l-27 69q0 2 -1 3l-1 2q0 4 -3 6v-6l-1 -2q-1 -1 -1 -3l-27 -69h61zM1093 727v-4l27 -64h-59l30 64v5zM1755 82q6 0 6 -6q2 -2 2 -5v-4q0 -9 -2 -11q0 -5 -6 -9q-3 0 -6 -4h-17q-4 4 -11 4q0 2 -5 9q-2 2 -2 11v4q0 3 2 5l3 4l2 2q7 4 11 4q1 3 4 3h10
q3 0 3 -3q3 0 6 -4z" />
    <glyph glyph-name="colon" unicode=":" horiz-adv-x="533" 
d="M124 106q0 28 10 52.5t29 43t45 29.5t58 11t58 -11t45 -29.5t29 -43t10 -52.5t-10 -52.5t-29 -43t-45 -29t-58 -10.5t-58 10.5t-45 29t-29 43t-10 52.5zM124 909q0 28 10 52.5t29 43t45 29.5t58 11t58 -11t45 -29.5t29 -43t10 -52.5q0 -29 -10 -53.5t-29 -43t-45 -29
t-58 -10.5t-58 10.5t-45 29t-29 43.5t-10 53z" />
    <glyph glyph-name="semicolon" unicode=";" horiz-adv-x="533" 
d="M171 196h236l-174 -415h-180zM124 914v8.5t1 8.5q2 11 5 20.5t8 19.5l5 9q22 34 60 52l10 4l16 5q8 2 15 2.5t15 1.5h13q3 0 6 -0.5t6 -0.5l18 -3l11 -3q4 -2 6 -2l20 -9l4 -3l5 -3l4 -3l9 -6q2 -3 8 -7l10 -12l3 -4q6 -9 11 -18t8 -20q4 -11 5 -20q1 -5 1.5 -11t0.5 -11
v-6q-1 -7 -1.5 -13.5t-2.5 -13.5q-1 -5 -2.5 -10.5t-3.5 -10.5l-5 -9q-2 -4 -4 -7t-4 -7l-6 -8q-16 -21 -40 -34q-15 -8 -37 -13l-6 -2q-7 -2 -14.5 -2h-15.5q-21 0 -37 4q-14 3 -31 11q-4 2 -7.5 4t-7.5 4q-11 7 -20 17l-4 3l-10 12q-10 14 -15 28q-2 4 -4 10q0 1 -0.5 2
t-0.5 3q-1 1 -1 2.5t-1 2.5q-3 13 -3 27v11z" />
    <glyph glyph-name="less" unicode="&#x3c;" horiz-adv-x="1245" 
d="M1012 1057v-233l-576 -250l576 -249v-234l-863 405v156z" />
    <glyph glyph-name="question" unicode="?" horiz-adv-x="957" 
d="M316 412v50q0 56 12 102.5t33 85.5t50 72.5t63 65.5q36 33 70 59t61 50.5t43.5 50t16.5 56.5q0 85 -52 132t-154 47q-100 0 -152 -49t-52 -144h-243q0 93 28.5 167t85 126.5t142 80.5t199.5 28q95 0 176 -27.5t140 -78t92.5 -121.5t33.5 -159q0 -67 -21.5 -117
t-55.5 -89.5t-76 -72l-84 -64.5q-33 -26 -58.5 -49t-43.5 -47t-27 -50t-9 -57v-48h-218zM290 110q0 28 10 52.5t29 43.5t45 30t58 11t58.5 -11t45 -30t29 -43.5t10.5 -52.5t-10.5 -52.5t-29 -43t-45 -29t-58.5 -10.5t-58 11t-44.5 29.5t-29 43t-10.5 51.5z" />
    <glyph glyph-name="A" unicode="A" horiz-adv-x="1414" 
d="M1019 259h-627l-107 -259h-263l566 1361h236l566 -1361h-264zM480 473h450l-216 525l-8 35h-1l-8 -35z" />
    <glyph glyph-name="B" unicode="B" horiz-adv-x="1325" 
d="M406 794h331q34 0 65.5 13.5t56 37t39 56.5t14.5 72q0 38 -14.5 71t-39 57t-56 38t-65.5 14h-331v-359zM784 208q35 0 71 13.5t65 39t47 62t18 83.5q0 43 -16 79t-43 62.5t-63.5 41t-77.5 14.5h-379v-395h378zM158 0v1360h593q93 0 169.5 -25.5t131 -73.5t84.5 -116.5
t30 -153.5q0 -45 -13.5 -87t-37 -78t-55 -63.5t-67.5 -42.5q51 -17 96.5 -48t79.5 -73t54 -94t20 -109q0 -102 -37 -176.5t-98 -123t-139.5 -72.5t-160.5 -24h-650z" />
    <glyph glyph-name="C" unicode="C" horiz-adv-x="1639" 
d="M1271 894q-27 67 -72 119.5t-102.5 89t-124.5 55.5t-137 19q-101 0 -189.5 -38t-154.5 -104.5t-104.5 -157.5t-38.5 -196t38.5 -195.5t104.5 -157t154.5 -104.5t189.5 -38q70 0 136.5 18.5t124 54.5t102.5 88.5t72 119.5h256q-33 -120 -104.5 -212.5t-166 -155.5
t-203.5 -95.5t-217 -32.5q-102 0 -196 25t-175.5 71.5t-149 111t-115 143.5t-74 170t-26.5 190t26.5 190t74 170t115 143.5t149 110.5t175.5 71t196 25q108 0 217 -31.5t203.5 -94t166 -156t104.5 -217.5z" />
    <glyph glyph-name="D" unicode="D" horiz-adv-x="1509" 
d="M682 215q114 0 202.5 31.5t149 91t91.5 145t31 194.5q0 105 -29 191t-88 147.5t-148 95.5t-209 34h-274v-930h274zM158 1360h528q155 0 287 -44.5t228 -131t150.5 -213t54.5 -290.5q0 -152 -47 -277.5t-138.5 -215t-225 -139t-305.5 -49.5h-532v1360z" />
    <glyph glyph-name="E" unicode="E" horiz-adv-x="1179" 
d="M158 1360h932v-216h-683v-364h590v-214h-590v-351h692v-215h-941v1360z" />
    <glyph glyph-name="F" unicode="F" horiz-adv-x="1155" 
d="M158 1360h932v-216h-683v-404h590v-215h-590v-525h-249v1360z" />
    <glyph glyph-name="G" unicode="G" horiz-adv-x="1644" 
d="M823 716h694q6 -165 -43 -302t-140 -235.5t-219 -153t-280 -54.5q-102 0 -196 25t-175.5 71.5t-149 111t-115 143.5t-74 170t-26.5 190t26.5 190t74 170t115 143.5t149 110.5t175.5 71t196 25q154 0 289 -55t243 -163l-164 -165q-31 36 -70 67t-85.5 53.5t-100 35
t-112.5 12.5q-101 0 -189.5 -38t-154.5 -104.5t-104.5 -157.5t-38.5 -196t38.5 -195.5t104.5 -157t154.5 -104.5t189.5 -38q96 0 171.5 25t129.5 70.5t87 109.5t45 142h-446z" />
    <glyph glyph-name="H" unicode="H" horiz-adv-x="1502" 
d="M158 1360h249v-580h686v580h251v-1360h-251v566h-686v-566h-249v1360z" />
    <glyph glyph-name="I" unicode="I" horiz-adv-x="565" 
d="M158 1360h249v-1360h-249v1360z" />
    <glyph glyph-name="J" unicode="J" horiz-adv-x="816" 
d="M49 215h158q121 0 173.5 61t52.5 171l1 913h247v-914q0 -110 -32.5 -193t-93.5 -139.5t-149 -85t-199 -28.5h-158v215z" />
    <glyph glyph-name="K" unicode="K" horiz-adv-x="1351" 
d="M407 589l611 771h291l-485 -603l510 -757h-295l-378 573l-254 -313v-260h-249v1360h249v-771z" />
    <glyph glyph-name="L" unicode="L" horiz-adv-x="1082" 
d="M158 1360h249v-1145h614v-215h-863v1360z" />
    <glyph glyph-name="M" unicode="M" horiz-adv-x="1690" 
d="M810 402l-403 551v-953h-249v1360h217l469 -629l471 629h218v-1360h-249v951l-407 -549h-67z" />
    <glyph glyph-name="O" unicode="O" horiz-adv-x="1671" 
d="M99 682q0 99 26.5 190t74 170t115 143.5t149 110.5t175.5 71t196 25q101 0 195.5 -25t176 -71t149 -110.5t115.5 -143.5t74.5 -170t26.5 -190t-26.5 -190t-74.5 -170t-115.5 -143.5t-149 -111t-176 -71.5t-195.5 -25q-102 0 -196 25t-175.5 71.5t-149 111t-115 143.5
t-74 170t-26.5 190zM348 681q0 -105 38.5 -195.5t104.5 -157t154.5 -104.5t189.5 -38q102 0 191 38t155 104.5t104 157t38 195.5t-38 196t-104 157.5t-155 104.5t-191 38q-101 0 -189.5 -38t-154.5 -104.5t-104.5 -157.5t-38.5 -196z" />
    <glyph glyph-name="P" unicode="P" horiz-adv-x="1284" 
d="M407 444v-444h-249v1360h573q103 0 189.5 -34.5t149.5 -95.5t98 -145.5t35 -183.5q0 -101 -34.5 -184.5t-97 -144.5t-148.5 -94.5t-188 -33.5h-328zM722 659q49 0 91.5 18.5t73.5 51t49 76.5t18 95t-18 95.5t-49.5 77.5t-74 52.5t-91.5 19.5h-314v-486h315z" />
    <glyph glyph-name="Q" unicode="Q" horiz-adv-x="1671" 
d="M99 682q0 99 26.5 190t74 170t115 143.5t149 110.5t175.5 71t196 25q101 0 195.5 -25t176 -71t149 -110.5t115.5 -143.5t74.5 -170t26.5 -190q0 -131 -45.5 -247t-125.5 -209l211 -211l-167 -169l-226 228q-85 -50 -181.5 -76.5t-202.5 -26.5q-102 0 -196 25t-175.5 71.5
t-149 111t-115 143.5t-74 170t-26.5 190zM348 681q0 -105 38.5 -195.5t104.5 -157t154.5 -104.5t189.5 -38q102 0 191 38t155 104.5t104 157t38 195.5t-38 196t-104 157.5t-155 104.5t-191 38q-101 0 -189.5 -38t-154.5 -104.5t-104.5 -157.5t-38.5 -196z" />
    <glyph glyph-name="S" unicode="S" horiz-adv-x="1288" 
d="M327 409q0 -47 22 -88t62 -71.5t96 -48t124 -17.5q162 0 238 51.5t76 146.5q0 58 -26 94.5t-73.5 61.5t-113.5 42t-145 35l-93.5 19.5t-102 27.5t-99.5 41.5t-84.5 61t-59 86t-22.5 117.5q0 93 30 171t95 134t167 87.5t246 31.5q115 0 204.5 -29.5t151.5 -83.5
t94.5 -129.5t32.5 -167.5h-250q0 41 -16 76t-47.5 61t-79.5 41t-112 15q-79 0 -130.5 -16t-82 -41.5t-42.5 -58.5t-12 -67q0 -45 25 -76.5t69 -53t104.5 -35.5t132.5 -24q97 -21 186 -48.5t156.5 -74t108 -118t40.5 -180.5q0 -99 -41.5 -176t-116.5 -129.5t-180 -80
t-233 -27.5q-141 0 -244.5 39t-171 101.5t-100 141t-32.5 158.5h249z" />
    <glyph glyph-name="T" unicode="T" horiz-adv-x="1162" 
d="M457 1145h-404v215h1058v-215h-405v-1145h-249v1145z" />
    <glyph glyph-name="U" unicode="U" horiz-adv-x="1432" 
d="M1047 1360h249v-834q0 -122 -42 -224t-118.5 -176t-183.5 -115t-237 -41q-123 0 -229 39t-184.5 111t-123 175t-44.5 231v834h248v-834q0 -72 22 -134t64 -108.5t104 -73t143 -26.5q78 0 140 26.5t104.5 72t65 107.5t22.5 134v836z" />
    <glyph glyph-name="V" unicode="V" horiz-adv-x="1428" 
d="M1134 1361h263l-571 -1361h-226l-571 1361h263l420 -1028h2z" />
    <glyph glyph-name="W" unicode="W" horiz-adv-x="2072" 
d="M1452 355h3l326 1006h264l-468 -1361h-242l-301 952l-301 -952h-241l-467 1361h263l326 -1006h4l285 997h263z" />
    <glyph glyph-name="X" unicode="X" horiz-adv-x="1396" 
d="M697 883l329 477h293l-466 -649l509 -711h-295l-370 538l-370 -538h-294l508 711l-466 649h294z" />
    <glyph glyph-name="Y" unicode="Y" horiz-adv-x="1366" 
d="M1344 1360l-536 -842v-518h-249v517l-536 843h291l368 -615h3l367 615h292z" />
    <glyph glyph-name="Z" unicode="Z" horiz-adv-x="1293" 
d="M96 0l-3 190l763 956h-720v214h1048v-186l-764 -959h795v-215h-1119z" />
    <glyph glyph-name="asciicircum" unicode="^" horiz-adv-x="1021" 
d="M109 793l347 639h103l348 -639l-234 -8l-165 362l-167 -362z" />
    <glyph glyph-name="underscore" unicode="_" horiz-adv-x="1019" 
d="M995 -294h-971v204h971v-204z" />
    <glyph glyph-name="grave" unicode="`" horiz-adv-x="474" 
d="M202 1453l182 -302h-175l-187 238z" />
    <glyph glyph-name="bar" unicode="|" horiz-adv-x="553" 
d="M158 1614h236v-1984h-236v1984z" />
    <glyph glyph-name="braceright" unicode="}" horiz-adv-x="730" 
d="M402 679q-70 42 -111 114t-41 187v302q0 53 -8.5 84t-30.5 47.5t-59.5 22.5t-94.5 10l1 195q120 0 201.5 -23t132 -71.5t72 -123t21.5 -176.5v-220q0 -61 8.5 -104.5t29 -73.5t55 -47.5t85.5 -26.5v-192q-52 -7 -86.5 -24t-55 -47t-28.5 -74.5t-8 -106.5v-219
q0 -103 -21.5 -177.5t-72 -123.5t-132 -72t-201.5 -23l-1 196q66 4 104 12t58 31t25.5 66.5t5.5 119.5v237q0 46 9 91t27.5 84.5t47 72t68.5 53.5z" />
    <glyph glyph-name="asciitilde" unicode="~" horiz-adv-x="1230" 
d="M1100 566q-23 -20 -52 -39t-63.5 -34t-73 -24t-79.5 -9q-61 0 -118 18t-110.5 40t-105 40t-101.5 18q-66 0 -124 -23t-106 -64l-36 182q23 20 52.5 39t63 33.5t71 23.5t76.5 9q63 0 119.5 -18t109.5 -39t103.5 -39t101.5 -18q76 0 131 23.5t103 61.5z" />
    <glyph glyph-name="exclamdown" unicode="&#xa1;" horiz-adv-x="558" 
d="M189 604h180l32 -290v-658h-243v657zM139 905q0 28 10 52.5t28.5 43t44.5 29t58 10.5t58.5 -10.5t45 -29t29 -43t10.5 -52.5t-10.5 -53t-29 -43.5t-45 -29.5t-58.5 -11t-58 11t-44.5 29.5t-28.5 43.5t-10 53z" />
    <glyph glyph-name="cent" unicode="&#xa2;" horiz-adv-x="1358" 
d="M343 515q0 -78 26.5 -140t71.5 -105.5t103.5 -66.5t122.5 -23q95 0 171 46.5t117 129.5h249q-23 -84 -72 -154.5t-118.5 -122.5t-157.5 -81t-190 -29q-123 0 -227 43t-179.5 117t-118 173t-42.5 212t42 212.5t117.5 174t179.5 117.5t228 43q102 0 189.5 -29t157 -80.5
t118.5 -122.5t73 -155h-249q-40 82 -116.5 128.5t-171.5 46.5q-65 0 -123.5 -23t-103 -66.5t-71 -105.5t-26.5 -139zM563.917 1231.19h232.889v-301.402h-232.889v301.402zM563.541 117.411h232.327v-291.836h-232.327v291.836z" />
    <glyph glyph-name="sterling" unicode="&#xa3;" horiz-adv-x="1183" 
d="M309 728q-7 45 -18 83.5l-21.5 74.5t-18 71t-7.5 74q0 92 31 160t87 112.5t133 66.5t169 22q41 0 88 -9t93 -29t88.5 -52.5t75 -79t52 -108t19.5 -140.5l-239 -1q0 48 -16 86.5t-40.5 66.5t-55 43t-58.5 15q-84 0 -132 -42t-48 -128q0 -37 7 -69.5t16.5 -66l20 -70
t17.5 -81.5h295l2 -205h-300q-9 -49 -25 -98t-36 -91.5t-42.5 -75.5t-45.5 -50h715v-207h-1021v164q40 21 74.5 59.5t61.5 87t46.5 103.5t29.5 108h-134v206h137z" />
    <glyph glyph-name="currency" unicode="&#xa4;" horiz-adv-x="1331" 
d="M136 622q0 75 20.5 145t58.5 130l-119 119l176 176l124 -124q58 32 126 50t144 18q75 0 142.5 -17.5t125.5 -49.5l124 123l176 -176l-117 -117q39 -61 60 -131t21 -146q0 -77 -21 -147t-59 -130l116 -115l-176 -176l-122 121q-59 -32 -127 -49.5t-144 -17.5t-144 18
t-126 51l-123 -123l-176 176l118 118q-38 60 -58 129t-20 145zM371 622q0 -68 23.5 -125t63.5 -98.5t94 -64.5t116 -23t116 23t94 64t63 98.5t23 125.5q0 67 -23 124.5t-63.5 99t-94.5 65t-116 23.5t-115.5 -23.5t-94 -65t-63.5 -98.5t-23 -125z" />
    <glyph glyph-name="yen" unicode="&#xa5;" horiz-adv-x="1270" 
d="M1129 560h-987v179h303l-401 621h272l318 -518l318 518h272l-403 -620h308v-180zM1128 407v-178h-377v-229h-235v229h-374v178h986z" />
    <glyph glyph-name="section" unicode="&#xa7;" horiz-adv-x="1287" 
d="M1019 1158q-28 17 -64.5 35.5t-79 33.5t-90 25t-96.5 10q-48 0 -91 -9.5t-75.5 -30t-51.5 -52.5t-19 -77q0 -50 21.5 -83t59 -56.5t87 -40.5t106.5 -34q78 -24 153 -56t134.5 -80t96 -115.5t36.5 -161.5q0 -66 -19 -121.5t-52.5 -99t-79 -74.5t-98.5 -47q59 -41 103 -93
t62 -128q12 -62 3 -129q-12 -78 -51.5 -137t-101 -98.5t-142 -60t-173.5 -20.5q-119 0 -226.5 32t-213.5 91l112 196q28 -17 64 -35.5t78.5 -33.5t89.5 -25t97 -10q48 0 91 9.5t75.5 30t51.5 53t19 77.5q0 49 -21.5 82.5t-59 57t-87 40.5t-106.5 34q-77 23 -152.5 55
t-135 80t-96 115.5t-36.5 161.5q0 66 19 122t52 99.5t78 74t98 47.5q-57 39 -101 91.5t-62 128.5q-6 32 -6.5 64t4.5 65q11 78 50.5 137t101 99t142 60.5t173.5 20.5q119 0 226.5 -32t213.5 -92zM390 468q0 -50 25.5 -85t67 -59t93 -38.5t102.5 -22.5q44 1 84 15t70 39.5
t47.5 63t17.5 86.5q0 51 -26 86t-67 58.5t-92.5 37.5t-103.5 23q-44 -1 -83.5 -15t-69.5 -39.5t-47.5 -63t-17.5 -86.5z" />
    <glyph glyph-name="dieresis" unicode="&#xa8;" horiz-adv-x="868" 
d="M149 1279q0 43 31.5 73t84.5 30q54 0 85.5 -30t31.5 -73q0 -21 -8.5 -39.5t-24 -32.5t-37 -22t-47.5 -8q-53 0 -84.5 30t-31.5 72zM511 1279q0 43 32 73t84 30q54 0 86 -30t32 -73q0 -21 -8.5 -39.5t-24 -32.5t-37 -22t-48.5 -8q-53 0 -84.5 30t-31.5 72z" />
    <glyph glyph-name="copyright" unicode="&#xa9;" horiz-adv-x="1654" 
d="M91 682q0 99 25.5 190.5t72.5 171t113.5 144.5t148.5 111.5t177 72t199 25.5t199 -25.5t177 -72t148.5 -111.5t114 -144.5t73 -171t25.5 -190.5q0 -148 -56.5 -278.5t-156 -227.5t-234 -153.5t-290.5 -56.5q-104 0 -199 25.5t-177 72t-148.5 112t-113.5 145t-72.5 171
t-25.5 190.5zM238 682q0 -129 46 -236.5t126 -185t187.5 -120.5t229.5 -43q123 0 231 43t187.5 120.5t125.5 185t46 236.5t-46 236.5t-125.5 184.5t-187.5 120t-231 43q-122 0 -229.5 -43t-187.5 -120t-126 -184.5t-46 -236.5zM1120 342q-56 -51 -125 -80t-166 -29
q-100 0 -184.5 35.5t-146 96t-96 142t-34.5 173.5q0 93 34.5 175t96 143.5t146 97t185.5 35.5q100 0 169 -32.5t120 -85.5l-101 -85q-1 2 -12.5 13.5t-34.5 24t-57 23t-79 10.5q-64 0 -119.5 -24t-96.5 -66.5t-64.5 -100.5t-23.5 -127q0 -68 23.5 -126t65 -100.5t97 -66.5
t119.5 -24q48 0 83 10t58 23q27 14 46 33z" />
    <glyph glyph-name="guillemotleft" unicode="&#xab;" horiz-adv-x="1322" 
d="M399 112l-279 373l279 373h252l-281 -373l281 -372zM926 112l-279 373l279 373h252l-281 -373l280 -372z" />
    <glyph glyph-name="logicalnot" unicode="&#xac;" horiz-adv-x="1228" 
d="M140 736h944v-495h-235v292h-709v203z" />
    <glyph glyph-name="registered" unicode="&#xae;" horiz-adv-x="1654" 
d="M91 682q0 99 25.5 190.5t72.5 171t113.5 144.5t148.5 111.5t177 72t199 25.5t199 -25.5t177 -72t148.5 -111.5t114 -144.5t73 -171t25.5 -190.5q0 -148 -56.5 -278.5t-156 -227.5t-234 -153.5t-290.5 -56.5q-104 0 -199 25.5t-177 72t-148.5 112t-113.5 145t-72.5 171
t-25.5 190.5zM238 682q0 -129 46 -236.5t126 -185t187.5 -120.5t229.5 -43q123 0 231 43t187.5 120.5t125.5 185t46 236.5t-46 236.5t-125.5 184.5t-187.5 120t-231 43q-122 0 -229.5 -43t-187.5 -120t-126 -184.5t-46 -236.5zM878 555h-191v-309h-160v874h358
q61 0 114 -21.5t93 -59t63 -89.5t23 -113q0 -85 -41 -149.5t-109 -99.5l170 -342h-170zM872 685q30 0 57 12t47 32.5t31.5 48t11.5 59.5q0 31 -11.5 59t-31 49t-46.5 33t-58 12h-185v-305h185z" />
    <glyph glyph-name="macron" unicode="&#xaf;" horiz-adv-x="861" 
d="M146 1312h585v-146h-585v146z" />
    <glyph glyph-name="degree" unicode="&#xb0;" horiz-adv-x="788" 
d="M65 1109q0 68 26 128t71 104.5t105 70.5t128 26t128 -26t104.5 -70.5t70.5 -104.5t26 -128t-26 -128t-70.5 -104.5t-104.5 -70.5t-128 -26t-128 26t-105 70.5t-71 104.5t-26 128zM245 1109q0 -31 12 -58t32 -47.5t47.5 -32t58.5 -11.5t58 11.5t47 32t32 47.5t12 58
t-12 58t-32 47t-47 32t-58 12t-58.5 -12t-47.5 -32t-32 -47t-12 -58z" />
    <glyph glyph-name="plusminus" unicode="&#xb1;" horiz-adv-x="1160" 
d="M1066 217v-201l-924 1v200h924zM703 1191l1 -369h362v-201h-362v-368h-204v368l-358 1v200h358v369h203z" />
    <glyph glyph-name="mu" unicode="&#xb5;" horiz-adv-x="1351" 
d="M1196 470q0 -121 -27.5 -214.5t-85 -157.5t-145.5 -97t-208 -33q-99 0 -184 36t-145 89l1 -437h-241v1373h243v-555q0 -66 21.5 -120.5t59 -93.5t88.5 -60t111 -21q63 0 113 14.5t84.5 49t52.5 91t18 140.5v554h244v-558z" />
    <glyph glyph-name="paragraph" unicode="&#xb6;" horiz-adv-x="1379" 
d="M613 -202v758h-120q-90 0 -168.5 31t-137.5 87t-93 133t-34 169q0 90 34.5 167.5t93.5 133.5t139 88t170 32h311v-1599h-195zM998 1397h198v-1h111v-200h-111v-1398h-198v1599z" />
    <glyph glyph-name="periodcentered" unicode="&#xb7;" horiz-adv-x="534" 
d="M125 483q0 28 10 52.5t28.5 43t45 29.5t58.5 11t58 -11t45 -29.5t29 -43t10 -52.5t-10.5 -52.5t-29 -43t-45 -29t-58.5 -10.5t-57.5 10.5t-44.5 29t-29 43t-10 52.5z" />
    <glyph glyph-name="cedilla" unicode="&#xb8;" horiz-adv-x="417" 
d="M269 33l122 -2l-52 -132q68 -20 109.5 -68t41.5 -123q0 -54 -21.5 -100t-57 -79t-80.5 -52t-92 -19q-51 0 -93.5 9t-74.5 34l48 128q24 -12 48 -18.5t52 -6.5q17 0 35 7.5t32.5 21t24 31.5t9.5 40q0 26 -13 44.5t-33 30t-44.5 17t-47.5 4.5z" />
    <glyph glyph-name="guillemotright" unicode="&#xbb;" horiz-adv-x="1308" 
d="M674 113l280 372l-280 373h252l279 -373l-279 -373zM147 113l281 372l-281 373h252l279 -373l-279 -373z" />
    <glyph glyph-name="questiondown" unicode="&#xbf;" horiz-adv-x="957" 
d="M628 603v-49q0 -57 -11.5 -103t-32.5 -85.5t-50 -73t-63 -64.5q-36 -33 -70.5 -59.5t-61.5 -51t-43.5 -50t-16.5 -56.5q0 -84 52.5 -131.5t154.5 -47.5q99 0 151.5 49.5t52.5 144.5h243q0 -93 -28.5 -167.5t-85.5 -127t-142 -80.5t-199 -28q-95 0 -176 27.5t-140 78
t-92.5 122t-33.5 158.5q0 67 21.5 117t55 89.5t76 72l84.5 64.5q33 25 58.5 48.5t43.5 47.5t27 50.5t9 57.5v47h217zM654 905q0 -28 -10 -52.5t-29 -43t-45 -29.5t-58 -11t-58 11t-45 29.5t-29 43t-10 52.5t10 53t29 43.5t45.5 29t58.5 10.5q31 0 57 -11t45 -29.5t29 -43
t10 -52.5z" />
    <glyph glyph-name="multiply" unicode="&#xd7;" horiz-adv-x="1399" 
d="M1103 783l-260 -261l256 -256l-142 -143l-256 257l-261 -261l-144 144l261 261l-254 254l141 142l255 -254l260 261z" />
    <glyph glyph-name="divide" unicode="&#xf7;" horiz-adv-x="1399" 
d="M575 915q0 24 9 46t25 38t38.5 25.5t50.5 9.5t51 -9.5t39 -25.5t25 -38t9 -46t-9 -45.5t-25 -37.5t-39 -25.5t-51 -9.5q-26 0 -48 9.5t-39 25.5t-26.5 37.5t-9.5 45.5zM575 151q0 24 9 46t25 38t38.5 25.5t50.5 9.5t51 -9.5t39 -25.5t25 -38t9 -46q0 -49 -33.5 -83
t-90.5 -34q-28 0 -50.5 9.5t-38.5 25t-25 37t-9 45.5zM1161 636v-201l-924 1v200h924z" />
    <glyph glyph-name="thorn" unicode="&#xfe;" horiz-adv-x="1335" 
d="M403 1409v-479q61 56 148 93.5t198 37.5q124 0 224.5 -43t172 -117.5t110.5 -174t39 -212.5t-40 -213t-112 -174t-173.5 -117t-224.5 -42q-109 1 -194.5 37t-147.5 92v-440h-243v1752h243zM1052 515q0 73 -25.5 134.5t-70 106t-104.5 69t-129 24.5t-129 -25t-105 -69
t-71 -105.5t-26 -134.5q0 -75 26 -136.5t70.5 -106t104.5 -69t129 -24.5q68 0 128 24.5t105 69t71 106.5t26 136z" />
    <glyph glyph-name="OE" unicode="&#x152;" horiz-adv-x="2236" 
d="M1197 88q-75 -51 -165.5 -84t-196.5 -33q-102 0 -196 25t-175.5 71.5t-149 111t-115 143.5t-74 170t-26.5 190t26.5 190t74 170t115 143.5t149 110.5t175.5 71t196 25q105 0 196 -33t166 -83v84h932v-216h-683v-364h590v-214h-590v-351h692v-215h-941v88zM835 186
q100 0 193.5 38.5t168.5 125.5v662q-73 85 -167 125t-195 40t-189.5 -38t-154.5 -104.5t-104.5 -157.5t-38.5 -196t38.5 -195.5t104.5 -157t154.5 -104.5t189.5 -38z" />
    <glyph glyph-name="florin" unicode="&#x192;" horiz-adv-x="855" 
d="M251 758h-169l24 203h170l8 52q10 66 30.5 134.5t57 126t92 98.5t136.5 53q101 16 186 -2q27 -6 47.5 -16t30.5 -18l-92 -178q-10 4 -22 8q-11 3 -26 5.5t-33 2.5q-69 0 -108.5 -44t-52.5 -119l-18 -103h264l-25 -203h-264l-129 -841q-12 -87 -51 -165t-102 -131.5
t-149 -74t-191 7.5q-27 6 -47.5 16.5t-30.5 18.5l92 178q4 -2 10 -4q5 -2 13 -4t19 -3q37 -4 70 2t59 25t45 52.5t27 85.5z" />
    <glyph glyph-name="circumflex" unicode="&#x2c6;" horiz-adv-x="780" 
d="M722 1268l-76 -132l-252 154l-253 -154l-76 132l328 207z" />
    <glyph glyph-name="caron" unicode="&#x2c7;" horiz-adv-x="765" 
d="M393 1136l-328 206l76 132l253 -154l252 154l76 -132z" />
    <glyph glyph-name="breve" unicode="&#x2d8;" horiz-adv-x="810" 
d="M738 1420q-6 -59 -29 -108.5t-63 -85t-97.5 -55t-131.5 -19.5t-131.5 19.5t-97.5 55t-63 85t-29 108.5l168 12q10 -26 21 -46t28.5 -34t42 -21.5t61.5 -7.5t62 7.5t42 21.5t28.5 34t20.5 46z" />
    <glyph glyph-name="dotaccent" unicode="&#x2d9;" horiz-adv-x="463" 
d="M154 1278q0 43 32 73t84 30q54 0 86 -30t32 -73q0 -21 -8.5 -39.5t-24 -32.5t-37 -22t-48.5 -8q-53 0 -84.5 30t-31.5 72z" />
    <glyph glyph-name="ring" unicode="&#x2da;" horiz-adv-x="554" 
d="M38 1272q0 44 17 82.5t47.5 67t73 45t94.5 16.5q53 0 96.5 -16.5t74 -45t47.5 -67t17 -82.5q0 -43 -17 -80.5t-47.5 -66t-74 -45t-96.5 -16.5q-52 0 -95 16.5t-73.5 45t-47 66t-16.5 80.5zM176 1272q0 -18 7 -34t20 -28t30 -19t38 -7t38.5 7t30.5 19t20 28t7 34
q0 38 -26.5 64.5t-69.5 26.5q-20 0 -37.5 -7t-30.5 -19.5t-20 -29t-7 -35.5z" />
    <glyph glyph-name="ogonek" unicode="&#x2db;" horiz-adv-x="460" 
d="M383 56l-68 -50t-71.5 -59.5t-56 -65.5t-22.5 -68q0 -24 15.5 -37.5t44.5 -13.5q26 0 51 7.5t60 25.5l41 -111q-39 -32 -96 -56.5t-125 -24.5q-51 0 -88.5 12.5t-62 34t-37 51.5t-12.5 66q0 57 27.5 105.5t69 89.5t90 76l91.5 65z" />
    <glyph glyph-name="tilde" unicode="&#x2dc;" horiz-adv-x="849" 
d="M779 1309q-38 -88 -95 -135.5t-132 -47.5q-44 0 -82.5 10.5t-71.5 23l-60.5 23t-50.5 10.5q-25 0 -48.5 -12.5t-45.5 -53.5l-101 73q15 36 38 67t52.5 52.5t65 32t75.5 5.5q39 -4 70.5 -14.5t59.5 -22t53 -20t49 -8.5q33 0 63.5 20t56.5 70z" />
    <glyph glyph-name="hungarumlaut" unicode="&#x2dd;" horiz-adv-x="824" 
d="M497 1445l-170 -317l-147 3l126 319zM840 1445l-171 -317l-146 3l126 319z" />
    <glyph glyph-name="endash" unicode="&#x2013;" horiz-adv-x="971" 
d="M140 588h691v-204h-691v204z" />
    <glyph glyph-name="emdash" unicode="&#x2014;" horiz-adv-x="1664" 
d="M140 588h1384v-204h-1384v204z" />
    <glyph glyph-name="quotesinglbase" unicode="&#x201a;" horiz-adv-x="574" 
d="M436 219l-207 -513l-174 7l165 528z" />
    <glyph glyph-name="quotedblleft" unicode="&#x201c;" horiz-adv-x="984" 
d="M95 951l207 513l174 -7l-165 -528zM495 951l207 513l175 -7l-165 -528z" />
    <glyph glyph-name="quotedblright" unicode="&#x201d;" horiz-adv-x="948" 
d="M865 1442l-207 -513l-174 7l164 528zM464 1442l-208 -513l-174 7l165 528z" />
    <glyph glyph-name="quotedblbase" unicode="&#x201e;" horiz-adv-x="956" 
d="M438 219l-207 -513l-175 7l165 528zM839 219l-208 -513l-173 7l164 528z" />
    <glyph glyph-name="dagger" unicode="&#x2020;" horiz-adv-x="793" 
d="M52 955h227v442h235v-442h228v-203h-228v-1031h-235v1031h-227v203z" />
    <glyph glyph-name="perthousand" unicode="&#x2030;" horiz-adv-x="2504" 
d="M1316 -22q-76 0 -141.5 26t-113.5 71t-75.5 106t-27.5 132q0 72 27.5 134t76 107.5t114 71.5t141.5 26t141.5 -25.5t114 -71t76 -107t27.5 -133.5t-27.5 -133.5t-76 -106.5t-114.5 -71t-142 -26zM1318 150q34 0 63 12.5t49.5 34t32 51t11.5 64.5q0 36 -11.5 67.5
t-32.5 54t-50 35.5t-63 13t-62.5 -12.5t-49.5 -35t-32.5 -53.5t-11.5 -67q0 -35 11.5 -65t32.5 -52t49.5 -34.5t63.5 -12.5zM373 -1l833 1360h224l-835 -1360h-222zM448 709q-76 0 -141.5 26t-114 71t-76 106.5t-27.5 132.5q0 72 27.5 133.5t76 107t114 71.5t141.5 26
t142 -25.5t114.5 -70.5t76 -107t27.5 -134t-27.5 -133.5t-76 -106.5t-114.5 -71t-142 -26zM449 881q34 0 63 12.5t49.5 34.5t32 51.5t11.5 64.5q0 36 -11.5 67t-32 53.5t-49.5 35.5t-64 13t-63.5 -12.5t-49 -34.5t-32 -53t-11.5 -67q0 -35 11.5 -65.5t32 -52.5t49.5 -34.5
t64 -12.5zM2070 -22q-76 0 -141.5 26t-113.5 71t-75.5 106t-27.5 132q0 72 27.5 134t76 107.5t114 71.5t141.5 26t141.5 -25.5t114 -71t76 -107t27.5 -133.5t-27.5 -133.5t-76 -106.5t-114.5 -71t-142 -26zM2072 150q34 0 63 12.5t49.5 34t32 51t11.5 64.5q0 36 -11.5 67.5
t-32.5 54t-50 35.5t-63 13t-62.5 -12.5t-49.5 -35t-32.5 -53.5t-11.5 -67q0 -35 11.5 -65t32.5 -52t49.5 -34.5t63.5 -12.5z" />
    <glyph glyph-name="guilsinglleft" unicode="&#x2039;" horiz-adv-x="787" 
d="M401 112l-279 373l279 373h252l-281 -373l281 -372z" />
    <glyph glyph-name="guilsinglright" unicode="&#x203a;" horiz-adv-x="787" 
d="M138 113l281 372l-282 373h253l279 -373l-279 -373z" />
    <glyph glyph-name="fraction" unicode="&#x2044;" horiz-adv-x="1079" 
d="M18 -37l867 1415l175 -93l-869 -1415z" />
    <glyph glyph-name="franc" unicode="&#x20a3;" horiz-adv-x="1195" 
d="M162 208h-82v148h82v1004h932v-216h-683v-404h589v-215h-589v-169h310v-148h-310v-208h-249v208z" />
    <glyph glyph-name="trademark" unicode="&#x2122;" horiz-adv-x="1669" 
d="M915 1054v-403h-182v738l162 2l240 -324l240 324l161 -2v-738h-182v403l-212 -261h-15zM243 1216h-198v172h587v-172h-195v-565h-194v565z" />
    <glyph glyph-name="partialdiff" unicode="&#x2202;" horiz-adv-x="1180" 
d="M621 774q-43 0 -80 -18.5t-67.5 -50t-53.5 -72t-39.5 -84t-25 -87t-9.5 -80.5q-1 -36 5.5 -74.5t23.5 -71t47 -53t76 -20.5q37 0 71 19t64 52.5t56 78t47 95.5t37 105.5t27 107.5q-9 20 -25.5 46.5t-39 50t-51.5 40t-63 16.5zM609 949q69 0 123 -39t96 -104
q13 71 8.5 138t-29 119t-71.5 83.5t-119 31.5q-79 0 -144 -20t-114 -42l-46 188q35 16 78 30t87 25t85.5 17.5t73.5 6.5q105 0 188 -33.5t141 -99t89 -163t31 -226.5q0 -112 -17.5 -221t-52 -206.5t-86.5 -180t-121 -142.5t-154.5 -94t-187.5 -34q-163 0 -255.5 80
t-109.5 235q-9 72 -1 148t34 148.5t68.5 137t102 113t135.5 76.5t168 28z" />
    <glyph glyph-name="product" unicode="&#x220f;" horiz-adv-x="1421" 
d="M1000 -344v1492h-593v-1492h-249v1705h1091v-1705h-249z" />
    <glyph glyph-name="summation" unicode="&#x2211;" horiz-adv-x="1246" 
d="M58 -343v127l561 766l-546 684v127h1082v-214h-721l466 -594l-490 -682h768v-214h-1120z" />
    <glyph glyph-name="minus" unicode="&#x2212;" horiz-adv-x="1399" 
d="M1161 722v-201l-924 1v200h924z" />
    <glyph glyph-name="radical" unicode="&#x221a;" horiz-adv-x="1175" 
d="M30 861h341l169 -486l423 1192l240 -3l-543 -1563l-201 -54l-264 713l-165 -1v202z" />
    <glyph glyph-name="integral" unicode="&#x222b;" horiz-adv-x="674" 
d="M189 1014q1 67 11.5 135t39 125.5t78.5 98t129 52.5q97 16 185 -2q28 -6 49.5 -16t32.5 -18l-71 -178q-11 4 -24 8q-11 3 -26.5 5.5t-33.5 2.5q-69 0 -101 -44t-32 -119l-2 -1098q0 -87 -28.5 -165.5t-84.5 -131.5t-138.5 -74t-190.5 8q-26 6 -48 16t-33 18l71 178
q4 -2 10 -4q5 -2 13 -3.5t19 -2.5q37 -4 68.5 1.5t54.5 24.5t36.5 52.5t13.5 85.5z" />
    <glyph glyph-name="approxequal" unicode="&#x2248;" horiz-adv-x="1399" 
d="M1161 752q-22 -20 -50.5 -38.5t-61.5 -32.5t-69.5 -22t-75.5 -8q-57 0 -109.5 16.5t-102.5 36.5t-99 36.5t-99 16.5q-124 0 -220 -82l-36 182q46 41 111.5 71t140.5 30q59 0 111.5 -16.5t102 -36t97.5 -36t99 -16.5q72 0 124.5 21t99.5 59zM1161 293q-22 -20 -50.5 -38
t-61.5 -32t-69.5 -22t-75.5 -8q-57 0 -109.5 16.5t-102.5 36t-99 36t-99 16.5q-124 0 -220 -82l-36 182q46 42 111.5 71.5t140.5 29.5q59 0 111.5 -16.5t102 -36t97.5 -36t99 -16.5q72 0 124.5 21.5t99.5 59.5z" />
    <glyph glyph-name="notequal" unicode="&#x2260;" horiz-adv-x="1399" 
d="M708 909l95 273l193 -40l-82 -233h247v-201h-317l-93 -269h410v-201h-480l-95 -273l-192 42l80 231h-237v201h307l94 269h-401v201h471z" />
    <glyph glyph-name="lessequal" unicode="&#x2264;" horiz-adv-x="1186" 
d="M1022 104l-7 -214l-874 395l8 215zM1018 1269l8 -230l-585 -253l585 -242l-8 -231l-882 399v143z" />
    <glyph glyph-name="lozenge" unicode="&#x25ca;" horiz-adv-x="1103" 
d="M552 1064l-225 -383l224 -384q2 6 26 48l26 45.5l40 68l56.5 95.5l76.5 127zM589 -45l-74 1l-443 725l442 728h74l442 -728z" />
    <glyph glyph-name="uni2219" unicode="&#x2219;" horiz-adv-x="534" 
d="M125 483q0 28 10 52.5t28.5 43t45 29.5t58.5 11t58 -11t45 -29.5t29 -43t10 -52.5t-10.5 -52.5t-29 -43t-45 -29t-58.5 -10.5t-57.5 10.5t-44.5 29t-29 43t-10 52.5z" />
    <glyph glyph-name="commaaccent" unicode="&#xf6c3;" horiz-adv-x="684" 
d="M563 -112l-172 -400l-174 7l130 414z" />
    <glyph glyph-name="dollar" unicode="$" horiz-adv-x="1264" 
d="M319 409q0 -47 22 -88t62 -71.5t96 -48t124 -17.5q162 0 238 51.5t76 146.5q0 58 -26 94.5t-73.5 61.5t-113.5 42t-145 35l-93.5 19.5t-102 27.5t-99.5 41.5t-84.5 61t-59 86t-22.5 117.5q0 93 30 171t95 134t167 87.5t246 31.5q115 0 204.5 -29.5t151.5 -83.5
t94.5 -129.5t32.5 -167.5h-250q0 41 -16 76t-47.5 61t-79.5 41t-112 15q-79 0 -130.5 -16t-82 -41.5t-42.5 -58.5t-12 -67q0 -45 25 -76.5t69 -53t104.5 -35.5t132.5 -24q97 -21 186 -48.5t156.5 -74t108 -118t40.5 -180.5q0 -99 -41.5 -176t-116.5 -129.5t-180 -80
t-233 -27.5q-141 0 -244.5 39t-171 101.5t-100 141t-32.5 158.5h249zM505.807 1584.19h235.713v-301.402h-235.713v301.402zM506 80.1396h236v-297.648h-236v297.648z" />
    <glyph glyph-name="AE" unicode="&#xc6;" horiz-adv-x="2056" 
d="M997 259h-517l-178 -260h-289l915 1361h1001v-216h-683v-347h590v-215h-590v-367h692v-215h-941v259zM626 472h371v560l-29 -60z" />
    <glyph glyph-name="Euro" unicode="&#x20ac;" horiz-adv-x="1198" 
d="M222 940q33 99 95.5 182t147 143t186.5 94t215 34q60 0 110.5 -9t84.5 -20v-225q-46 29 -99.5 41t-95.5 12q-66 0 -126.5 -18t-112 -51t-92.5 -79.5t-68 -103.5h413v-149l-820 1v148h162zM880 563v-148h-408q28 -55 68.5 -100t91.5 -77t110 -49.5t124 -17.5
q42 0 94.5 11.5t100.5 40.5v-224q-37 -13 -89 -20.5t-106 -7.5q-112 0 -213.5 33t-185 92.5t-146 141t-96.5 178.5h-165v147h820z" />
    <glyph glyph-name=".DOT" horiz-adv-x="341" 
d="M173 482q0 22 9 42t25 34.5t39 23t51 8.5q57 0 91 -31.5t34 -76.5t-34 -76t-91 -31q-29 0 -51.5 8.5t-39 23t-25 34t-8.5 41.5zM279 697q0 7 5 12t12 5q8 0 13 -5t5 -12q0 -8 -5 -12.5t-13 -4.5q-7 0 -12 4.5t-5 12.5z" />
    <glyph glyph-name="acute" unicode="&#xb4;" horiz-adv-x="474" 
d="M388 1389l-188 -238h-174l182 302z" />
    <glyph glyph-name="backslash" unicode="\" horiz-adv-x="906" 
d="M684 -197l-655 1633h246l655 -1634z" />
    <glyph glyph-name="equal" unicode="=" horiz-adv-x="1399" 
d="M1161 909v-201h-924v201h924zM1161 439v-201h-924v201h924z" />
    <glyph glyph-name="greater" unicode="&#x3e;" horiz-adv-x="1246" 
d="M1097 599v-156l-862 -405v234l576 249l-576 250v233z" />
    <glyph glyph-name="at" unicode="@" 
d="M999 635l599 602q118 -153 118 -304q0 -87 -27.5 -163t-79.5 -135h-610zM909 620q-57 72 -85.5 148.5t-28.5 164.5q0 36 6.5 75t19.5 76.5t33.5 72t47.5 61.5h606zM949 584h614q-70 -59 -148.5 -87.5t-160.5 -28.5q-88 0 -164.5 31t-140.5 85zM1563 1273h-619
q72 55 149.5 85.5t160.5 30.5q46 0 86.5 -9t78 -25t73 -37t71.5 -45z" />
    <glyph glyph-name="brokenbar" unicode="&#xa6;" horiz-adv-x="554" 
d="M395 784h-236v830h236v-830zM159 459h236v-829h-236v829z" />
    <glyph glyph-name="onehalf" unicode="&#xbd;" 
d="M999 635l599 602q118 -153 118 -304q0 -87 -27.5 -163t-79.5 -135h-610zM909 620q-57 72 -85.5 148.5t-28.5 164.5q0 36 6.5 75t19.5 76.5t33.5 72t47.5 61.5h606zM949 584h614q-70 -59 -148.5 -87.5t-160.5 -28.5q-88 0 -164.5 31t-140.5 85zM1563 1273h-619
q72 55 149.5 85.5t160.5 30.5q46 0 86.5 -9t78 -25t73 -37t71.5 -45z" />
    <glyph glyph-name="lira" unicode="&#x20a4;" horiz-adv-x="1203" 
d="M291 812q-8 29 -16.5 56t-15 53.5t-11 53.5t-4.5 56q0 92 31 160t87 112.5t133 66.5t169 22q41 0 88 -9t93 -29t88.5 -52.5t75 -79t52 -108t19.5 -140.5l-239 -1q0 48 -16 86.5t-40.5 66.5t-55 43t-58.5 15q-84 0 -132 -42t-48 -128q0 -27 4 -52t10.5 -49.5t14 -49
l15.5 -51.5h340v-131l-691 1v130h107zM875 568v-131h-342q-23 -77 -59 -139t-74 -91h715v-207h-1021v164q34 17 63.5 45t54 64t44 78t33.5 86h-105v131h691z" />
    <glyph glyph-name="peseta" unicode="&#x20a7;" horiz-adv-x="1216" 
d="M159 379v153h-93v199h93v629h496q96 0 180 -29.5t147 -84.5t99.5 -132t36.5 -173q0 -97 -36.5 -173t-99 -128.5t-146 -80t-178.5 -27.5h-249v-153h354v-200h-354v-179h-250v180h-93v199h93zM409 731h241q44 0 83.5 15.5t69.5 43t48 66t18 84.5q0 45 -17.5 83t-47.5 65.5
t-70 42.5t-85 15h-240v-415z" />
    <glyph glyph-name="estimated" unicode="&#x212e;" horiz-adv-x="1320" 
d="M655 88q48 0 91 15t77.5 46.5t59 81t36.5 118.5q0 4 2 10h269q-27 -93 -78 -166t-121 -123.5t-156 -77t-183 -26.5q-121 0 -222.5 42.5t-175 116.5t-114.5 173.5t-41 212.5q0 114 41 214t114.5 174.5t175 117.5t223.5 43t224 -43t176 -117.5t115 -174.5t41 -214
q0 -15 -1 -30.5t-4 -30.5h-819v-9t0.5 -15t0.5 -15.5v-8.5q3 -74 24 -132.5t56.5 -99t83.5 -61.5t105 -21zM654 922q-56 0 -104 -19.5t-83 -57.5t-56.5 -94t-25.5 -129v-10t-0.5 -17t-0.5 -16.5v-9.5h541v8.5v16t-0.5 16t-0.5 9.5q-3 73 -24.5 130t-57 95t-83.5 58t-105 20z
" />
    <glyph glyph-name="Eng" unicode="&#x14a;" horiz-adv-x="1519" 
d="M1370 -342h-248v382l-715 892v-932h-249v1360h217l747 -933v933h248v-1702z" />
    <glyph glyph-name="quoteleft" unicode="&#x2018;" horiz-adv-x="570" 
d="M95 951l207 513l174 -7l-165 -528z" />
    <glyph glyph-name="quoteright" unicode="&#x2019;" horiz-adv-x="573" 
d="M469 1442l-207 -513l-174 7l165 528z" />
    <glyph glyph-name="greaterequal" unicode="&#x2265;" horiz-adv-x="1181" 
d="M1036 500l8 -215l-873 -395l-7 214zM1049 855v-143l-881 -399l-8 231l585 242l-585 253l8 230z" />
    <glyph glyph-name="daggerdbl" unicode="&#x2021;" horiz-adv-x="805" 
d="M56 955h227v442h236v-442h227v-203h-227v-385h227v-203h-227v-443h-236v443h-227v203h227v385h-227v203z" />
    <glyph glyph-name="figuredash" unicode="&#x2012;" horiz-adv-x="971" 
d="M140 588h691v-204h-691v204z" />
    <glyph glyph-name="uni00AD" unicode="&#xad;" horiz-adv-x="773" 
d="M140 588h492v-204h-492v204z" />
    <glyph glyph-name="Delta" unicode="&#x394;" horiz-adv-x="1414" 
d="M78 0v162l501 1199h237l501 -1199v-162h-1239zM363 207h669l-317 760l-17 61h-1l-18 -61z" />
    <glyph glyph-name="ellipsis" unicode="&#x2026;" horiz-adv-x="1496" 
d="M125 110q0 28 10 52.5t28.5 43.5t45 30t58.5 11t58 -11t45 -30t29 -43.5t10 -52.5t-10.5 -52.5t-29 -43t-45 -29t-58.5 -10.5t-57.5 11t-44.5 29.5t-29 43t-10 51.5zM606 110q0 28 10 52.5t29 43.5t45 30t58 11t58 -11t45 -30t29 -43.5t10 -52.5t-10.5 -52.5t-29 -43
t-45 -29t-58.5 -10.5q-31 0 -57 11t-44.5 29.5t-29 43t-10.5 51.5zM1088 110q0 28 10 52.5t29 43.5t45 30t58 11t58 -11t45 -30t29 -43.5t10 -52.5t-10.5 -52.5t-29 -43t-45 -29t-58.5 -10.5t-57.5 11t-44.5 29.5t-29 43t-10 51.5z" />
    <glyph glyph-name="bullet" unicode="&#x2022;" horiz-adv-x="719" 
d="M129.376 485.069q0 52.584 18.6699 98.5947t53.209 80.7539q34.54 34.7422 84.0156 55.4004t109.22 20.6582t108.286 -20.6582t84.0156 -55.4004q35.4727 -34.7432 54.1426 -80.7539t18.6699 -98.5947t-19.6035 -98.5947t-54.1426 -80.7529
q-34.54 -34.7432 -84.0156 -54.4619t-109.22 -19.7188t-107.353 19.7188t-83.082 54.4619q-35.4727 34.7422 -54.1426 80.7529t-18.6699 98.5947z" />
    <glyph glyph-name="zero.slash" 
d="M2478 1093v-587h-2404v587h910q0 30 5.5 58t20.5 53q12 29 26 52.5t37 41.5q39 42 91 62q28 12 55.5 17t56.5 5q33 0 61.5 -6.5t53.5 -15.5q27 -14 50.5 -29.5t45.5 -36.5q35 -38 60 -94q11 -27 15.5 -54t4.5 -53h911zM1030 1194q-20 -49 -20 -101q0 -58 20 -106
q10 -22 24.5 -43.5l29.5 -42.5q20 -17 41.5 -32t45.5 -25q46 -23 105 -23q31 0 56.5 4.5t47.5 16.5q48 19 83 57q22 20 35.5 41l26.5 43q20 54 20 110q0 20 -3.5 43.5t-11.5 47.5q-14 40 -43 72q-14 20 -29.5 33.5t-34.5 25.5l-76 36l-33 6t-38 3q-29 0 -55.5 -5.5
t-51.5 -19.5q-50 -19 -85 -57q-17 -19 -30.5 -39.5t-23.5 -44.5zM1142 936l314 317q62 -80 62 -160q0 -24 -3.5 -45.5t-11.5 -41.5q-8 -19 -17.5 -37t-23.5 -33h-320zM1095 928q-14 17 -25 36.5t-19 39.5q-9 18 -12.5 40.5t-3.5 48.5q0 18 3.5 39t12.5 43q7 35 40 68h318z
M1135 207q2 -4 4.5 -11t5.5 -14q2 -10 2 -14v-32q0 -5 -2 -11l-6 -15l-4 -14q-6 -4 -10.5 -10t-8.5 -10q-6 -5 -11 -10.5t-10 -9.5q-9 -5 -15.5 -7l-12.5 -4q-10 -2 -15 -2h-17q-9 0 -19 2t-23 4q-12 6 -18.5 13t-17.5 14q-15 14 -21 35q-4 10 -6 19.5t-2 23.5v14q0 4 2 14
q4 17 12 25q4 8 7.5 13l7.5 11q9 5 13.5 9.5t10.5 9.5l12 4l17 6q5 0 11.5 1t13.5 1q10 0 17 -1t15 -1q6 -4 12.5 -6t15.5 -4q5 -5 10 -9.5l11 -9.5q4 -6 8.5 -11t10.5 -13zM2195 207q4 -4 6.5 -11t4.5 -14q4 -7 4 -14v-32q0 -7 -4 -11l-4.5 -15t-6.5 -14l-16 -20l-12 -10
l-14 -10q-5 -5 -12 -7t-13 -4q-8 -2 -14 -2h-17q-19 0 -43 6q-8 6 -16 13t-17 14q-8 6 -14 14t-8 21q-6 10 -7.5 19.5t-1.5 23.5q0 8 1 14t1 14l6 14t7 11q2 8 6 13t10 11q3 5 10.5 9.5t12.5 9.5q4 2 11 4t13 6q11 0 17 1t12 1q9 0 17 -1t14 -1q6 -4 13 -6t12 -4l26 -19
q2 -6 8 -11t8 -13zM2433 260l1 1q1 1 6 1h38v-219h-38v160l-5 -9v-8q0 -2 -2 -4l-13 -34.5t-16 -31.5q-6 -20 -12 -36.5t-14 -36.5h-37l-55 139q-6 3 -6 12q0 4 -1 4l-2 2v-157h-42v219h40q5 0 6.5 -1t4.5 -1q2 -2 3 -2t4 -2l7 -4q0 -2 2 -3.5t2 -3.5q4 -18 11 -32.5
l16 -34.5l12 -33q3 -8 6 -15l6 -14v-14q3 0 4 -4q0 4 1 4v14l11 13l44 116q0 1 2 3l2 4q0 1 3 3l3 1q2 2 4 2t4 2zM1329 262h38v-219h-36l-100 146l-4 5v2q-3 4 -3 5q-4 1 -4 4q0 4 -7 4v-166h-37v219h33q4 0 9.5 -1t5.5 -3q3 -2 5 -2t4 -2l22 -33q6 -8 11 -16.5t10 -19.5
q13 -13 24 -29t25 -29q0 -2 1 -4.5t1 -6.5l1 -3q0 -2 1 -3v152zM672 262l94 -219h-25q-9 0 -16 4q-2 2 -4 6.5t-6 8.5l-14 27h-100l-9 -27q0 -6 -4 -6q-2 -5 -4 -5l-3 -4q-2 0 -4.5 -1t-6.5 -1q0 -2 -2 -2h-27l96 219h35zM260 262h139v-39h-100v-49h82v-41h-82v-51h100v-39
h-139v219zM839 659q1 7 2 11t1 10q0 12 -3 21q0 7 -4.5 10.5t-6.5 9.5l-4.5 6.5t-6.5 7.5l-7 6q-2 3 -9 9q-4 2 -8 4.5t-11 4.5q-5 0 -9.5 0.5t-10.5 0.5q-3 0 -8.5 -0.5t-12.5 -0.5q-6 -2 -10 -4.5t-8 -4.5q-4 -6 -7.5 -8.5t-7.5 -6.5q-13 -7 -14 -14q-4 -6 -5 -9.5
l-3 -10.5q-1 -5 -1.5 -10t-0.5 -11t2 -14.5t4 -15.5t6.5 -12.5t11.5 -12.5q10 -15 25 -15q10 -6 29 -6h20q15 5 19 8q11 4 16 13q3 4 6 7.5t5 8.5q2 4 6.5 9t4.5 9zM1966 659v42l-7 20q-5 7 -15 14q-1 4 -6 6.5t-10 8.5l-4 2t-5 2l-7 5q-7 0 -12 0.5t-10 0.5q-6 0 -11 -0.5
t-9 -0.5l-22 -9q-3 -6 -6 -8.5t-7 -6.5q-3 -4 -6.5 -7t-5.5 -7q-2 -6 -4.5 -9.5t-2.5 -10.5q-6 -9 -6 -21q0 -6 3 -14.5t6 -15.5q4 -15 16 -25q7 -15 26 -15q10 -6 29 -6h22q3 2 8 4t8 4l10 6t6 7q11 8 15 16zM74 262h158v-24q0 -4 -1 -6q0 -3 -2 -5l-4 -4l-105 -143h1l2 2
h108v-39h-164v13q0 11 2 13q0 2 5 7v4l2 4q2 2 4 3.5t2 6.5l94 129h-102v39zM1839 203q-4 -4 -7 -10.5l-7 -14.5q-2 -4 -4 -10t-2 -14q0 -7 2 -15l4 -12q2 -7 6 -14.5t8 -10.5q4 -4 9.5 -8.5t14.5 -7.5q12 -4 27 -4q5 0 10 1t12 1q3 2 8 5t8 7q3 0 9 2h13q3 0 9 -2
q2 -1 3.5 -3t3.5 -4l6 -7q-3 -4 -6 -7.5t-7 -7.5l-11.5 -8t-12.5 -6q-7 -4 -11.5 -5t-10.5 -3t-11 -2h-12q-12 0 -23.5 2t-21.5 4q-10 5 -18.5 12t-16.5 15q-16 13 -22 35q-4 10 -7 19.5t-3 23.5q0 10 1 14l4 14q1 7 3 14t6 11q6 8 8.5 13t9.5 11q14 9 25 19q4 2 9.5 4
t18.5 6q5 0 12 1t15 1h13q4 0 10 -2t10.5 -3t11.5 -3q8 -4 12.5 -6.5t11.5 -7.5l13 -17l-6 -8q-2 -1 -5 -4l-2 -4h-15q-7 0 -16 4l-16 10q-10 2 -12 2h-10q-17 0 -27 -7q-17 -1 -24 -13zM1690 151l7 -10.5t3 -7.5q6 -8 6 -20q0 -15 -8 -29l-8 -12l-9 -10q-7 -6 -11.5 -9.5
t-12.5 -5.5q-5 -2 -14 -3t-15 -1q-8 0 -14.5 1l-19.5 3q-5 2 -10 6.5t-11 13.5q-4 1 -6 5l-4 8q-7 2 -7 9l7 5q2 2 4 2h4l2 2h10q4 0 4 -2q7 0 9 -2q7 -5 10.5 -6.5t5.5 -3.5q2 0 6 -1t10 -1h5q2 0 6 2q5 1 8 2t7 3q6 6 7 9q2 4 4 7.5t2 7.5q0 7 -6 10q-5 6 -7 6
q-2 4 -7.5 5t-7.5 2q-6 0 -14 7q-5 0 -9 1t-9 7q-11 3 -14.5 6t-7.5 7q-12 4 -12 14q-6 10 -6 25q0 18 6 26l6 11l8 10q4 2 10 4t13 6q6 0 10.5 1t13.5 1q4 0 8.5 -1t11.5 -1l15 -6q3 -4 6.5 -6.5t7.5 -7.5q4 -2 7.5 -5.5t3.5 -7.5l-7 -4q-4 -2 -7 -4.5t-3 -3.5h-18l-5 1
l-7 5q-2 0 -4 1t-4 1h-17q-2 0 -3 -1t-5 -3q-2 -3 -6 -6q-1 -3 -1 -10q0 -5 1 -5q2 -2 3 -5.5t3 -7.5h6q1 0 5 -2q5 -1 9.5 -3t10.5 -4l9 -2q5 -4 9 -5t9 -5q5 -2 10 -5t8 -8zM1579 336q-12 7 -16 20q-7 17 -7 31v16l11 20l12 13q6 7 12 9q3 7 9.5 8t9.5 3q4 0 8 1.5t10 1.5
q4 0 10.5 -1.5t10.5 -1.5q5 -2 8.5 -3t7.5 -8q2 -2 5.5 -4.5l6.5 -4.5l13 -13l8 -20q0 -4 1 -9t1 -7q0 -6 -1 -14t-5 -17q-5 -13 -17 -20l-9.5 -7.5t-11.5 -10.5q-5 -1 -12 -1.5t-16 -0.5h-15q-4 0 -10 2q-18 7 -24 18zM2284 336l-13.5 -7.5t-11.5 -10.5q-8 -2 -12 -2h-30
q-5 0 -13 2q-7 4 -12.5 8.5t-10.5 9.5q-6 6 -13 20q-2 9 -4.5 17t-2.5 14q0 2 1 7t1 9q3 5 4 10t4 10q2 3 5 6t5 7q6 4 18 9q3 7 8 8t7 3q6 0 9 1.5t10 1.5q2 0 8.5 -1.5t11.5 -1.5q4 -2 7.5 -3t6.5 -8l17 -9q2 -4 4 -7t5 -6q2 -5 4 -9.5t3 -10.5q2 -4 3 -9t1 -7
q0 -6 -1 -14t-5 -17q0 -6 -5 -11zM2166 127q5 12 5 27q0 16 -5 24q-3 9 -8 15.5t-8 9.5q-10 10 -24 13q-4 5 -12 6t-17 1q-12 0 -25 -7q-8 -1 -13 -4t-11 -9q-4 -3 -7.5 -9.5l-8.5 -15.5q0 -4 -1 -10t-1 -14q0 -9 1 -15t1 -12q4 -8 8 -14t8 -11q6 -4 11 -8.5t13 -7.5
q7 -2 14 -3t11 -1q9 0 17 1t12 3q8 3 14 7.5t10 8.5q11 11 16 25zM1104 127q4 11 4 27q0 13 -4 24q-2 9 -6.5 15.5t-13.5 9.5q-2 6 -7.5 9t-11.5 4q-11 7 -30 7q-14 0 -25 -7q-11 -1 -23 -13q-6 -3 -9 -9.5t-5 -15.5q-5 -5 -5 -10v-29q0 -5 5 -12q2 -7 5 -14.5t9 -10.5
q6 -4 11 -8.5t12 -7.5q11 -4 25 -4q19 0 30 4q13 7 19 16q9 3 13.5 10.5t6.5 14.5zM774 262h139v-39h-100v-55h82v-39h-82v-86h-39v219zM570 223h-58v-180h-43v180h-62v39h163v-39zM1188 864q-19 7 -37 19t-35 26h322q-18 -14 -36 -26t-36 -19l-45.5 -11t-44.5 -5
q-25 0 -45.5 5t-42.5 11zM1389 262h165v-39h-65v-180h-39v180h-61v39zM1366 1315q18 -8 36 -20.5t36 -22.5h-325q38 30 75 43q37 18 88 18q48 0 90 -18zM559 604l-47 68q4 0 11 4q8 5 9 10q9 5 9 11v26q0 1 -2 5q-3 10 -11 15q-5 9 -14 9q-2 5 -6.5 6t-9.5 1h-57v-155h24v64
h23l40 -56q1 -4 8 -6q2 -2 3 -2h20zM1169 604l-67 155h-22l-65 -155h11q7 0 9 2q0 2 7 6l11 27h76l13 -27q1 -4 5 -6q2 -2 8 -2h14zM1930 721q3 -2 8 -7.5t6 -12.5q4 -7 4 -21q0 -12 -4 -23q-1 -5 -6 -9.5t-8 -6.5q-5 -4 -9 -6.5t-8 -7.5q-9 -4 -23 -4q-6 0 -12 1t-10 3
q-5 5 -10.5 7.5t-9.5 6.5q-3 2 -6 6.5t-3 9.5q-4 7 -5 12t-1 11q0 10 6 21q0 7 3 12.5t6 7.5q4 4 9.5 7t10.5 5q9 4 22 4q5 0 11.5 -1t11.5 -3zM801 721q7 -2 9.5 -7.5t4.5 -12.5q4 -7 4 -21q0 -11 -4 -23q-2 -5 -4.5 -9.5t-9.5 -6.5q-1 -4 -6 -7l-11 -7q-9 -4 -22 -4
q-11 0 -23 4q-4 5 -9 7.5t-9 6.5q-2 2 -5.5 6.5t-5.5 9.5q-4 12 -4 23q0 12 4 21q2 7 5.5 12.5t5.5 7.5q4 4 9 7t9 5q5 2 12.5 3t10.5 1q13 0 22 -4q8 -2 11.5 -5t5.5 -7zM2126 759h-22v-120q-1 2 -2 5t-3 4l-75 104l-3 7h-24v-155h22v121l2 -2l87 -119h18v155zM2218 332h31
l6 3q3 3 4 5q6 0 14 5q2 5 3 7t4 4q0 3 3 8t3 10v34q-3 6 -7 10.5t-6 7.5q-10 4 -18 12h-43q-6 -4 -9.5 -7t-9.5 -5q-5 -3 -7.5 -7.5t-4.5 -10.5q-1 -4 -1.5 -7t-0.5 -7v-20q0 -13 5 -18q2 -2 4.5 -4t4.5 -7l7 -3q2 -2 4 -2q4 -4 7 -5t7 -3zM296 690q5 12 5 20q0 9 -5 18
q0 2 -5 7l-6 6q-2 3 -5 7t-10 4q-3 5 -8.5 6t-9.5 1h-52v-155h16v59h36q4 0 9.5 0.5t8.5 2.5q10 4 15 10q4 2 7.5 6t3.5 8zM1579 408q-6 -14 -6 -21v-8q0 -4 3 -5q0 -10 5 -18q0 -2 2 -4t4 -7l5 -3q2 -2 11 -2q2 -4 5.5 -5t5.5 -3h27q6 2 9.5 3t6.5 5l6 2l4 3q2 5 4.5 7
t2.5 4q3 3 4 8t3 10q0 2 1 5.5t1 7.5q0 2 -1 8t-5 13q0 6 -4 10.5t-6 7.5q-3 1 -8 6l-10 6h-42q-4 -4 -10 -7l-10 -5l-5 -8q-3 -5 -3 -10zM997 759h-18v-120l-2 4q-2 6 -2 5l-74 104q-5 0 -6 7h-25v-155h21v124h2l2 -1v-4l86 -119h16v155zM2115 381q-5 -1 -8.5 -2t-5.5 -2
l45 -61h-12l-6 2q-4 0 -4 9l-39 50h-28v-61h-15v140h57q3 0 9 -2q2 -2 6.5 -5.5t5.5 -5.5q4 -2 5 -5.5t7 -7.5v-27q-4 -4 -5 -8t-3 -6zM1342 381q-3 -3 -11 -4l47 -61h-15q-3 0 -3 2q-6 0 -6 9l-39 50h-28v-61h-13v140h56q2 0 6 -2q10 -1 18 -11q0 -2 3 -5.5t3 -7.5
q2 -2 2 -6v-14q0 -1 -2 -7q0 -10 -4 -14l-5 -4q-3 -3 -9 -4zM412 759h-98v-155h98v21h-74v47h58v18h-58v45h74v24zM1721 759h-93v-155h93v21h-69v47h58v18h-58v45h69v24zM2460 454q6 2 5 2h13v-140h-12v114l-2 -2v-2q-4 -8 -6.5 -17.5t-8.5 -14.5q-5 -7 -7 -12.5t-7 -14.5
q-2 -9 -3 -15.5t-5 -9.5q-3 -8 -6.5 -12.5t-5.5 -13.5h-15q-10 14 -15 27t-10 28q-4 12 -12 26.5t-12 28.5v2h-4v-112h-14v140h14q4 0 6 -2l2 -2v-7l49 -105q0 -4 2 -4l1 2v4q0 2 8 6l41 97q2 7 3 7t1 2zM1480 759h-22v-104q0 -4 -2 -8q-1 -7 -10 -12q0 -2 -4 -3.5t-6 -6.5
l-9 -2h-9q-7 0 -13 2q-5 5 -8.5 6.5t-5.5 3.5l-11 12q0 3 -1 7.5t-1 11.5v93h-20v-93q0 -7 1 -11.5t1 -7.5q0 -8 6 -14q3 -8 10 -12q2 -4 4.5 -6.5t8.5 -4.5q2 -2 6.5 -3t7.5 -3q4 0 7 -1.5t8 -1.5t8.5 1.5t11.5 1.5q2 2 5 3t7 3q3 2 6 4.5t6 6.5q3 2 5 5.5t7 6.5q0 4 3 7
t3 7v112zM664 632q2 5 3 8t1 8q0 12 -5.5 20t-12.5 14q-2 0 -3.5 2t-5.5 4l-4 2h-4q-1 0 -1 4q-8 0 -9 1q-8 2 -9.5 3t-5.5 3q-6 5 -9 5q-3 4 -3 6v15q0 1 1.5 2.5t1.5 3.5q2 0 4.5 1t4.5 1q6 2 5 2h10q2 -2 4 -2q7 0 8 -4q1 -3 4 -3h2q9 0 14 5l4 2q0 2 -2 4l-5 4
q-2 1 -4.5 4t-6.5 5q-2 0 -4 2.5t-5 4.5q-5 0 -7 0.5t-4 0.5q-7 0 -12 -0.5t-8 -0.5q-5 -2 -7 -4.5t-6 -4.5q-2 -6 -5.5 -8.5t-8.5 -6.5q0 -4 -2 -7t-2 -9t4 -18l12 -11q2 -2 6 -5t7 -3q5 -2 8 -4t7 -2q1 -2 6 -2t7 -2l6 -2q2 0 4 -2t2 -3t2 -6q2 -2 2 -7v-9q0 -2 -2 -4
t-2 -4t-2 -3q-2 -5 -6 -6l-4 -1q-4 0 -8 -1t-5 -1q-4 0 -7 1t-6 1q-2 0 -3.5 1t-1.5 6l-4 1q-4 4 -11 4h-7l-4 -2l-5 -2q0 -3 3 -3q0 -3 2 -5q0 -4 4 -4v-6h5q7 -7 16 -9t19 -2h10q5 0 11 2q4 2 8.5 4t6.5 5q13 5 14 17zM1741 316h-18v140h20q3 0 4 -4l74 -104q2 0 2 -5
l2 -1v114h14v-140h-12l-82 114v4h-4v-118zM1596 632q9 7 9 16q0 12 -5.5 20t-12.5 14q-6 4 -6 6h-4l-4 2h-3q-4 0 -5 4h-4q-2 0 -5 1q-2 2 -4 3t-7 3l-7 5q-2 1 -3 2l-2 2l-1 2q0 1 -1 3t-1 4q0 4 4 8q0 2 4 6q2 0 3 1t4 1q2 2 11 2l4 -1q2 -1 5 -1q3 -3 8 -4q6 -3 8 -3
q6 0 8 5l5 2q0 2 -2.5 4t-4.5 4q0 1 -3 4l-5 5q-3 0 -5.5 2.5t-6.5 4.5h-6l-5 1q-6 0 -10 -0.5t-8 -0.5l-13 -9l-7 -8.5t-6 -6.5q-1 -4 -3 -7t-2 -9q0 -4 2 -7.5t3 -10.5l10 -11q5 -2 7.5 -5t6.5 -3q4 -2 7.5 -4t6.5 -2q4 -2 7 -2t6 -2q6 0 10 -4l4 -3q2 -2 2 -6q2 -2 2 -6
v-9q0 -3 -2 -5q0 -6 -6 -7q-6 -5 -7 -6t-3 -1q-7 0 -8 -1t-5 -1q-3 0 -6.5 1t-5.5 1q-2 1 -4 3l-4 4l-2 1q-5 4 -10 4h-7q-2 0 -4 -2l-6 -2q2 -1 2 -2t2 -1q0 -3 1 -4l3 -3v-2q6 -6 9 -6q7 -7 14.5 -9t17.5 -2h12q3 0 11 2q3 2 6.5 4t7.5 5l5 8q3 3 4 9zM78 350q-6 6 -7 17
l-3 10q-1 3 -1 10t4 16l2 10t5 10l4 6l5 7q2 2 6.5 4.5t6.5 4.5q6 7 11 8t9 3q3 0 8 1.5t10 1.5q7 0 14.5 -1.5t13.5 -5.5q8 -2 12.5 -6.5t8.5 -9.5q-2 -2 -4 -2v-4h-13q-4 2 -7 5t-7 3h-36l-22 -12q-4 -3 -7.5 -7.5t-4.5 -10.5q-2 -7 -3 -13t-1 -8q0 -9 4 -13q0 -5 0.5 -10
t0.5 -8l5 -4q4 -1 6 -7l7 -4q3 -1 8 -1q3 -4 5.5 -5t6.5 -3h33q2 2 7 3t9 5v29h-14v2q-2 0 -3 1.5t-3 3.5h-2q-1 1 -1 3v4h36v-51q-2 -5 -3.5 -6t-5.5 -8h-12q-8 -2 -12 -2h-34q-4 0 -9 3.5l-11 7.5q-2 0 -6.5 2.5t-6.5 6.5l-5 6.5t-4 7.5zM240 438v-44h56v-15h-56v-47h67
v-16h-84v140h84v-18h-67zM1171 438v-44h60v-15h-60v-47h68v-16h-84v140h84v-18h-68zM2375 759h-20q-3 0 -8 -5q-6 -5 -6 -10l-37 -47h-2q0 -2 -2 -2v2l-39 47q-1 7 -4 10q-5 5 -11 5h-18l58 -77v-2q0 -2 2 -2l2 -2v-72h21v70q2 0 2 2l2 4v2zM641 456v-85q0 -7 2 -10t5 -5
q0 -6 3.5 -9.5t5.5 -4.5q0 -2 4.5 -4t6.5 -4q6 -2 8 -2h16q1 0 5 2l9 4q2 1 3.5 2t3.5 2q3 1 8 14q4 3 4 15v85h14v-85q0 -12 -4 -23t-12 -16q-2 -5 -6.5 -9.5t-8.5 -4.5q-8 -1 -13.5 -1.5t-10.5 -0.5t-11 0.5t-14 1.5q-2 0 -6.5 4.5l-9.5 9.5l-10 16q-1 6 -3.5 11t-2.5 12
v85h14zM2253 625h-69v134h-21v-155h90v21zM1271 625h-67v134h-20v-155h87v21zM1452 336q1 2 2 3.5t2 3.5q2 2 3 6.5t1 6.5q0 9 -2 11t-3 4.5t-3 4.5q-1 1 -8 3q-4 0 -6 2t-6 2q-8 0 -14 6q-9 0 -13 7q-2 0 -3.5 3.5t-3.5 7.5v22q0 1 2 7q0 8 7 9l6 7q2 1 3.5 2t3.5 2
q5 0 7.5 1.5t8.5 1.5l6 -2l4 -1q4 0 5 -1t5 -3q2 0 4 -3.5t2 -5.5q4 0 6 -3l1 -2l-2 -2q-6 -2 -9 -2h-6q-2 2 -2 4h-23q-9 0 -9 -2q-5 -7 -5 -8q-4 0 -4 -8q0 -5 4 -6q0 -5 3 -6q0 -1 3 -4l4 -1q4 -4 7.5 -4t7.5 -3q3 0 4 -1l2 -1q4 0 8 -5h4q2 0 4 -2h2l8.5 -7t5.5 -4
q1 -5 1.5 -10.5t0.5 -9.5v-10q0 -5 -4 -6l-5.5 -7.5t-6.5 -5.5q-2 -2 -6 -5.5t-6 -3.5q-6 -2 -10 -2h-9q-11 0 -18.5 1t-12.5 10q-2 0 -3.5 2.5t-5.5 4.5v4l-2 2l4 2h7q1 0 3 -1t4 -1q4 -4 6.5 -5t4.5 -3h22q8 0 12 4zM1069 316l-59 140h6q6 0 8 -2t3 -2t3 -7l43 -103v-2
l2 -6v6l2 2q5 14 13 27.5t12 24.5q4 16 10 28l12 23q0 7 1.5 7t1.5 2q6 2 7 2h11l-15.5 -35t-16.5 -34q-4 -9 -7 -18.5l-6 -18.5l-16 -34h-15zM532 438v-49h60v-12h-60v-61h-16v140h85v-18h-69zM1959 438v-49h54v-12h-54v-61h-16v140h81v-18h-65zM879 456v-124h63v-16h-80
v140h17zM371 316v122h-46v18h105v-18h-47v-122h-12zM784 456v-124h64v-16h-80v140h16zM270 728q2 -1 3 -4t3 -5q4 -4 4 -9v-4q0 -5 -4 -9q-2 -2 -3 -4.5t-3 -2.5l-4 -4l-4 -4h-46v53h36q4 0 10 -2q1 0 4 -3zM1325 389q4 0 6 3q4 4 9 4l2 5q0 2 5 6q0 1 1 4t1 7q0 2 -1 3.5
t-1 4.5q-7 3 -7 8q-5 0 -9 4h-44v-49h38zM2101 392q4 4 7 4q7 7 7 11q2 4 2 11q0 4 -2 8q0 2 -7 8q-3 0 -7 4h-44v-49h36q3 0 8 3zM1525 456v-140h-18v140h18zM518 701l-4 -7q-2 0 -3 -2t-3 -2q-2 -2 -10 -2h-33v47h33q4 0 10 -2q2 0 6 -5q1 -2 2 -3.5t2 -3.5q3 -2 3 -9
q0 -5 -3 -11zM684 129l-27 69q0 2 -1 3l-1 2q0 4 -3 6v-6l-1 -2q-1 -1 -1 -3l-27 -69h61zM1093 727v-4l27 -64h-59l30 64v5zM1755 82q6 0 6 -6q2 -2 2 -5v-4q0 -9 -2 -11q0 -5 -6 -9q-3 0 -6 -4h-17q-4 4 -11 4q0 2 -5 9q-2 2 -2 11v4q0 3 2 5l3 4l2 2q7 4 11 4q1 3 4 3h10
q3 0 3 -3q3 0 6 -4z" />
    <glyph glyph-name="e.001" horiz-adv-x="1336" 
d="M1116 409h-757q15 -53 44.5 -97t69.5 -75.5t89 -49t104 -17.5q93 0 156 34t108 88l162 -148q-80 -88 -185 -131.5t-243 -43.5q-123 0 -226 42.5t-177.5 116t-116 171.5t-41.5 209t40 211.5t113 176t175 120.5t227 45q68 0 134.5 -16t126 -44.5t110.5 -68t87 -87.5v-436z
M664 854q-56 0 -105.5 -17.5t-89.5 -50t-69 -77.5t-43 -99h533v148q-44 43 -103.5 69.5t-122.5 26.5z" />
    <glyph glyph-name="Aogonek" unicode="&#x104;" horiz-adv-x="1414" 
d="M1019 259h-627l-107 -259h-263l566 1361h236l566 -1361h-264zM480 473h450l-216 525l-8 35h-1l-8 -35zM1390 0l-68 -50t-71.5 -59.5t-56 -65.5t-22.5 -68q0 -24 15.5 -37.5t44.5 -13.5q26 0 51 7.5t60 25.5l41 -111q-39 -32 -96 -56.5t-125 -24.5q-51 0 -88.5 12.5
t-62 34t-37 51.5t-12.5 66q0 57 27.5 105.5t69 89.5t90 76l91.5 65z" />
    <glyph glyph-name="Aring" unicode="&#xc5;" horiz-adv-x="1414" 
d="M1019 259h-627l-107 -259h-263l566 1361h236l566 -1361h-264zM480 473h450l-216 525l-8 35h-1l-8 -35zM471 1670q0 44 17 82.5t47.5 67t73 45t94.5 16.5q53 0 96.5 -16.5t74 -45t47.5 -67t17 -82.5q0 -43 -17 -80.5t-47.5 -66t-74 -45t-96.5 -16.5q-52 0 -95 16.5
t-73.5 45t-47 66t-16.5 80.5zM609 1670q0 -18 7 -34t20 -28t30 -19t38 -7t38.5 7t30.5 19t20 28t7 34q0 38 -26.5 64.5t-69.5 26.5q-20 0 -37.5 -7t-30.5 -19.5t-20 -29t-7 -35.5z" />
    <glyph glyph-name="Aacute" unicode="&#xc1;" horiz-adv-x="1414" 
d="M1019 259h-627l-107 -259h-263l566 1361h236l566 -1361h-264zM480 473h450l-216 525l-8 35h-1l-8 -35zM1011 1751l-188 -238h-174l182 302z" />
    <glyph glyph-name="Abreve" unicode="&#x102;" horiz-adv-x="1414" 
d="M1019 259h-627l-107 -259h-263l566 1361h236l566 -1361h-264zM480 473h450l-216 525l-8 35h-1l-8 -35zM1026 1820q-6 -59 -29 -108.5t-63 -85t-97.5 -55t-131.5 -19.5t-131.5 19.5t-97.5 55t-63 85t-29 108.5l168 12q10 -26 21 -46t28.5 -34t42 -21.5t61.5 -7.5t62 7.5
t42 21.5t28.5 34t20.5 46z" />
    <glyph glyph-name="Agrave" unicode="&#xc0;" horiz-adv-x="1414" 
d="M1019 259h-627l-107 -259h-263l566 1361h236l566 -1361h-264zM480 473h450l-216 525l-8 35h-1l-8 -35zM615 1853l182 -302h-175l-187 238z" />
    <glyph glyph-name="Atilde" unicode="&#xc3;" horiz-adv-x="1414" 
d="M1019 259h-627l-107 -259h-263l566 1361h236l566 -1361h-264zM480 473h450l-216 525l-8 35h-1l-8 -35zM1048 1709q-38 -88 -95 -135.5t-132 -47.5q-44 0 -82.5 10.5t-71.5 23l-60.5 23t-50.5 10.5q-25 0 -48.5 -12.5t-45.5 -53.5l-101 73q15 36 38 67t52.5 52.5t65 32
t75.5 5.5q39 -4 70.5 -14.5t59.5 -22t53 -20t49 -8.5q33 0 63.5 20t56.5 70z" />
    <glyph glyph-name="Amacron" unicode="&#x100;" horiz-adv-x="1414" 
d="M1019 259h-627l-107 -259h-263l566 1361h236l566 -1361h-264zM480 473h450l-216 525l-8 35h-1l-8 -35zM412 1712h585v-146h-585v146z" />
    <glyph glyph-name="Adieresis" unicode="&#xc4;" horiz-adv-x="1414" 
d="M1019 259h-627l-107 -259h-263l566 1361h236l566 -1361h-264zM480 473h450l-216 525l-8 35h-1l-8 -35zM407 1679q0 43 31.5 73t84.5 30q54 0 85.5 -30t31.5 -73q0 -21 -8.5 -39.5t-24 -32.5t-37 -22t-47.5 -8q-53 0 -84.5 30t-31.5 72zM769 1679q0 43 32 73t84 30
q54 0 86 -30t32 -73q0 -21 -8.5 -39.5t-24 -32.5t-37 -22t-48.5 -8q-53 0 -84.5 30t-31.5 72z" />
    <glyph glyph-name="Acircumflex" unicode="&#xc2;" horiz-adv-x="1414" 
d="M1019 259h-627l-107 -259h-263l566 1361h236l566 -1361h-264zM480 473h450l-216 525l-8 35h-1l-8 -35zM1033 1668l-76 -132l-252 154l-253 -154l-76 132l328 207z" />
    <glyph glyph-name="afii10021" unicode="&#x414;" horiz-adv-x="1525" 
d="M1219 0h-918v-301h-249v517h84q27 19 52 54.5t47 80.5t40.5 96.5t32.5 101t23 93.5t12 76l64 642h901v-1144h160v-517h-249v301zM591 692q-15 -134 -53.5 -256.5t-106.5 -219.5h630v928h-425z" />
    <glyph glyph-name="Alpha" unicode="&#x391;" horiz-adv-x="1414" 
d="M1019 259h-627l-107 -259h-263l566 1361h236l566 -1361h-264zM480 473h450l-216 525l-8 35h-1l-8 -35z" />
    <glyph glyph-name="Lambda" unicode="&#x39b;" horiz-adv-x="1414" 
d="M724 967l-19 59l-18 -59l-402 -967h-263l566 1361h236l566 -1361h-264z" />
    <glyph glyph-name="afii10017" unicode="&#x410;" horiz-adv-x="1414" 
d="M1019 259h-627l-107 -259h-263l566 1361h236l566 -1361h-264zM480 473h450l-216 525l-8 35h-1l-8 -35z" />
    <glyph glyph-name="Hbar" unicode="&#x126;" horiz-adv-x="1502" 
d="M158 1360h249v-203h686v203h251v-1360h-251v566h-686v-566h-249v1360zM1093 780v207h-686v-207h686z" />
    <glyph glyph-name="Hcircumflex" unicode="&#x124;" horiz-adv-x="1502" 
d="M158 1360h249v-580h686v580h251v-1360h-251v566h-686v-566h-249v1360zM1085 1668l-76 -132l-252 154l-253 -154l-76 132l328 207z" />
    <glyph glyph-name="Icircumflex" unicode="&#xce;" horiz-adv-x="565" 
d="M158 1360h249v-1360h-249v1360zM615 1668l-76 -132l-252 154l-253 -154l-76 132l328 207z" />
    <glyph glyph-name="Imacron" unicode="&#x12a;" horiz-adv-x="565" 
d="M158 1360h249v-1360h-249v1360zM-6 1712h585v-146h-585v146z" />
    <glyph glyph-name="Iogonek" unicode="&#x12e;" horiz-adv-x="565" 
d="M158 1360h249v-1360h-249v1360zM407 1l-68 -50t-71.5 -59.5t-56 -65.5t-22.5 -68q0 -24 15.5 -37.5t44.5 -13.5q26 0 51 7.5t60 25.5l41 -111q-39 -32 -96 -56.5t-125 -24.5q-51 0 -88.5 12.5t-62 34t-37 51.5t-12.5 66q0 57 27.5 105.5t69 89.5t90 76l91.5 65z" />
    <glyph glyph-name="Iacute" unicode="&#xcd;" horiz-adv-x="565" 
d="M158 1360h249v-1360h-249v1360zM570 1789l-188 -238h-174l182 302z" />
    <glyph glyph-name="Ibreve" unicode="&#x12c;" horiz-adv-x="565" 
d="M158 1360h249v-1360h-249v1360zM606 1814q-6 -59 -29 -108.5t-63 -85t-97.5 -55t-131.5 -19.5t-131.5 19.5t-97.5 55t-63 85t-29 108.5l168 12q10 -26 21 -46t28.5 -34t42 -21.5t61.5 -7.5t62 7.5t42 21.5t28.5 34t20.5 46z" />
    <glyph glyph-name="Igrave" unicode="&#xcc;" horiz-adv-x="565" 
d="M158 1360h249v-1360h-249v1360zM202 1853l182 -302h-175l-187 238z" />
    <glyph glyph-name="Itilde" unicode="&#x128;" horiz-adv-x="565" 
d="M158 1360h249v-1360h-249v1360zM630 1709q-38 -88 -95 -135.5t-132 -47.5q-44 0 -82.5 10.5t-71.5 23l-60.5 23t-50.5 10.5q-25 0 -48.5 -12.5t-45.5 -53.5l-101 73q15 36 38 67t52.5 52.5t65 32t75.5 5.5q39 -4 70.5 -14.5t59.5 -22t53 -20t49 -8.5q33 0 63.5 20
t56.5 70z" />
    <glyph glyph-name="Idieresis" unicode="&#xcf;" horiz-adv-x="565" 
d="M158 1360h249v-1360h-249v1360zM-11 1679q0 43 31.5 73t84.5 30q54 0 85.5 -30t31.5 -73q0 -21 -8.5 -39.5t-24 -32.5t-37 -22t-47.5 -8q-53 0 -84.5 30t-31.5 72zM351 1679q0 43 32 73t84 30q54 0 86 -30t32 -73q0 -21 -8.5 -39.5t-24 -32.5t-37 -22t-48.5 -8
q-53 0 -84.5 30t-31.5 72z" />
    <glyph glyph-name="Eta" unicode="&#x397;" horiz-adv-x="1515" 
d="M158 1360h249v-580h686v580h251v-1360h-251v566h-686v-566h-249v1360z" />
    <glyph glyph-name="afii10031" unicode="&#x41d;" horiz-adv-x="1515" 
d="M158 1360h249v-580h686v580h251v-1360h-251v566h-686v-566h-249v1360z" />
    <glyph glyph-name="Pi" unicode="&#x3a0;" horiz-adv-x="1520" 
d="M1114 1144h-707v-1144h-249v1360h1204v-1360h-248v1144z" />
    <glyph glyph-name="afii10033" unicode="&#x41f;" horiz-adv-x="1520" 
d="M1114 1144h-707v-1144h-249v1360h1204v-1360h-248v1144z" />
    <glyph glyph-name="afii10042" unicode="&#x428;" horiz-adv-x="2093" 
d="M158 1360h249v-1144h515v1144h248v-1144h517v1144h248v-1360h-1777v1360z" />
    <glyph glyph-name="afii10026" unicode="&#x418;" horiz-adv-x="1519" 
d="M158 1360h248v-929l741 929h214v-1360h-249v929l-740 -929h-214v1360z" />
    <glyph glyph-name="afii10030" unicode="&#x41c;" horiz-adv-x="1749" 
d="M809 402l-403 551v-953h-249v1360h217l469 -629l471 629h218v-1360h-249v951l-407 -549h-67z" />
    <glyph glyph-name="afii10055" unicode="&#x406;" horiz-adv-x="565" 
d="M158 1360h249v-1360h-249v1360z" />
    <glyph glyph-name="afii10056" unicode="&#x407;" horiz-adv-x="565" 
d="M11 1679q0 43 31.5 73t84.5 30q54 0 85.5 -30t31.5 -73q0 -21 -8.5 -39.5t-24 -32.5t-37 -22t-47.5 -8q-53 0 -84.5 30t-31.5 72zM373 1679q0 43 32 73t84 30q54 0 86 -30t32 -73q0 -21 -8.5 -39.5t-24 -32.5t-37 -22t-48.5 -8q-53 0 -84.5 30t-31.5 72zM158 1360h249
v-1360h-249v1360z" />
    <glyph glyph-name="afii10057" unicode="&#x408;" horiz-adv-x="816" 
d="M49 215h158q121 0 173.5 61t52.5 171l1 913h247v-914q0 -110 -32.5 -193t-93.5 -139.5t-149 -85t-199 -28.5h-158v215z" />
    <glyph glyph-name="Idotaccent" unicode="&#x130;" horiz-adv-x="565" 
d="M158 1360h249v-1360h-249v1360zM168 1678q0 43 32 73t84 30q54 0 86 -30t32 -73q0 -21 -8.5 -39.5t-24 -32.5t-37 -22t-48.5 -8q-53 0 -84.5 30t-31.5 72z" />
    <glyph glyph-name="Iota" unicode="&#x399;" horiz-adv-x="565" 
d="M158 1360h249v-1360h-249v1360z" />
    <glyph glyph-name="Iotadieresis" unicode="&#x3aa;" horiz-adv-x="565" 
d="M11 1679q0 43 31.5 73t84.5 30q54 0 85.5 -30t31.5 -73q0 -21 -8.5 -39.5t-24 -32.5t-37 -22t-47.5 -8q-53 0 -84.5 30t-31.5 72zM373 1679q0 43 32 73t84 30q54 0 86 -30t32 -73q0 -21 -8.5 -39.5t-24 -32.5t-37 -22t-48.5 -8q-53 0 -84.5 30t-31.5 72zM158 1360h249
v-1360h-249v1360z" />
    <glyph glyph-name="Mu" unicode="&#x39c;" horiz-adv-x="1749" 
d="M809 402l-403 551v-953h-249v1360h217l469 -629l471 629h218v-1360h-249v951l-407 -549h-67z" />
    <glyph glyph-name="Emacron" unicode="&#x112;" horiz-adv-x="1179" 
d="M158 1360h932v-216h-683v-364h590v-214h-590v-351h692v-215h-941v1360zM331 1712h585v-146h-585v146z" />
    <glyph glyph-name="Eogonek" unicode="&#x118;" horiz-adv-x="1179" 
d="M158 1360h932v-216h-683v-364h590v-214h-590v-351h692v-215h-941v1360zM1099 0l-68 -50t-71.5 -59.5t-56 -65.5t-22.5 -68q0 -24 15.5 -37.5t44.5 -13.5q26 0 51 7.5t60 25.5l41 -111q-39 -32 -96 -56.5t-125 -24.5q-51 0 -88.5 12.5t-62 34t-37 51.5t-12.5 66
q0 57 27.5 105.5t69 89.5t90 76l91.5 65z" />
    </font>
</defs>
</svg>
